G04 #@! TF.GenerationSoftware,KiCad,Pcbnew,(5.1.2-1)-1*
G04 #@! TF.CreationDate,2022-02-06T17:07:09+01:00*
G04 #@! TF.ProjectId,RS232interface,52533233-3269-46e7-9465-72666163652e,rev?*
G04 #@! TF.SameCoordinates,Original*
G04 #@! TF.FileFunction,Copper,L2,Bot*
G04 #@! TF.FilePolarity,Positive*
%FSLAX46Y46*%
G04 Gerber Fmt 4.6, Leading zero omitted, Abs format (unit mm)*
G04 Created by KiCad (PCBNEW (5.1.2-1)-1) date 2022-02-06 17:07:09*
%MOMM*%
%LPD*%
G04 APERTURE LIST*
%ADD10C,0.300000*%
%ADD11C,1.600000*%
%ADD12O,2.400000X2.400000*%
%ADD13O,2.400000X1.600000*%
%ADD14R,2.400000X1.600000*%
%ADD15C,1.800000*%
%ADD16O,1.700000X1.700000*%
%ADD17R,1.700000X1.700000*%
%ADD18R,1.800000X1.800000*%
%ADD19R,1.600000X1.600000*%
%ADD20C,0.800000*%
%ADD21C,0.500000*%
%ADD22C,1.000000*%
%ADD23C,0.254000*%
G04 APERTURE END LIST*
D10*
X127321428Y-65428571D02*
X128178571Y-65428571D01*
X127750000Y-65428571D02*
X127750000Y-63928571D01*
X127892857Y-64142857D01*
X128035714Y-64285714D01*
X128178571Y-64357142D01*
X97721428Y-51378571D02*
X98578571Y-51378571D01*
X98150000Y-51378571D02*
X98150000Y-49878571D01*
X98292857Y-50092857D01*
X98435714Y-50235714D01*
X98578571Y-50307142D01*
X85021428Y-59728571D02*
X85878571Y-59728571D01*
X85450000Y-59728571D02*
X85450000Y-58228571D01*
X85592857Y-58442857D01*
X85735714Y-58585714D01*
X85878571Y-58657142D01*
X109435714Y-59907142D02*
X109292857Y-59978571D01*
X109007142Y-59978571D01*
X108864285Y-59907142D01*
X108792857Y-59764285D01*
X108792857Y-59692857D01*
X108864285Y-59550000D01*
X109007142Y-59478571D01*
X109221428Y-59478571D01*
X109364285Y-59407142D01*
X109435714Y-59264285D01*
X109435714Y-59192857D01*
X109364285Y-59050000D01*
X109221428Y-58978571D01*
X109007142Y-58978571D01*
X108864285Y-59050000D01*
X107935714Y-59978571D02*
X108078571Y-59907142D01*
X108150000Y-59835714D01*
X108221428Y-59692857D01*
X108221428Y-59264285D01*
X108150000Y-59121428D01*
X108078571Y-59050000D01*
X107935714Y-58978571D01*
X107721428Y-58978571D01*
X107578571Y-59050000D01*
X107507142Y-59121428D01*
X107435714Y-59264285D01*
X107435714Y-59692857D01*
X107507142Y-59835714D01*
X107578571Y-59907142D01*
X107721428Y-59978571D01*
X107935714Y-59978571D01*
X106578571Y-59978571D02*
X106721428Y-59907142D01*
X106792857Y-59764285D01*
X106792857Y-58478571D01*
X105364285Y-59978571D02*
X105364285Y-58478571D01*
X105364285Y-59907142D02*
X105507142Y-59978571D01*
X105792857Y-59978571D01*
X105935714Y-59907142D01*
X106007142Y-59835714D01*
X106078571Y-59692857D01*
X106078571Y-59264285D01*
X106007142Y-59121428D01*
X105935714Y-59050000D01*
X105792857Y-58978571D01*
X105507142Y-58978571D01*
X105364285Y-59050000D01*
X104078571Y-59907142D02*
X104221428Y-59978571D01*
X104507142Y-59978571D01*
X104650000Y-59907142D01*
X104721428Y-59764285D01*
X104721428Y-59192857D01*
X104650000Y-59050000D01*
X104507142Y-58978571D01*
X104221428Y-58978571D01*
X104078571Y-59050000D01*
X104007142Y-59192857D01*
X104007142Y-59335714D01*
X104721428Y-59478571D01*
X103364285Y-59978571D02*
X103364285Y-58978571D01*
X103364285Y-59264285D02*
X103292857Y-59121428D01*
X103221428Y-59050000D01*
X103078571Y-58978571D01*
X102935714Y-58978571D01*
X101364285Y-59907142D02*
X101221428Y-59978571D01*
X100935714Y-59978571D01*
X100792857Y-59907142D01*
X100721428Y-59764285D01*
X100721428Y-59692857D01*
X100792857Y-59550000D01*
X100935714Y-59478571D01*
X101150000Y-59478571D01*
X101292857Y-59407142D01*
X101364285Y-59264285D01*
X101364285Y-59192857D01*
X101292857Y-59050000D01*
X101150000Y-58978571D01*
X100935714Y-58978571D01*
X100792857Y-59050000D01*
X100078571Y-59978571D02*
X100078571Y-58978571D01*
X100078571Y-58478571D02*
X100150000Y-58550000D01*
X100078571Y-58621428D01*
X100007142Y-58550000D01*
X100078571Y-58478571D01*
X100078571Y-58621428D01*
X98721428Y-59978571D02*
X98721428Y-58478571D01*
X98721428Y-59907142D02*
X98864285Y-59978571D01*
X99150000Y-59978571D01*
X99292857Y-59907142D01*
X99364285Y-59835714D01*
X99435714Y-59692857D01*
X99435714Y-59264285D01*
X99364285Y-59121428D01*
X99292857Y-59050000D01*
X99150000Y-58978571D01*
X98864285Y-58978571D01*
X98721428Y-59050000D01*
X97435714Y-59907142D02*
X97578571Y-59978571D01*
X97864285Y-59978571D01*
X98007142Y-59907142D01*
X98078571Y-59764285D01*
X98078571Y-59192857D01*
X98007142Y-59050000D01*
X97864285Y-58978571D01*
X97578571Y-58978571D01*
X97435714Y-59050000D01*
X97364285Y-59192857D01*
X97364285Y-59335714D01*
X98078571Y-59478571D01*
X69057142Y-49971428D02*
X69128571Y-50185714D01*
X69128571Y-50542857D01*
X69057142Y-50685714D01*
X68985714Y-50757142D01*
X68842857Y-50828571D01*
X68700000Y-50828571D01*
X68557142Y-50757142D01*
X68485714Y-50685714D01*
X68414285Y-50542857D01*
X68342857Y-50257142D01*
X68271428Y-50114285D01*
X68200000Y-50042857D01*
X68057142Y-49971428D01*
X67914285Y-49971428D01*
X67771428Y-50042857D01*
X67700000Y-50114285D01*
X67628571Y-50257142D01*
X67628571Y-50614285D01*
X67700000Y-50828571D01*
X69057142Y-52042857D02*
X69128571Y-51900000D01*
X69128571Y-51614285D01*
X69057142Y-51471428D01*
X68914285Y-51400000D01*
X68342857Y-51400000D01*
X68200000Y-51471428D01*
X68128571Y-51614285D01*
X68128571Y-51900000D01*
X68200000Y-52042857D01*
X68342857Y-52114285D01*
X68485714Y-52114285D01*
X68628571Y-51400000D01*
X69128571Y-52757142D02*
X68128571Y-52757142D01*
X68414285Y-52757142D02*
X68271428Y-52828571D01*
X68200000Y-52900000D01*
X68128571Y-53042857D01*
X68128571Y-53185714D01*
X69128571Y-53685714D02*
X68128571Y-53685714D01*
X67628571Y-53685714D02*
X67700000Y-53614285D01*
X67771428Y-53685714D01*
X67700000Y-53757142D01*
X67628571Y-53685714D01*
X67771428Y-53685714D01*
X69128571Y-55042857D02*
X68342857Y-55042857D01*
X68200000Y-54971428D01*
X68128571Y-54828571D01*
X68128571Y-54542857D01*
X68200000Y-54400000D01*
X69057142Y-55042857D02*
X69128571Y-54900000D01*
X69128571Y-54542857D01*
X69057142Y-54400000D01*
X68914285Y-54328571D01*
X68771428Y-54328571D01*
X68628571Y-54400000D01*
X68557142Y-54542857D01*
X68557142Y-54900000D01*
X68485714Y-55042857D01*
X69128571Y-55971428D02*
X69057142Y-55828571D01*
X68914285Y-55757142D01*
X67628571Y-55757142D01*
X68557142Y-57685714D02*
X68557142Y-58828571D01*
X69128571Y-61542857D02*
X68414285Y-61042857D01*
X69128571Y-60685714D02*
X67628571Y-60685714D01*
X67628571Y-61257142D01*
X67700000Y-61400000D01*
X67771428Y-61471428D01*
X67914285Y-61542857D01*
X68128571Y-61542857D01*
X68271428Y-61471428D01*
X68342857Y-61400000D01*
X68414285Y-61257142D01*
X68414285Y-60685714D01*
X69057142Y-62114285D02*
X69128571Y-62328571D01*
X69128571Y-62685714D01*
X69057142Y-62828571D01*
X68985714Y-62900000D01*
X68842857Y-62971428D01*
X68700000Y-62971428D01*
X68557142Y-62900000D01*
X68485714Y-62828571D01*
X68414285Y-62685714D01*
X68342857Y-62400000D01*
X68271428Y-62257142D01*
X68200000Y-62185714D01*
X68057142Y-62114285D01*
X67914285Y-62114285D01*
X67771428Y-62185714D01*
X67700000Y-62257142D01*
X67628571Y-62400000D01*
X67628571Y-62757142D01*
X67700000Y-62971428D01*
X67771428Y-63542857D02*
X67700000Y-63614285D01*
X67628571Y-63757142D01*
X67628571Y-64114285D01*
X67700000Y-64257142D01*
X67771428Y-64328571D01*
X67914285Y-64400000D01*
X68057142Y-64400000D01*
X68271428Y-64328571D01*
X69128571Y-63471428D01*
X69128571Y-64400000D01*
X67628571Y-64900000D02*
X67628571Y-65828571D01*
X68200000Y-65328571D01*
X68200000Y-65542857D01*
X68271428Y-65685714D01*
X68342857Y-65757142D01*
X68485714Y-65828571D01*
X68842857Y-65828571D01*
X68985714Y-65757142D01*
X69057142Y-65685714D01*
X69128571Y-65542857D01*
X69128571Y-65114285D01*
X69057142Y-64971428D01*
X68985714Y-64900000D01*
X67771428Y-66399999D02*
X67700000Y-66471428D01*
X67628571Y-66614285D01*
X67628571Y-66971428D01*
X67700000Y-67114285D01*
X67771428Y-67185714D01*
X67914285Y-67257142D01*
X68057142Y-67257142D01*
X68271428Y-67185714D01*
X69128571Y-66328571D01*
X69128571Y-67257142D01*
X69057142Y-69685714D02*
X69128571Y-69542857D01*
X69128571Y-69257142D01*
X69057142Y-69114285D01*
X68985714Y-69042857D01*
X68842857Y-68971428D01*
X68414285Y-68971428D01*
X68271428Y-69042857D01*
X68200000Y-69114285D01*
X68128571Y-69257142D01*
X68128571Y-69542857D01*
X68200000Y-69685714D01*
X69128571Y-70542857D02*
X69057142Y-70400000D01*
X68985714Y-70328571D01*
X68842857Y-70257142D01*
X68414285Y-70257142D01*
X68271428Y-70328571D01*
X68200000Y-70400000D01*
X68128571Y-70542857D01*
X68128571Y-70757142D01*
X68200000Y-70900000D01*
X68271428Y-70971428D01*
X68414285Y-71042857D01*
X68842857Y-71042857D01*
X68985714Y-70971428D01*
X69057142Y-70900000D01*
X69128571Y-70757142D01*
X69128571Y-70542857D01*
X68128571Y-71685714D02*
X69128571Y-71685714D01*
X68271428Y-71685714D02*
X68200000Y-71757142D01*
X68128571Y-71900000D01*
X68128571Y-72114285D01*
X68200000Y-72257142D01*
X68342857Y-72328571D01*
X69128571Y-72328571D01*
X68128571Y-72900000D02*
X69128571Y-73257142D01*
X68128571Y-73614285D01*
X69057142Y-74757142D02*
X69128571Y-74614285D01*
X69128571Y-74328571D01*
X69057142Y-74185714D01*
X68914285Y-74114285D01*
X68342857Y-74114285D01*
X68200000Y-74185714D01*
X68128571Y-74328571D01*
X68128571Y-74614285D01*
X68200000Y-74757142D01*
X68342857Y-74828571D01*
X68485714Y-74828571D01*
X68628571Y-74114285D01*
X69128571Y-75471428D02*
X68128571Y-75471428D01*
X68414285Y-75471428D02*
X68271428Y-75542857D01*
X68200000Y-75614285D01*
X68128571Y-75757142D01*
X68128571Y-75900000D01*
X68128571Y-76185714D02*
X68128571Y-76757142D01*
X67628571Y-76400000D02*
X68914285Y-76400000D01*
X69057142Y-76471428D01*
X69128571Y-76614285D01*
X69128571Y-76757142D01*
X69057142Y-77828571D02*
X69128571Y-77685714D01*
X69128571Y-77400000D01*
X69057142Y-77257142D01*
X68914285Y-77185714D01*
X68342857Y-77185714D01*
X68200000Y-77257142D01*
X68128571Y-77400000D01*
X68128571Y-77685714D01*
X68200000Y-77828571D01*
X68342857Y-77900000D01*
X68485714Y-77900000D01*
X68628571Y-77185714D01*
X69128571Y-78542857D02*
X68128571Y-78542857D01*
X68414285Y-78542857D02*
X68271428Y-78614285D01*
X68200000Y-78685714D01*
X68128571Y-78828571D01*
X68128571Y-78971428D01*
X72250000Y-52114285D02*
X72178571Y-52042857D01*
X71964285Y-51900000D01*
X71821428Y-51828571D01*
X71607142Y-51757142D01*
X71250000Y-51685714D01*
X70964285Y-51685714D01*
X70607142Y-51757142D01*
X70392857Y-51828571D01*
X70250000Y-51900000D01*
X70035714Y-52042857D01*
X69964285Y-52114285D01*
X71607142Y-53328571D02*
X71678571Y-53185714D01*
X71678571Y-52900000D01*
X71607142Y-52757142D01*
X71535714Y-52685714D01*
X71392857Y-52614285D01*
X70964285Y-52614285D01*
X70821428Y-52685714D01*
X70750000Y-52757142D01*
X70678571Y-52900000D01*
X70678571Y-53185714D01*
X70750000Y-53328571D01*
X72250000Y-53828571D02*
X72178571Y-53900000D01*
X71964285Y-54042857D01*
X71821428Y-54114285D01*
X71607142Y-54185714D01*
X71250000Y-54257142D01*
X70964285Y-54257142D01*
X70607142Y-54185714D01*
X70392857Y-54114285D01*
X70250000Y-54042857D01*
X70035714Y-53900000D01*
X69964285Y-53828571D01*
X71678571Y-56971428D02*
X70964285Y-56471428D01*
X71678571Y-56114285D02*
X70178571Y-56114285D01*
X70178571Y-56685714D01*
X70250000Y-56828571D01*
X70321428Y-56900000D01*
X70464285Y-56971428D01*
X70678571Y-56971428D01*
X70821428Y-56900000D01*
X70892857Y-56828571D01*
X70964285Y-56685714D01*
X70964285Y-56114285D01*
X71678571Y-57828571D02*
X71607142Y-57685714D01*
X71535714Y-57614285D01*
X71392857Y-57542857D01*
X70964285Y-57542857D01*
X70821428Y-57614285D01*
X70750000Y-57685714D01*
X70678571Y-57828571D01*
X70678571Y-58042857D01*
X70750000Y-58185714D01*
X70821428Y-58257142D01*
X70964285Y-58328571D01*
X71392857Y-58328571D01*
X71535714Y-58257142D01*
X71607142Y-58185714D01*
X71678571Y-58042857D01*
X71678571Y-57828571D01*
X71678571Y-59185714D02*
X71607142Y-59042857D01*
X71464285Y-58971428D01*
X70178571Y-58971428D01*
X71678571Y-60400000D02*
X70892857Y-60400000D01*
X70750000Y-60328571D01*
X70678571Y-60185714D01*
X70678571Y-59900000D01*
X70750000Y-59757142D01*
X71607142Y-60400000D02*
X71678571Y-60257142D01*
X71678571Y-59900000D01*
X71607142Y-59757142D01*
X71464285Y-59685714D01*
X71321428Y-59685714D01*
X71178571Y-59757142D01*
X71107142Y-59900000D01*
X71107142Y-60257142D01*
X71035714Y-60400000D01*
X70678571Y-61114285D02*
X71678571Y-61114285D01*
X70821428Y-61114285D02*
X70750000Y-61185714D01*
X70678571Y-61328571D01*
X70678571Y-61542857D01*
X70750000Y-61685714D01*
X70892857Y-61757142D01*
X71678571Y-61757142D01*
X71678571Y-63114285D02*
X70178571Y-63114285D01*
X71607142Y-63114285D02*
X71678571Y-62971428D01*
X71678571Y-62685714D01*
X71607142Y-62542857D01*
X71535714Y-62471428D01*
X71392857Y-62400000D01*
X70964285Y-62400000D01*
X70821428Y-62471428D01*
X70750000Y-62542857D01*
X70678571Y-62685714D01*
X70678571Y-62971428D01*
X70750000Y-63114285D01*
X71678571Y-65685714D02*
X71678571Y-64971428D01*
X70178571Y-64971428D01*
X71607142Y-66757142D02*
X71678571Y-66614285D01*
X71678571Y-66328571D01*
X71607142Y-66185714D01*
X71464285Y-66114285D01*
X70892857Y-66114285D01*
X70750000Y-66185714D01*
X70678571Y-66328571D01*
X70678571Y-66614285D01*
X70750000Y-66757142D01*
X70892857Y-66828571D01*
X71035714Y-66828571D01*
X71178571Y-66114285D01*
X70678571Y-68114285D02*
X71678571Y-68114285D01*
X70678571Y-67471428D02*
X71464285Y-67471428D01*
X71607142Y-67542857D01*
X71678571Y-67685714D01*
X71678571Y-67900000D01*
X71607142Y-68042857D01*
X71535714Y-68114285D01*
X71678571Y-68828571D02*
X70678571Y-68828571D01*
X70964285Y-68828571D02*
X70821428Y-68900000D01*
X70750000Y-68971428D01*
X70678571Y-69114285D01*
X70678571Y-69257142D01*
X71607142Y-69685714D02*
X71678571Y-69828571D01*
X71678571Y-70114285D01*
X71607142Y-70257142D01*
X71464285Y-70328571D01*
X71392857Y-70328571D01*
X71250000Y-70257142D01*
X71178571Y-70114285D01*
X71178571Y-69900000D01*
X71107142Y-69757142D01*
X70964285Y-69685714D01*
X70892857Y-69685714D01*
X70750000Y-69757142D01*
X70678571Y-69900000D01*
X70678571Y-70114285D01*
X70750000Y-70257142D01*
X70321428Y-72042857D02*
X70250000Y-72114285D01*
X70178571Y-72257142D01*
X70178571Y-72614285D01*
X70250000Y-72757142D01*
X70321428Y-72828571D01*
X70464285Y-72900000D01*
X70607142Y-72900000D01*
X70821428Y-72828571D01*
X71678571Y-71971428D01*
X71678571Y-72900000D01*
X70178571Y-73828571D02*
X70178571Y-73971428D01*
X70250000Y-74114285D01*
X70321428Y-74185714D01*
X70464285Y-74257142D01*
X70750000Y-74328571D01*
X71107142Y-74328571D01*
X71392857Y-74257142D01*
X71535714Y-74185714D01*
X71607142Y-74114285D01*
X71678571Y-73971428D01*
X71678571Y-73828571D01*
X71607142Y-73685714D01*
X71535714Y-73614285D01*
X71392857Y-73542857D01*
X71107142Y-73471428D01*
X70750000Y-73471428D01*
X70464285Y-73542857D01*
X70321428Y-73614285D01*
X70250000Y-73685714D01*
X70178571Y-73828571D01*
X70321428Y-74900000D02*
X70250000Y-74971428D01*
X70178571Y-75114285D01*
X70178571Y-75471428D01*
X70250000Y-75614285D01*
X70321428Y-75685714D01*
X70464285Y-75757142D01*
X70607142Y-75757142D01*
X70821428Y-75685714D01*
X71678571Y-74828571D01*
X71678571Y-75757142D01*
X70321428Y-76328571D02*
X70250000Y-76400000D01*
X70178571Y-76542857D01*
X70178571Y-76900000D01*
X70250000Y-77042857D01*
X70321428Y-77114285D01*
X70464285Y-77185714D01*
X70607142Y-77185714D01*
X70821428Y-77114285D01*
X71678571Y-76257142D01*
X71678571Y-77185714D01*
X74228571Y-54292857D02*
X72728571Y-54292857D01*
X73800000Y-54792857D01*
X72728571Y-55292857D01*
X74228571Y-55292857D01*
X74228571Y-56007142D02*
X72728571Y-56007142D01*
X74228571Y-56864285D02*
X73371428Y-56221428D01*
X72728571Y-56864285D02*
X73585714Y-56007142D01*
X74228571Y-58292857D02*
X74228571Y-57435714D01*
X74228571Y-57864285D02*
X72728571Y-57864285D01*
X72942857Y-57721428D01*
X73085714Y-57578571D01*
X73157142Y-57435714D01*
X72871428Y-60007142D02*
X72800000Y-60078571D01*
X72728571Y-60221428D01*
X72728571Y-60578571D01*
X72800000Y-60721428D01*
X72871428Y-60792857D01*
X73014285Y-60864285D01*
X73157142Y-60864285D01*
X73371428Y-60792857D01*
X74228571Y-59935714D01*
X74228571Y-60864285D01*
X72728571Y-61792857D02*
X72728571Y-61935714D01*
X72800000Y-62078571D01*
X72871428Y-62150000D01*
X73014285Y-62221428D01*
X73300000Y-62292857D01*
X73657142Y-62292857D01*
X73942857Y-62221428D01*
X74085714Y-62150000D01*
X74157142Y-62078571D01*
X74228571Y-61935714D01*
X74228571Y-61792857D01*
X74157142Y-61650000D01*
X74085714Y-61578571D01*
X73942857Y-61507142D01*
X73657142Y-61435714D01*
X73300000Y-61435714D01*
X73014285Y-61507142D01*
X72871428Y-61578571D01*
X72800000Y-61650000D01*
X72728571Y-61792857D01*
X72871428Y-62864285D02*
X72800000Y-62935714D01*
X72728571Y-63078571D01*
X72728571Y-63435714D01*
X72800000Y-63578571D01*
X72871428Y-63650000D01*
X73014285Y-63721428D01*
X73157142Y-63721428D01*
X73371428Y-63650000D01*
X74228571Y-62792857D01*
X74228571Y-63721428D01*
X72871428Y-64292857D02*
X72800000Y-64364285D01*
X72728571Y-64507142D01*
X72728571Y-64864285D01*
X72800000Y-65007142D01*
X72871428Y-65078571D01*
X73014285Y-65150000D01*
X73157142Y-65150000D01*
X73371428Y-65078571D01*
X74228571Y-64221428D01*
X74228571Y-65150000D01*
X73657142Y-65792857D02*
X73657142Y-66935714D01*
X72728571Y-67935714D02*
X72728571Y-68078571D01*
X72800000Y-68221428D01*
X72871428Y-68292857D01*
X73014285Y-68364285D01*
X73300000Y-68435714D01*
X73657142Y-68435714D01*
X73942857Y-68364285D01*
X74085714Y-68292857D01*
X74157142Y-68221428D01*
X74228571Y-68078571D01*
X74228571Y-67935714D01*
X74157142Y-67792857D01*
X74085714Y-67721428D01*
X73942857Y-67650000D01*
X73657142Y-67578571D01*
X73300000Y-67578571D01*
X73014285Y-67650000D01*
X72871428Y-67721428D01*
X72800000Y-67792857D01*
X72728571Y-67935714D01*
X72871428Y-69007142D02*
X72800000Y-69078571D01*
X72728571Y-69221428D01*
X72728571Y-69578571D01*
X72800000Y-69721428D01*
X72871428Y-69792857D01*
X73014285Y-69864285D01*
X73157142Y-69864285D01*
X73371428Y-69792857D01*
X74228571Y-68935714D01*
X74228571Y-69864285D01*
X73657142Y-70507142D02*
X73657142Y-71650000D01*
X72728571Y-72650000D02*
X72728571Y-72792857D01*
X72800000Y-72935714D01*
X72871428Y-73007142D01*
X73014285Y-73078571D01*
X73300000Y-73150000D01*
X73657142Y-73150000D01*
X73942857Y-73078571D01*
X74085714Y-73007142D01*
X74157142Y-72935714D01*
X74228571Y-72792857D01*
X74228571Y-72650000D01*
X74157142Y-72507142D01*
X74085714Y-72435714D01*
X73942857Y-72364285D01*
X73657142Y-72292857D01*
X73300000Y-72292857D01*
X73014285Y-72364285D01*
X72871428Y-72435714D01*
X72800000Y-72507142D01*
X72728571Y-72650000D01*
X72728571Y-73650000D02*
X72728571Y-74650000D01*
X74228571Y-74007142D01*
D11*
X121300000Y-63260000D03*
X121300000Y-78500000D03*
X116650000Y-63310000D03*
X116650000Y-78550000D03*
X90900000Y-65790000D03*
D12*
X90900000Y-50550000D03*
D13*
X111140000Y-50600000D03*
X95900000Y-78540000D03*
X111140000Y-53140000D03*
X95900000Y-76000000D03*
X111140000Y-55680000D03*
X95900000Y-73460000D03*
X111140000Y-58220000D03*
X95900000Y-70920000D03*
X111140000Y-60760000D03*
X95900000Y-68380000D03*
X111140000Y-63300000D03*
X95900000Y-65840000D03*
X111140000Y-65840000D03*
X95900000Y-63300000D03*
X111140000Y-68380000D03*
X95900000Y-60760000D03*
X111140000Y-70920000D03*
X95900000Y-58220000D03*
X111140000Y-73460000D03*
X95900000Y-55680000D03*
X111140000Y-76000000D03*
X95900000Y-53140000D03*
X111140000Y-78540000D03*
D14*
X95900000Y-50600000D03*
D11*
X74650000Y-76990000D03*
X74650000Y-51990000D03*
D15*
X81010000Y-68645000D03*
X81010000Y-65875000D03*
X81010000Y-63105000D03*
X81010000Y-60335000D03*
X83850000Y-70030000D03*
X83850000Y-67260000D03*
X83850000Y-64490000D03*
X83850000Y-61720000D03*
X83850000Y-58950000D03*
D16*
X121350000Y-56510000D03*
D17*
X121350000Y-59050000D03*
D16*
X116700000Y-56460000D03*
D17*
X116700000Y-59000000D03*
D15*
X130340000Y-77060000D03*
X127800000Y-77060000D03*
X130340000Y-74520000D03*
X127800000Y-74520000D03*
X130340000Y-71980000D03*
X127800000Y-71980000D03*
X130340000Y-69440000D03*
X127800000Y-69440000D03*
X130340000Y-66900000D03*
D18*
X127800000Y-66900000D03*
D15*
X90900000Y-69710000D03*
D18*
X90900000Y-72250000D03*
D11*
X90900000Y-76000000D03*
D19*
X90900000Y-78500000D03*
D20*
X106900000Y-62000000D03*
X106900000Y-50550000D03*
X126000000Y-53150000D03*
X129100000Y-54750000D03*
X101970000Y-70920000D03*
X121850000Y-74750000D03*
X108850000Y-56950000D03*
X121300000Y-73650000D03*
X121319990Y-69669990D03*
X88400000Y-60750000D03*
X88400000Y-65850000D03*
X93250000Y-67750000D03*
X125150000Y-76000000D03*
X125150000Y-66900000D03*
X87300000Y-64550000D03*
X87350000Y-53150000D03*
D21*
X124951998Y-77060000D02*
X123700000Y-75808002D01*
X127800000Y-77060000D02*
X124951998Y-77060000D01*
X123610000Y-56510000D02*
X121350000Y-56510000D01*
X123700000Y-56600000D02*
X123610000Y-56510000D01*
X114650010Y-74749990D02*
X123700000Y-65700000D01*
X98850010Y-74749990D02*
X114650010Y-74749990D01*
X97600000Y-76000000D02*
X98850010Y-74749990D01*
X95900000Y-76000000D02*
X97600000Y-76000000D01*
X123700000Y-65700000D02*
X123700000Y-56600000D01*
X123700000Y-75808002D02*
X123700000Y-65700000D01*
D22*
X90900000Y-76000000D02*
X95900000Y-76000000D01*
D21*
X85271380Y-62010010D02*
X106889990Y-62010010D01*
X84981370Y-61720000D02*
X85271380Y-62010010D01*
X106889990Y-62010010D02*
X106900000Y-62000000D01*
X83850000Y-61720000D02*
X84981370Y-61720000D01*
X111090000Y-50550000D02*
X111140000Y-50600000D01*
X106900000Y-50550000D02*
X111090000Y-50550000D01*
X126000000Y-67640000D02*
X127800000Y-69440000D01*
X126000000Y-53150000D02*
X126000000Y-67640000D01*
X131690001Y-68089999D02*
X131690001Y-55540001D01*
X130340000Y-69440000D02*
X131690001Y-68089999D01*
X130900000Y-54750000D02*
X129100000Y-54750000D01*
X131690001Y-55540001D02*
X130900000Y-54750000D01*
X81650001Y-73600001D02*
X81010000Y-72960000D01*
X94059999Y-73600001D02*
X81650001Y-73600001D01*
X94200000Y-73460000D02*
X94059999Y-73600001D01*
X81010000Y-72960000D02*
X81010000Y-68645000D01*
X95900000Y-73460000D02*
X94200000Y-73460000D01*
X121350000Y-63210000D02*
X121300000Y-63260000D01*
X121350000Y-59050000D02*
X121350000Y-63210000D01*
X95900000Y-70920000D02*
X101970000Y-70920000D01*
X116700000Y-63260000D02*
X116650000Y-63310000D01*
X116700000Y-59000000D02*
X116700000Y-63260000D01*
X79878630Y-63105000D02*
X79873630Y-63100000D01*
X81010000Y-63105000D02*
X79878630Y-63105000D01*
X79873630Y-63100000D02*
X79300000Y-63100000D01*
X79300000Y-63100000D02*
X78150000Y-61950000D01*
X78150000Y-61950000D02*
X78150000Y-57950000D01*
X79150000Y-56950000D02*
X108850000Y-56950000D01*
X78150000Y-57950000D02*
X79150000Y-56950000D01*
X121300000Y-69689980D02*
X121319990Y-69669990D01*
X121300000Y-73650000D02*
X121300000Y-69689980D01*
X109440000Y-65840000D02*
X111140000Y-65840000D01*
X108189990Y-64589990D02*
X109440000Y-65840000D01*
X94982229Y-64589990D02*
X108189990Y-64589990D01*
X81909999Y-61234999D02*
X81010000Y-60335000D01*
X81909999Y-61778001D02*
X81909999Y-61234999D01*
X93462240Y-63070001D02*
X83201999Y-63070001D01*
X83201999Y-63070001D02*
X81909999Y-61778001D01*
X94982229Y-64589990D02*
X93462240Y-63070001D01*
X88410000Y-60760000D02*
X88400000Y-60750000D01*
X95900000Y-60760000D02*
X88410000Y-60760000D01*
X81035000Y-65850000D02*
X81010000Y-65875000D01*
X88400000Y-65850000D02*
X81035000Y-65850000D01*
X90417998Y-67750000D02*
X93250000Y-67750000D01*
X89927998Y-67260000D02*
X90417998Y-67750000D01*
X83850000Y-67260000D02*
X89927998Y-67260000D01*
X125150000Y-76000000D02*
X125150000Y-66900000D01*
X87240000Y-64490000D02*
X87300000Y-64550000D01*
X83850000Y-64490000D02*
X87240000Y-64490000D01*
X95890000Y-53150000D02*
X95900000Y-53140000D01*
X87350000Y-53150000D02*
X95890000Y-53150000D01*
X111030000Y-78650000D02*
X111140000Y-78540000D01*
D23*
G36*
X132740001Y-81040000D02*
G01*
X67110000Y-81040000D01*
X67110000Y-79899285D01*
X75580000Y-79899285D01*
X75580000Y-78089396D01*
X75764637Y-77904759D01*
X75901452Y-77700000D01*
X89461928Y-77700000D01*
X89461928Y-79300000D01*
X89474188Y-79424482D01*
X89510498Y-79544180D01*
X89569463Y-79654494D01*
X89648815Y-79751185D01*
X89745506Y-79830537D01*
X89855820Y-79889502D01*
X89975518Y-79925812D01*
X90100000Y-79938072D01*
X91700000Y-79938072D01*
X91824482Y-79925812D01*
X91944180Y-79889502D01*
X92054494Y-79830537D01*
X92151185Y-79751185D01*
X92230537Y-79654494D01*
X92289502Y-79544180D01*
X92325812Y-79424482D01*
X92338072Y-79300000D01*
X92338072Y-78540000D01*
X94058057Y-78540000D01*
X94085764Y-78821309D01*
X94167818Y-79091808D01*
X94301068Y-79341101D01*
X94480392Y-79559608D01*
X94698899Y-79738932D01*
X94948192Y-79872182D01*
X95218691Y-79954236D01*
X95429508Y-79975000D01*
X96370492Y-79975000D01*
X96581309Y-79954236D01*
X96851808Y-79872182D01*
X97101101Y-79738932D01*
X97319608Y-79559608D01*
X97498932Y-79341101D01*
X97632182Y-79091808D01*
X97714236Y-78821309D01*
X97741943Y-78540000D01*
X97714236Y-78258691D01*
X97632182Y-77988192D01*
X97498932Y-77738899D01*
X97319608Y-77520392D01*
X97101101Y-77341068D01*
X96973259Y-77272735D01*
X97202839Y-77122601D01*
X97404500Y-76924895D01*
X97563715Y-76691646D01*
X97674367Y-76431818D01*
X97691904Y-76349039D01*
X97569915Y-76127000D01*
X96027000Y-76127000D01*
X96027000Y-76147000D01*
X95773000Y-76147000D01*
X95773000Y-76127000D01*
X94230085Y-76127000D01*
X94108096Y-76349039D01*
X94125633Y-76431818D01*
X94236285Y-76691646D01*
X94395500Y-76924895D01*
X94597161Y-77122601D01*
X94826741Y-77272735D01*
X94698899Y-77341068D01*
X94480392Y-77520392D01*
X94301068Y-77738899D01*
X94167818Y-77988192D01*
X94085764Y-78258691D01*
X94058057Y-78540000D01*
X92338072Y-78540000D01*
X92338072Y-77700000D01*
X92325812Y-77575518D01*
X92289502Y-77455820D01*
X92230537Y-77345506D01*
X92151185Y-77248815D01*
X92054494Y-77169463D01*
X91944180Y-77110498D01*
X91824482Y-77074188D01*
X91700000Y-77061928D01*
X91692785Y-77061928D01*
X91713097Y-76992702D01*
X90900000Y-76179605D01*
X90086903Y-76992702D01*
X90107215Y-77061928D01*
X90100000Y-77061928D01*
X89975518Y-77074188D01*
X89855820Y-77110498D01*
X89745506Y-77169463D01*
X89648815Y-77248815D01*
X89569463Y-77345506D01*
X89510498Y-77455820D01*
X89474188Y-77575518D01*
X89461928Y-77700000D01*
X75901452Y-77700000D01*
X75921680Y-77669727D01*
X76029853Y-77408574D01*
X76085000Y-77131335D01*
X76085000Y-76848665D01*
X76029853Y-76571426D01*
X75921680Y-76310273D01*
X75764637Y-76075241D01*
X75759908Y-76070512D01*
X89459783Y-76070512D01*
X89501213Y-76350130D01*
X89596397Y-76616292D01*
X89663329Y-76741514D01*
X89907298Y-76813097D01*
X90720395Y-76000000D01*
X91079605Y-76000000D01*
X91892702Y-76813097D01*
X92136671Y-76741514D01*
X92257571Y-76486004D01*
X92326300Y-76211816D01*
X92340217Y-75929488D01*
X92298787Y-75649870D01*
X92203603Y-75383708D01*
X92136671Y-75258486D01*
X91892702Y-75186903D01*
X91079605Y-76000000D01*
X90720395Y-76000000D01*
X89907298Y-75186903D01*
X89663329Y-75258486D01*
X89542429Y-75513996D01*
X89473700Y-75788184D01*
X89459783Y-76070512D01*
X75759908Y-76070512D01*
X75580000Y-75890604D01*
X75580000Y-75007298D01*
X90086903Y-75007298D01*
X90900000Y-75820395D01*
X91713097Y-75007298D01*
X91641514Y-74763329D01*
X91386004Y-74642429D01*
X91111816Y-74573700D01*
X90829488Y-74559783D01*
X90549870Y-74601213D01*
X90283708Y-74696397D01*
X90158486Y-74763329D01*
X90086903Y-75007298D01*
X75580000Y-75007298D01*
X75580000Y-57950000D01*
X77260719Y-57950000D01*
X77265001Y-57993479D01*
X77265000Y-61906531D01*
X77260719Y-61950000D01*
X77265000Y-61993469D01*
X77265000Y-61993476D01*
X77269417Y-62038320D01*
X77277805Y-62123490D01*
X77292973Y-62173490D01*
X77328411Y-62290312D01*
X77410589Y-62444058D01*
X77521183Y-62578817D01*
X77554956Y-62606534D01*
X78643470Y-63695049D01*
X78671183Y-63728817D01*
X78704951Y-63756530D01*
X78704953Y-63756532D01*
X78805941Y-63839411D01*
X78959686Y-63921589D01*
X79027618Y-63942196D01*
X79126510Y-63972195D01*
X79256523Y-63985000D01*
X79256531Y-63985000D01*
X79300000Y-63989281D01*
X79343469Y-63985000D01*
X79751869Y-63985000D01*
X79817688Y-64083505D01*
X80031495Y-64297312D01*
X80282905Y-64465299D01*
X80342538Y-64490000D01*
X80282905Y-64514701D01*
X80031495Y-64682688D01*
X79817688Y-64896495D01*
X79649701Y-65147905D01*
X79533989Y-65427257D01*
X79475000Y-65723816D01*
X79475000Y-66026184D01*
X79533989Y-66322743D01*
X79649701Y-66602095D01*
X79817688Y-66853505D01*
X80031495Y-67067312D01*
X80282905Y-67235299D01*
X80342538Y-67260000D01*
X80282905Y-67284701D01*
X80031495Y-67452688D01*
X79817688Y-67666495D01*
X79649701Y-67917905D01*
X79533989Y-68197257D01*
X79475000Y-68493816D01*
X79475000Y-68796184D01*
X79533989Y-69092743D01*
X79649701Y-69372095D01*
X79817688Y-69623505D01*
X80031495Y-69837312D01*
X80125001Y-69899791D01*
X80125000Y-72916531D01*
X80120719Y-72960000D01*
X80125000Y-73003469D01*
X80125000Y-73003476D01*
X80135092Y-73105941D01*
X80137805Y-73133490D01*
X80145756Y-73159701D01*
X80188411Y-73300312D01*
X80270589Y-73454058D01*
X80381183Y-73588817D01*
X80414956Y-73616534D01*
X80993471Y-74195050D01*
X81021184Y-74228818D01*
X81054952Y-74256531D01*
X81054954Y-74256533D01*
X81082107Y-74278817D01*
X81155942Y-74339412D01*
X81309688Y-74421590D01*
X81476511Y-74472196D01*
X81606524Y-74485001D01*
X81606534Y-74485001D01*
X81650000Y-74489282D01*
X81693466Y-74485001D01*
X94016530Y-74485001D01*
X94059999Y-74489282D01*
X94103468Y-74485001D01*
X94103476Y-74485001D01*
X94233489Y-74472196D01*
X94400312Y-74421590D01*
X94422879Y-74409528D01*
X94480392Y-74479608D01*
X94698899Y-74658932D01*
X94826741Y-74727265D01*
X94597161Y-74877399D01*
X94395500Y-75075105D01*
X94236285Y-75308354D01*
X94125633Y-75568182D01*
X94108096Y-75650961D01*
X94230085Y-75873000D01*
X95773000Y-75873000D01*
X95773000Y-75853000D01*
X96027000Y-75853000D01*
X96027000Y-75873000D01*
X97569915Y-75873000D01*
X97691904Y-75650961D01*
X97674367Y-75568182D01*
X97563715Y-75308354D01*
X97404500Y-75075105D01*
X97202839Y-74877399D01*
X96973259Y-74727265D01*
X97101101Y-74658932D01*
X97319608Y-74479608D01*
X97498932Y-74261101D01*
X97632182Y-74011808D01*
X97714236Y-73741309D01*
X97741943Y-73460000D01*
X97714236Y-73178691D01*
X97632182Y-72908192D01*
X97498932Y-72658899D01*
X97319608Y-72440392D01*
X97101101Y-72261068D01*
X96968142Y-72190000D01*
X97101101Y-72118932D01*
X97319608Y-71939608D01*
X97430078Y-71805000D01*
X101431546Y-71805000D01*
X101479744Y-71837205D01*
X101668102Y-71915226D01*
X101868061Y-71955000D01*
X102071939Y-71955000D01*
X102271898Y-71915226D01*
X102460256Y-71837205D01*
X102629774Y-71723937D01*
X102773937Y-71579774D01*
X102887205Y-71410256D01*
X102965226Y-71221898D01*
X103005000Y-71021939D01*
X103005000Y-70818061D01*
X102965226Y-70618102D01*
X102887205Y-70429744D01*
X102773937Y-70260226D01*
X102629774Y-70116063D01*
X102460256Y-70002795D01*
X102271898Y-69924774D01*
X102071939Y-69885000D01*
X101868061Y-69885000D01*
X101668102Y-69924774D01*
X101479744Y-70002795D01*
X101431546Y-70035000D01*
X97430078Y-70035000D01*
X97319608Y-69900392D01*
X97101101Y-69721068D01*
X96968142Y-69650000D01*
X97101101Y-69578932D01*
X97319608Y-69399608D01*
X97498932Y-69181101D01*
X97632182Y-68931808D01*
X97714236Y-68661309D01*
X97741943Y-68380000D01*
X97714236Y-68098691D01*
X97632182Y-67828192D01*
X97498932Y-67578899D01*
X97319608Y-67360392D01*
X97101101Y-67181068D01*
X96968142Y-67110000D01*
X97101101Y-67038932D01*
X97319608Y-66859608D01*
X97498932Y-66641101D01*
X97632182Y-66391808D01*
X97714236Y-66121309D01*
X97741943Y-65840000D01*
X97714236Y-65558691D01*
X97688846Y-65474990D01*
X107823412Y-65474990D01*
X108783470Y-66435049D01*
X108811183Y-66468817D01*
X108844951Y-66496530D01*
X108844953Y-66496532D01*
X108874267Y-66520589D01*
X108945941Y-66579411D01*
X109099687Y-66661589D01*
X109266510Y-66712195D01*
X109396523Y-66725000D01*
X109396533Y-66725000D01*
X109439999Y-66729281D01*
X109483465Y-66725000D01*
X109609922Y-66725000D01*
X109720392Y-66859608D01*
X109938899Y-67038932D01*
X110071858Y-67110000D01*
X109938899Y-67181068D01*
X109720392Y-67360392D01*
X109541068Y-67578899D01*
X109407818Y-67828192D01*
X109325764Y-68098691D01*
X109298057Y-68380000D01*
X109325764Y-68661309D01*
X109407818Y-68931808D01*
X109541068Y-69181101D01*
X109720392Y-69399608D01*
X109938899Y-69578932D01*
X110071858Y-69650000D01*
X109938899Y-69721068D01*
X109720392Y-69900392D01*
X109541068Y-70118899D01*
X109407818Y-70368192D01*
X109325764Y-70638691D01*
X109298057Y-70920000D01*
X109325764Y-71201309D01*
X109407818Y-71471808D01*
X109541068Y-71721101D01*
X109720392Y-71939608D01*
X109938899Y-72118932D01*
X110071858Y-72190000D01*
X109938899Y-72261068D01*
X109720392Y-72440392D01*
X109541068Y-72658899D01*
X109407818Y-72908192D01*
X109325764Y-73178691D01*
X109298057Y-73460000D01*
X109325764Y-73741309D01*
X109407818Y-74011808D01*
X109541068Y-74261101D01*
X109720392Y-74479608D01*
X109938899Y-74658932D01*
X110071858Y-74730000D01*
X109938899Y-74801068D01*
X109720392Y-74980392D01*
X109541068Y-75198899D01*
X109407818Y-75448192D01*
X109325764Y-75718691D01*
X109298057Y-76000000D01*
X109325764Y-76281309D01*
X109407818Y-76551808D01*
X109541068Y-76801101D01*
X109720392Y-77019608D01*
X109938899Y-77198932D01*
X110071858Y-77270000D01*
X109938899Y-77341068D01*
X109720392Y-77520392D01*
X109541068Y-77738899D01*
X109407818Y-77988192D01*
X109325764Y-78258691D01*
X109298057Y-78540000D01*
X109325764Y-78821309D01*
X109407818Y-79091808D01*
X109541068Y-79341101D01*
X109720392Y-79559608D01*
X109938899Y-79738932D01*
X110188192Y-79872182D01*
X110458691Y-79954236D01*
X110669508Y-79975000D01*
X111610492Y-79975000D01*
X111821309Y-79954236D01*
X112091808Y-79872182D01*
X112341101Y-79738932D01*
X112559608Y-79559608D01*
X112738932Y-79341101D01*
X112872182Y-79091808D01*
X112954236Y-78821309D01*
X112981943Y-78540000D01*
X112969008Y-78408665D01*
X115215000Y-78408665D01*
X115215000Y-78691335D01*
X115270147Y-78968574D01*
X115378320Y-79229727D01*
X115535363Y-79464759D01*
X115735241Y-79664637D01*
X115970273Y-79821680D01*
X116231426Y-79929853D01*
X116508665Y-79985000D01*
X116791335Y-79985000D01*
X117068574Y-79929853D01*
X117329727Y-79821680D01*
X117564759Y-79664637D01*
X117764637Y-79464759D01*
X117921680Y-79229727D01*
X118029853Y-78968574D01*
X118085000Y-78691335D01*
X118085000Y-78408665D01*
X118075055Y-78358665D01*
X119865000Y-78358665D01*
X119865000Y-78641335D01*
X119920147Y-78918574D01*
X120028320Y-79179727D01*
X120185363Y-79414759D01*
X120385241Y-79614637D01*
X120620273Y-79771680D01*
X120881426Y-79879853D01*
X121158665Y-79935000D01*
X121441335Y-79935000D01*
X121718574Y-79879853D01*
X121979727Y-79771680D01*
X122214759Y-79614637D01*
X122414637Y-79414759D01*
X122571680Y-79179727D01*
X122679853Y-78918574D01*
X122735000Y-78641335D01*
X122735000Y-78358665D01*
X122688338Y-78124080D01*
X126915525Y-78124080D01*
X126999208Y-78378261D01*
X127271775Y-78509158D01*
X127564642Y-78584365D01*
X127866553Y-78600991D01*
X128165907Y-78558397D01*
X128451199Y-78458222D01*
X128600792Y-78378261D01*
X128684475Y-78124080D01*
X127800000Y-77239605D01*
X126915525Y-78124080D01*
X122688338Y-78124080D01*
X122679853Y-78081426D01*
X122571680Y-77820273D01*
X122414637Y-77585241D01*
X122214759Y-77385363D01*
X121979727Y-77228320D01*
X121734040Y-77126553D01*
X126259009Y-77126553D01*
X126301603Y-77425907D01*
X126401778Y-77711199D01*
X126481739Y-77860792D01*
X126735920Y-77944475D01*
X127620395Y-77060000D01*
X126735920Y-76175525D01*
X126481739Y-76259208D01*
X126350842Y-76531775D01*
X126275635Y-76824642D01*
X126259009Y-77126553D01*
X121734040Y-77126553D01*
X121718574Y-77120147D01*
X121441335Y-77065000D01*
X121158665Y-77065000D01*
X120881426Y-77120147D01*
X120620273Y-77228320D01*
X120385241Y-77385363D01*
X120185363Y-77585241D01*
X120028320Y-77820273D01*
X119920147Y-78081426D01*
X119865000Y-78358665D01*
X118075055Y-78358665D01*
X118029853Y-78131426D01*
X117921680Y-77870273D01*
X117764637Y-77635241D01*
X117564759Y-77435363D01*
X117329727Y-77278320D01*
X117068574Y-77170147D01*
X116791335Y-77115000D01*
X116508665Y-77115000D01*
X116231426Y-77170147D01*
X115970273Y-77278320D01*
X115735241Y-77435363D01*
X115535363Y-77635241D01*
X115378320Y-77870273D01*
X115270147Y-78131426D01*
X115215000Y-78408665D01*
X112969008Y-78408665D01*
X112954236Y-78258691D01*
X112872182Y-77988192D01*
X112738932Y-77738899D01*
X112559608Y-77520392D01*
X112341101Y-77341068D01*
X112208142Y-77270000D01*
X112341101Y-77198932D01*
X112559608Y-77019608D01*
X112738932Y-76801101D01*
X112872182Y-76551808D01*
X112954236Y-76281309D01*
X112981943Y-76000000D01*
X112954236Y-75718691D01*
X112872182Y-75448192D01*
X112738932Y-75198899D01*
X112559608Y-74980392D01*
X112341101Y-74801068D01*
X112208142Y-74730000D01*
X112341101Y-74658932D01*
X112559608Y-74479608D01*
X112738932Y-74261101D01*
X112872182Y-74011808D01*
X112954236Y-73741309D01*
X112973269Y-73548061D01*
X120265000Y-73548061D01*
X120265000Y-73751939D01*
X120304774Y-73951898D01*
X120382795Y-74140256D01*
X120496063Y-74309774D01*
X120640226Y-74453937D01*
X120809744Y-74567205D01*
X120829459Y-74575371D01*
X120815000Y-74648061D01*
X120815000Y-74851939D01*
X120854774Y-75051898D01*
X120932795Y-75240256D01*
X121046063Y-75409774D01*
X121190226Y-75553937D01*
X121359744Y-75667205D01*
X121548102Y-75745226D01*
X121748061Y-75785000D01*
X121951939Y-75785000D01*
X122151898Y-75745226D01*
X122340256Y-75667205D01*
X122509774Y-75553937D01*
X122653937Y-75409774D01*
X122767205Y-75240256D01*
X122845226Y-75051898D01*
X122885000Y-74851939D01*
X122885000Y-74648061D01*
X122845226Y-74448102D01*
X122767205Y-74259744D01*
X122653937Y-74090226D01*
X122509774Y-73946063D01*
X122340256Y-73832795D01*
X122320541Y-73824629D01*
X122335000Y-73751939D01*
X122335000Y-73548061D01*
X122295226Y-73348102D01*
X122217205Y-73159744D01*
X122185000Y-73111546D01*
X122185000Y-70238362D01*
X122237195Y-70160246D01*
X122315216Y-69971888D01*
X122354990Y-69771929D01*
X122354990Y-69568051D01*
X122315216Y-69368092D01*
X122237195Y-69179734D01*
X122123927Y-69010216D01*
X121979764Y-68866053D01*
X121810246Y-68752785D01*
X121621888Y-68674764D01*
X121421929Y-68634990D01*
X121218051Y-68634990D01*
X121018092Y-68674764D01*
X120829734Y-68752785D01*
X120660216Y-68866053D01*
X120516053Y-69010216D01*
X120402785Y-69179734D01*
X120324764Y-69368092D01*
X120284990Y-69568051D01*
X120284990Y-69771929D01*
X120324764Y-69971888D01*
X120402785Y-70160246D01*
X120415001Y-70178528D01*
X120415000Y-73111545D01*
X120382795Y-73159744D01*
X120304774Y-73348102D01*
X120265000Y-73548061D01*
X112973269Y-73548061D01*
X112981943Y-73460000D01*
X112954236Y-73178691D01*
X112872182Y-72908192D01*
X112738932Y-72658899D01*
X112559608Y-72440392D01*
X112341101Y-72261068D01*
X112208142Y-72190000D01*
X112341101Y-72118932D01*
X112559608Y-71939608D01*
X112738932Y-71721101D01*
X112872182Y-71471808D01*
X112954236Y-71201309D01*
X112981943Y-70920000D01*
X112954236Y-70638691D01*
X112872182Y-70368192D01*
X112738932Y-70118899D01*
X112559608Y-69900392D01*
X112341101Y-69721068D01*
X112208142Y-69650000D01*
X112341101Y-69578932D01*
X112559608Y-69399608D01*
X112738932Y-69181101D01*
X112872182Y-68931808D01*
X112954236Y-68661309D01*
X112981943Y-68380000D01*
X112954236Y-68098691D01*
X112872182Y-67828192D01*
X112738932Y-67578899D01*
X112559608Y-67360392D01*
X112341101Y-67181068D01*
X112208142Y-67110000D01*
X112341101Y-67038932D01*
X112559608Y-66859608D01*
X112610118Y-66798061D01*
X124115000Y-66798061D01*
X124115000Y-67001939D01*
X124154774Y-67201898D01*
X124232795Y-67390256D01*
X124265001Y-67438456D01*
X124265000Y-75461546D01*
X124232795Y-75509744D01*
X124154774Y-75698102D01*
X124115000Y-75898061D01*
X124115000Y-76101939D01*
X124154774Y-76301898D01*
X124232795Y-76490256D01*
X124346063Y-76659774D01*
X124490226Y-76803937D01*
X124659744Y-76917205D01*
X124848102Y-76995226D01*
X125048061Y-77035000D01*
X125251939Y-77035000D01*
X125451898Y-76995226D01*
X125640256Y-76917205D01*
X125809774Y-76803937D01*
X125953937Y-76659774D01*
X126067205Y-76490256D01*
X126145226Y-76301898D01*
X126185000Y-76101939D01*
X126185000Y-75898061D01*
X126145226Y-75698102D01*
X126067205Y-75509744D01*
X126035000Y-75461546D01*
X126035000Y-68926578D01*
X126286940Y-69178518D01*
X126265000Y-69288816D01*
X126265000Y-69591184D01*
X126323989Y-69887743D01*
X126439701Y-70167095D01*
X126607688Y-70418505D01*
X126821495Y-70632312D01*
X126937763Y-70710000D01*
X126821495Y-70787688D01*
X126607688Y-71001495D01*
X126439701Y-71252905D01*
X126323989Y-71532257D01*
X126265000Y-71828816D01*
X126265000Y-72131184D01*
X126323989Y-72427743D01*
X126439701Y-72707095D01*
X126607688Y-72958505D01*
X126821495Y-73172312D01*
X126937763Y-73250000D01*
X126821495Y-73327688D01*
X126607688Y-73541495D01*
X126439701Y-73792905D01*
X126323989Y-74072257D01*
X126265000Y-74368816D01*
X126265000Y-74671184D01*
X126323989Y-74967743D01*
X126439701Y-75247095D01*
X126607688Y-75498505D01*
X126821495Y-75712312D01*
X126975105Y-75814951D01*
X126915525Y-75995920D01*
X127800000Y-76880395D01*
X128684475Y-75995920D01*
X128624895Y-75814951D01*
X128778505Y-75712312D01*
X128992312Y-75498505D01*
X129070000Y-75382237D01*
X129147688Y-75498505D01*
X129361495Y-75712312D01*
X129477763Y-75790000D01*
X129361495Y-75867688D01*
X129147688Y-76081495D01*
X129045049Y-76235105D01*
X128864080Y-76175525D01*
X127979605Y-77060000D01*
X128864080Y-77944475D01*
X129045049Y-77884895D01*
X129147688Y-78038505D01*
X129361495Y-78252312D01*
X129612905Y-78420299D01*
X129892257Y-78536011D01*
X130188816Y-78595000D01*
X130491184Y-78595000D01*
X130787743Y-78536011D01*
X131067095Y-78420299D01*
X131318505Y-78252312D01*
X131532312Y-78038505D01*
X131700299Y-77787095D01*
X131816011Y-77507743D01*
X131875000Y-77211184D01*
X131875000Y-76908816D01*
X131816011Y-76612257D01*
X131700299Y-76332905D01*
X131532312Y-76081495D01*
X131318505Y-75867688D01*
X131202237Y-75790000D01*
X131318505Y-75712312D01*
X131532312Y-75498505D01*
X131700299Y-75247095D01*
X131816011Y-74967743D01*
X131875000Y-74671184D01*
X131875000Y-74368816D01*
X131816011Y-74072257D01*
X131700299Y-73792905D01*
X131532312Y-73541495D01*
X131318505Y-73327688D01*
X131202237Y-73250000D01*
X131318505Y-73172312D01*
X131532312Y-72958505D01*
X131700299Y-72707095D01*
X131816011Y-72427743D01*
X131875000Y-72131184D01*
X131875000Y-71828816D01*
X131816011Y-71532257D01*
X131700299Y-71252905D01*
X131532312Y-71001495D01*
X131318505Y-70787688D01*
X131202237Y-70710000D01*
X131318505Y-70632312D01*
X131532312Y-70418505D01*
X131700299Y-70167095D01*
X131816011Y-69887743D01*
X131875000Y-69591184D01*
X131875000Y-69288816D01*
X131853060Y-69178518D01*
X132285051Y-68746528D01*
X132318818Y-68718816D01*
X132361175Y-68667205D01*
X132429412Y-68584058D01*
X132494872Y-68461589D01*
X132511590Y-68430312D01*
X132562196Y-68263489D01*
X132575001Y-68133476D01*
X132575001Y-68133468D01*
X132579282Y-68089999D01*
X132575001Y-68046530D01*
X132575001Y-55583466D01*
X132579282Y-55540000D01*
X132575001Y-55496534D01*
X132575001Y-55496524D01*
X132562196Y-55366511D01*
X132511590Y-55199688D01*
X132429412Y-55045942D01*
X132318818Y-54911184D01*
X132285050Y-54883471D01*
X131556534Y-54154956D01*
X131528817Y-54121183D01*
X131394059Y-54010589D01*
X131240313Y-53928411D01*
X131073490Y-53877805D01*
X130943477Y-53865000D01*
X130943469Y-53865000D01*
X130900000Y-53860719D01*
X130856531Y-53865000D01*
X129638454Y-53865000D01*
X129590256Y-53832795D01*
X129401898Y-53754774D01*
X129201939Y-53715000D01*
X128998061Y-53715000D01*
X128798102Y-53754774D01*
X128609744Y-53832795D01*
X128440226Y-53946063D01*
X128296063Y-54090226D01*
X128182795Y-54259744D01*
X128104774Y-54448102D01*
X128065000Y-54648061D01*
X128065000Y-54851939D01*
X128104774Y-55051898D01*
X128182795Y-55240256D01*
X128296063Y-55409774D01*
X128440226Y-55553937D01*
X128609744Y-55667205D01*
X128798102Y-55745226D01*
X128998061Y-55785000D01*
X129201939Y-55785000D01*
X129401898Y-55745226D01*
X129590256Y-55667205D01*
X129638454Y-55635000D01*
X130533422Y-55635000D01*
X130805002Y-55906581D01*
X130805001Y-65431138D01*
X130787743Y-65423989D01*
X130491184Y-65365000D01*
X130188816Y-65365000D01*
X129892257Y-65423989D01*
X129612905Y-65539701D01*
X129361495Y-65707688D01*
X129295056Y-65774127D01*
X129289502Y-65755820D01*
X129249286Y-65680582D01*
X129249286Y-62960000D01*
X126885000Y-62960000D01*
X126885000Y-53688454D01*
X126917205Y-53640256D01*
X126995226Y-53451898D01*
X127035000Y-53251939D01*
X127035000Y-53048061D01*
X126995226Y-52848102D01*
X126917205Y-52659744D01*
X126803937Y-52490226D01*
X126659774Y-52346063D01*
X126490256Y-52232795D01*
X126301898Y-52154774D01*
X126101939Y-52115000D01*
X125898061Y-52115000D01*
X125698102Y-52154774D01*
X125509744Y-52232795D01*
X125340226Y-52346063D01*
X125196063Y-52490226D01*
X125082795Y-52659744D01*
X125004774Y-52848102D01*
X124965000Y-53048061D01*
X124965000Y-53251939D01*
X125004774Y-53451898D01*
X125082795Y-53640256D01*
X125115000Y-53688454D01*
X125115001Y-65865000D01*
X125048061Y-65865000D01*
X124848102Y-65904774D01*
X124659744Y-65982795D01*
X124490226Y-66096063D01*
X124346063Y-66240226D01*
X124232795Y-66409744D01*
X124154774Y-66598102D01*
X124115000Y-66798061D01*
X112610118Y-66798061D01*
X112738932Y-66641101D01*
X112872182Y-66391808D01*
X112954236Y-66121309D01*
X112981943Y-65840000D01*
X112954236Y-65558691D01*
X112872182Y-65288192D01*
X112738932Y-65038899D01*
X112559608Y-64820392D01*
X112341101Y-64641068D01*
X112208142Y-64570000D01*
X112341101Y-64498932D01*
X112559608Y-64319608D01*
X112738932Y-64101101D01*
X112872182Y-63851808D01*
X112954236Y-63581309D01*
X112981943Y-63300000D01*
X112954236Y-63018691D01*
X112872182Y-62748192D01*
X112738932Y-62498899D01*
X112559608Y-62280392D01*
X112341101Y-62101068D01*
X112208142Y-62030000D01*
X112341101Y-61958932D01*
X112559608Y-61779608D01*
X112738932Y-61561101D01*
X112872182Y-61311808D01*
X112954236Y-61041309D01*
X112981943Y-60760000D01*
X112954236Y-60478691D01*
X112872182Y-60208192D01*
X112738932Y-59958899D01*
X112559608Y-59740392D01*
X112341101Y-59561068D01*
X112208142Y-59490000D01*
X112341101Y-59418932D01*
X112559608Y-59239608D01*
X112738932Y-59021101D01*
X112872182Y-58771808D01*
X112954236Y-58501309D01*
X112981943Y-58220000D01*
X112975049Y-58150000D01*
X115211928Y-58150000D01*
X115211928Y-59850000D01*
X115224188Y-59974482D01*
X115260498Y-60094180D01*
X115319463Y-60204494D01*
X115398815Y-60301185D01*
X115495506Y-60380537D01*
X115605820Y-60439502D01*
X115725518Y-60475812D01*
X115815000Y-60484625D01*
X115815001Y-62142069D01*
X115735241Y-62195363D01*
X115535363Y-62395241D01*
X115378320Y-62630273D01*
X115270147Y-62891426D01*
X115215000Y-63168665D01*
X115215000Y-63451335D01*
X115270147Y-63728574D01*
X115378320Y-63989727D01*
X115535363Y-64224759D01*
X115735241Y-64424637D01*
X115970273Y-64581680D01*
X116231426Y-64689853D01*
X116508665Y-64745000D01*
X116791335Y-64745000D01*
X117068574Y-64689853D01*
X117329727Y-64581680D01*
X117564759Y-64424637D01*
X117764637Y-64224759D01*
X117921680Y-63989727D01*
X118029853Y-63728574D01*
X118085000Y-63451335D01*
X118085000Y-63168665D01*
X118029853Y-62891426D01*
X117921680Y-62630273D01*
X117764637Y-62395241D01*
X117585000Y-62215604D01*
X117585000Y-60484625D01*
X117674482Y-60475812D01*
X117794180Y-60439502D01*
X117904494Y-60380537D01*
X118001185Y-60301185D01*
X118080537Y-60204494D01*
X118139502Y-60094180D01*
X118175812Y-59974482D01*
X118188072Y-59850000D01*
X118188072Y-58200000D01*
X119861928Y-58200000D01*
X119861928Y-59900000D01*
X119874188Y-60024482D01*
X119910498Y-60144180D01*
X119969463Y-60254494D01*
X120048815Y-60351185D01*
X120145506Y-60430537D01*
X120255820Y-60489502D01*
X120375518Y-60525812D01*
X120465000Y-60534625D01*
X120465001Y-62092069D01*
X120385241Y-62145363D01*
X120185363Y-62345241D01*
X120028320Y-62580273D01*
X119920147Y-62841426D01*
X119865000Y-63118665D01*
X119865000Y-63401335D01*
X119920147Y-63678574D01*
X120028320Y-63939727D01*
X120185363Y-64174759D01*
X120385241Y-64374637D01*
X120620273Y-64531680D01*
X120881426Y-64639853D01*
X121158665Y-64695000D01*
X121441335Y-64695000D01*
X121718574Y-64639853D01*
X121979727Y-64531680D01*
X122214759Y-64374637D01*
X122414637Y-64174759D01*
X122571680Y-63939727D01*
X122679853Y-63678574D01*
X122735000Y-63401335D01*
X122735000Y-63118665D01*
X122679853Y-62841426D01*
X122571680Y-62580273D01*
X122414637Y-62345241D01*
X122235000Y-62165604D01*
X122235000Y-60534625D01*
X122324482Y-60525812D01*
X122444180Y-60489502D01*
X122554494Y-60430537D01*
X122651185Y-60351185D01*
X122730537Y-60254494D01*
X122789502Y-60144180D01*
X122825812Y-60024482D01*
X122838072Y-59900000D01*
X122838072Y-58200000D01*
X122825812Y-58075518D01*
X122789502Y-57955820D01*
X122730537Y-57845506D01*
X122651185Y-57748815D01*
X122554494Y-57669463D01*
X122444180Y-57610498D01*
X122363534Y-57586034D01*
X122447588Y-57510269D01*
X122621641Y-57276920D01*
X122746825Y-57014099D01*
X122791476Y-56866890D01*
X122670155Y-56637000D01*
X121477000Y-56637000D01*
X121477000Y-56657000D01*
X121223000Y-56657000D01*
X121223000Y-56637000D01*
X120029845Y-56637000D01*
X119908524Y-56866890D01*
X119953175Y-57014099D01*
X120078359Y-57276920D01*
X120252412Y-57510269D01*
X120336466Y-57586034D01*
X120255820Y-57610498D01*
X120145506Y-57669463D01*
X120048815Y-57748815D01*
X119969463Y-57845506D01*
X119910498Y-57955820D01*
X119874188Y-58075518D01*
X119861928Y-58200000D01*
X118188072Y-58200000D01*
X118188072Y-58150000D01*
X118175812Y-58025518D01*
X118139502Y-57905820D01*
X118080537Y-57795506D01*
X118001185Y-57698815D01*
X117904494Y-57619463D01*
X117794180Y-57560498D01*
X117713534Y-57536034D01*
X117797588Y-57460269D01*
X117971641Y-57226920D01*
X118096825Y-56964099D01*
X118141476Y-56816890D01*
X118020155Y-56587000D01*
X116827000Y-56587000D01*
X116827000Y-56607000D01*
X116573000Y-56607000D01*
X116573000Y-56587000D01*
X115379845Y-56587000D01*
X115258524Y-56816890D01*
X115303175Y-56964099D01*
X115428359Y-57226920D01*
X115602412Y-57460269D01*
X115686466Y-57536034D01*
X115605820Y-57560498D01*
X115495506Y-57619463D01*
X115398815Y-57698815D01*
X115319463Y-57795506D01*
X115260498Y-57905820D01*
X115224188Y-58025518D01*
X115211928Y-58150000D01*
X112975049Y-58150000D01*
X112954236Y-57938691D01*
X112872182Y-57668192D01*
X112738932Y-57418899D01*
X112559608Y-57200392D01*
X112341101Y-57021068D01*
X112208142Y-56950000D01*
X112341101Y-56878932D01*
X112559608Y-56699608D01*
X112738932Y-56481101D01*
X112872182Y-56231808D01*
X112911221Y-56103110D01*
X115258524Y-56103110D01*
X115379845Y-56333000D01*
X116573000Y-56333000D01*
X116573000Y-55139186D01*
X116827000Y-55139186D01*
X116827000Y-56333000D01*
X118020155Y-56333000D01*
X118115089Y-56153110D01*
X119908524Y-56153110D01*
X120029845Y-56383000D01*
X121223000Y-56383000D01*
X121223000Y-55189186D01*
X121477000Y-55189186D01*
X121477000Y-56383000D01*
X122670155Y-56383000D01*
X122791476Y-56153110D01*
X122746825Y-56005901D01*
X122621641Y-55743080D01*
X122447588Y-55509731D01*
X122231355Y-55314822D01*
X121981252Y-55165843D01*
X121706891Y-55068519D01*
X121477000Y-55189186D01*
X121223000Y-55189186D01*
X120993109Y-55068519D01*
X120718748Y-55165843D01*
X120468645Y-55314822D01*
X120252412Y-55509731D01*
X120078359Y-55743080D01*
X119953175Y-56005901D01*
X119908524Y-56153110D01*
X118115089Y-56153110D01*
X118141476Y-56103110D01*
X118096825Y-55955901D01*
X117971641Y-55693080D01*
X117797588Y-55459731D01*
X117581355Y-55264822D01*
X117331252Y-55115843D01*
X117056891Y-55018519D01*
X116827000Y-55139186D01*
X116573000Y-55139186D01*
X116343109Y-55018519D01*
X116068748Y-55115843D01*
X115818645Y-55264822D01*
X115602412Y-55459731D01*
X115428359Y-55693080D01*
X115303175Y-55955901D01*
X115258524Y-56103110D01*
X112911221Y-56103110D01*
X112954236Y-55961309D01*
X112981943Y-55680000D01*
X112954236Y-55398691D01*
X112872182Y-55128192D01*
X112738932Y-54878899D01*
X112559608Y-54660392D01*
X112341101Y-54481068D01*
X112208142Y-54410000D01*
X112341101Y-54338932D01*
X112559608Y-54159608D01*
X112738932Y-53941101D01*
X112872182Y-53691808D01*
X112954236Y-53421309D01*
X112981943Y-53140000D01*
X112954236Y-52858691D01*
X112872182Y-52588192D01*
X112738932Y-52338899D01*
X112559608Y-52120392D01*
X112341101Y-51941068D01*
X112208142Y-51870000D01*
X112341101Y-51798932D01*
X112559608Y-51619608D01*
X112738932Y-51401101D01*
X112872182Y-51151808D01*
X112954236Y-50881309D01*
X112981943Y-50600000D01*
X112954236Y-50318691D01*
X112872182Y-50048192D01*
X112738932Y-49798899D01*
X112559608Y-49580392D01*
X112341101Y-49401068D01*
X112091808Y-49267818D01*
X111821309Y-49185764D01*
X111610492Y-49165000D01*
X110669508Y-49165000D01*
X110458691Y-49185764D01*
X110188192Y-49267818D01*
X109938899Y-49401068D01*
X109720392Y-49580392D01*
X109650956Y-49665000D01*
X107438454Y-49665000D01*
X107390256Y-49632795D01*
X107201898Y-49554774D01*
X107001939Y-49515000D01*
X106798061Y-49515000D01*
X106598102Y-49554774D01*
X106409744Y-49632795D01*
X106240226Y-49746063D01*
X106096063Y-49890226D01*
X105982795Y-50059744D01*
X105904774Y-50248102D01*
X105865000Y-50448061D01*
X105865000Y-50651939D01*
X105904774Y-50851898D01*
X105982795Y-51040256D01*
X106096063Y-51209774D01*
X106240226Y-51353937D01*
X106409744Y-51467205D01*
X106598102Y-51545226D01*
X106798061Y-51585000D01*
X107001939Y-51585000D01*
X107201898Y-51545226D01*
X107390256Y-51467205D01*
X107438454Y-51435000D01*
X109568888Y-51435000D01*
X109720392Y-51619608D01*
X109938899Y-51798932D01*
X110071858Y-51870000D01*
X109938899Y-51941068D01*
X109720392Y-52120392D01*
X109541068Y-52338899D01*
X109407818Y-52588192D01*
X109325764Y-52858691D01*
X109298057Y-53140000D01*
X109325764Y-53421309D01*
X109407818Y-53691808D01*
X109541068Y-53941101D01*
X109720392Y-54159608D01*
X109938899Y-54338932D01*
X110071858Y-54410000D01*
X109938899Y-54481068D01*
X109720392Y-54660392D01*
X109541068Y-54878899D01*
X109407818Y-55128192D01*
X109325764Y-55398691D01*
X109298057Y-55680000D01*
X109325764Y-55961309D01*
X109349277Y-56038823D01*
X109340256Y-56032795D01*
X109151898Y-55954774D01*
X108951939Y-55915000D01*
X108748061Y-55915000D01*
X108548102Y-55954774D01*
X108359744Y-56032795D01*
X108311546Y-56065000D01*
X97682782Y-56065000D01*
X97714236Y-55961309D01*
X97741943Y-55680000D01*
X97714236Y-55398691D01*
X97632182Y-55128192D01*
X97498932Y-54878899D01*
X97319608Y-54660392D01*
X97101101Y-54481068D01*
X96968142Y-54410000D01*
X97101101Y-54338932D01*
X97319608Y-54159608D01*
X97498932Y-53941101D01*
X97632182Y-53691808D01*
X97714236Y-53421309D01*
X97741943Y-53140000D01*
X97714236Y-52858691D01*
X97675198Y-52730000D01*
X99649286Y-52730000D01*
X99649286Y-48910000D01*
X96650715Y-48910000D01*
X96650715Y-49161928D01*
X94700000Y-49161928D01*
X94575518Y-49174188D01*
X94455820Y-49210498D01*
X94345506Y-49269463D01*
X94248815Y-49348815D01*
X94169463Y-49445506D01*
X94110498Y-49555820D01*
X94074188Y-49675518D01*
X94061928Y-49800000D01*
X94061928Y-51400000D01*
X94074188Y-51524482D01*
X94110498Y-51644180D01*
X94169463Y-51754494D01*
X94248815Y-51851185D01*
X94345506Y-51930537D01*
X94455820Y-51989502D01*
X94575518Y-52025812D01*
X94593482Y-52027581D01*
X94480392Y-52120392D01*
X94361715Y-52265000D01*
X91567781Y-52265000D01*
X91605622Y-52253521D01*
X91924404Y-52083129D01*
X92203819Y-51853819D01*
X92433129Y-51574404D01*
X92603521Y-51255622D01*
X92708448Y-50909723D01*
X92743878Y-50550000D01*
X92708448Y-50190277D01*
X92603521Y-49844378D01*
X92433129Y-49525596D01*
X92203819Y-49246181D01*
X91924404Y-49016871D01*
X91605622Y-48846479D01*
X91259723Y-48741552D01*
X90990139Y-48715000D01*
X90809861Y-48715000D01*
X90540277Y-48741552D01*
X90194378Y-48846479D01*
X89875596Y-49016871D01*
X89596181Y-49246181D01*
X89366871Y-49525596D01*
X89196479Y-49844378D01*
X89091552Y-50190277D01*
X89056122Y-50550000D01*
X89091552Y-50909723D01*
X89196479Y-51255622D01*
X89366871Y-51574404D01*
X89596181Y-51853819D01*
X89875596Y-52083129D01*
X90194378Y-52253521D01*
X90232219Y-52265000D01*
X87888454Y-52265000D01*
X87840256Y-52232795D01*
X87651898Y-52154774D01*
X87451939Y-52115000D01*
X87248061Y-52115000D01*
X87048102Y-52154774D01*
X86859744Y-52232795D01*
X86690226Y-52346063D01*
X86546063Y-52490226D01*
X86432795Y-52659744D01*
X86354774Y-52848102D01*
X86315000Y-53048061D01*
X86315000Y-53251939D01*
X86354774Y-53451898D01*
X86432795Y-53640256D01*
X86546063Y-53809774D01*
X86690226Y-53953937D01*
X86859744Y-54067205D01*
X87048102Y-54145226D01*
X87248061Y-54185000D01*
X87451939Y-54185000D01*
X87651898Y-54145226D01*
X87840256Y-54067205D01*
X87888454Y-54035000D01*
X94378129Y-54035000D01*
X94480392Y-54159608D01*
X94698899Y-54338932D01*
X94831858Y-54410000D01*
X94698899Y-54481068D01*
X94480392Y-54660392D01*
X94301068Y-54878899D01*
X94167818Y-55128192D01*
X94085764Y-55398691D01*
X94058057Y-55680000D01*
X94085764Y-55961309D01*
X94117218Y-56065000D01*
X79193469Y-56065000D01*
X79150000Y-56060719D01*
X79106531Y-56065000D01*
X79106523Y-56065000D01*
X78976510Y-56077805D01*
X78809686Y-56128411D01*
X78655941Y-56210589D01*
X78554953Y-56293468D01*
X78554951Y-56293470D01*
X78521183Y-56321183D01*
X78493470Y-56354951D01*
X77554951Y-57293471D01*
X77521184Y-57321183D01*
X77493471Y-57354951D01*
X77493468Y-57354954D01*
X77410590Y-57455941D01*
X77328412Y-57609687D01*
X77277805Y-57776510D01*
X77260719Y-57950000D01*
X75580000Y-57950000D01*
X75580000Y-53089396D01*
X75764637Y-52904759D01*
X75921680Y-52669727D01*
X76029853Y-52408574D01*
X76085000Y-52131335D01*
X76085000Y-51848665D01*
X76029853Y-51571426D01*
X75921680Y-51310273D01*
X75764637Y-51075241D01*
X75580000Y-50890604D01*
X75580000Y-48900714D01*
X67110000Y-48900714D01*
X67110000Y-47910000D01*
X132740000Y-47910000D01*
X132740001Y-81040000D01*
X132740001Y-81040000D01*
G37*
X132740001Y-81040000D02*
X67110000Y-81040000D01*
X67110000Y-79899285D01*
X75580000Y-79899285D01*
X75580000Y-78089396D01*
X75764637Y-77904759D01*
X75901452Y-77700000D01*
X89461928Y-77700000D01*
X89461928Y-79300000D01*
X89474188Y-79424482D01*
X89510498Y-79544180D01*
X89569463Y-79654494D01*
X89648815Y-79751185D01*
X89745506Y-79830537D01*
X89855820Y-79889502D01*
X89975518Y-79925812D01*
X90100000Y-79938072D01*
X91700000Y-79938072D01*
X91824482Y-79925812D01*
X91944180Y-79889502D01*
X92054494Y-79830537D01*
X92151185Y-79751185D01*
X92230537Y-79654494D01*
X92289502Y-79544180D01*
X92325812Y-79424482D01*
X92338072Y-79300000D01*
X92338072Y-78540000D01*
X94058057Y-78540000D01*
X94085764Y-78821309D01*
X94167818Y-79091808D01*
X94301068Y-79341101D01*
X94480392Y-79559608D01*
X94698899Y-79738932D01*
X94948192Y-79872182D01*
X95218691Y-79954236D01*
X95429508Y-79975000D01*
X96370492Y-79975000D01*
X96581309Y-79954236D01*
X96851808Y-79872182D01*
X97101101Y-79738932D01*
X97319608Y-79559608D01*
X97498932Y-79341101D01*
X97632182Y-79091808D01*
X97714236Y-78821309D01*
X97741943Y-78540000D01*
X97714236Y-78258691D01*
X97632182Y-77988192D01*
X97498932Y-77738899D01*
X97319608Y-77520392D01*
X97101101Y-77341068D01*
X96973259Y-77272735D01*
X97202839Y-77122601D01*
X97404500Y-76924895D01*
X97563715Y-76691646D01*
X97674367Y-76431818D01*
X97691904Y-76349039D01*
X97569915Y-76127000D01*
X96027000Y-76127000D01*
X96027000Y-76147000D01*
X95773000Y-76147000D01*
X95773000Y-76127000D01*
X94230085Y-76127000D01*
X94108096Y-76349039D01*
X94125633Y-76431818D01*
X94236285Y-76691646D01*
X94395500Y-76924895D01*
X94597161Y-77122601D01*
X94826741Y-77272735D01*
X94698899Y-77341068D01*
X94480392Y-77520392D01*
X94301068Y-77738899D01*
X94167818Y-77988192D01*
X94085764Y-78258691D01*
X94058057Y-78540000D01*
X92338072Y-78540000D01*
X92338072Y-77700000D01*
X92325812Y-77575518D01*
X92289502Y-77455820D01*
X92230537Y-77345506D01*
X92151185Y-77248815D01*
X92054494Y-77169463D01*
X91944180Y-77110498D01*
X91824482Y-77074188D01*
X91700000Y-77061928D01*
X91692785Y-77061928D01*
X91713097Y-76992702D01*
X90900000Y-76179605D01*
X90086903Y-76992702D01*
X90107215Y-77061928D01*
X90100000Y-77061928D01*
X89975518Y-77074188D01*
X89855820Y-77110498D01*
X89745506Y-77169463D01*
X89648815Y-77248815D01*
X89569463Y-77345506D01*
X89510498Y-77455820D01*
X89474188Y-77575518D01*
X89461928Y-77700000D01*
X75901452Y-77700000D01*
X75921680Y-77669727D01*
X76029853Y-77408574D01*
X76085000Y-77131335D01*
X76085000Y-76848665D01*
X76029853Y-76571426D01*
X75921680Y-76310273D01*
X75764637Y-76075241D01*
X75759908Y-76070512D01*
X89459783Y-76070512D01*
X89501213Y-76350130D01*
X89596397Y-76616292D01*
X89663329Y-76741514D01*
X89907298Y-76813097D01*
X90720395Y-76000000D01*
X91079605Y-76000000D01*
X91892702Y-76813097D01*
X92136671Y-76741514D01*
X92257571Y-76486004D01*
X92326300Y-76211816D01*
X92340217Y-75929488D01*
X92298787Y-75649870D01*
X92203603Y-75383708D01*
X92136671Y-75258486D01*
X91892702Y-75186903D01*
X91079605Y-76000000D01*
X90720395Y-76000000D01*
X89907298Y-75186903D01*
X89663329Y-75258486D01*
X89542429Y-75513996D01*
X89473700Y-75788184D01*
X89459783Y-76070512D01*
X75759908Y-76070512D01*
X75580000Y-75890604D01*
X75580000Y-75007298D01*
X90086903Y-75007298D01*
X90900000Y-75820395D01*
X91713097Y-75007298D01*
X91641514Y-74763329D01*
X91386004Y-74642429D01*
X91111816Y-74573700D01*
X90829488Y-74559783D01*
X90549870Y-74601213D01*
X90283708Y-74696397D01*
X90158486Y-74763329D01*
X90086903Y-75007298D01*
X75580000Y-75007298D01*
X75580000Y-57950000D01*
X77260719Y-57950000D01*
X77265001Y-57993479D01*
X77265000Y-61906531D01*
X77260719Y-61950000D01*
X77265000Y-61993469D01*
X77265000Y-61993476D01*
X77269417Y-62038320D01*
X77277805Y-62123490D01*
X77292973Y-62173490D01*
X77328411Y-62290312D01*
X77410589Y-62444058D01*
X77521183Y-62578817D01*
X77554956Y-62606534D01*
X78643470Y-63695049D01*
X78671183Y-63728817D01*
X78704951Y-63756530D01*
X78704953Y-63756532D01*
X78805941Y-63839411D01*
X78959686Y-63921589D01*
X79027618Y-63942196D01*
X79126510Y-63972195D01*
X79256523Y-63985000D01*
X79256531Y-63985000D01*
X79300000Y-63989281D01*
X79343469Y-63985000D01*
X79751869Y-63985000D01*
X79817688Y-64083505D01*
X80031495Y-64297312D01*
X80282905Y-64465299D01*
X80342538Y-64490000D01*
X80282905Y-64514701D01*
X80031495Y-64682688D01*
X79817688Y-64896495D01*
X79649701Y-65147905D01*
X79533989Y-65427257D01*
X79475000Y-65723816D01*
X79475000Y-66026184D01*
X79533989Y-66322743D01*
X79649701Y-66602095D01*
X79817688Y-66853505D01*
X80031495Y-67067312D01*
X80282905Y-67235299D01*
X80342538Y-67260000D01*
X80282905Y-67284701D01*
X80031495Y-67452688D01*
X79817688Y-67666495D01*
X79649701Y-67917905D01*
X79533989Y-68197257D01*
X79475000Y-68493816D01*
X79475000Y-68796184D01*
X79533989Y-69092743D01*
X79649701Y-69372095D01*
X79817688Y-69623505D01*
X80031495Y-69837312D01*
X80125001Y-69899791D01*
X80125000Y-72916531D01*
X80120719Y-72960000D01*
X80125000Y-73003469D01*
X80125000Y-73003476D01*
X80135092Y-73105941D01*
X80137805Y-73133490D01*
X80145756Y-73159701D01*
X80188411Y-73300312D01*
X80270589Y-73454058D01*
X80381183Y-73588817D01*
X80414956Y-73616534D01*
X80993471Y-74195050D01*
X81021184Y-74228818D01*
X81054952Y-74256531D01*
X81054954Y-74256533D01*
X81082107Y-74278817D01*
X81155942Y-74339412D01*
X81309688Y-74421590D01*
X81476511Y-74472196D01*
X81606524Y-74485001D01*
X81606534Y-74485001D01*
X81650000Y-74489282D01*
X81693466Y-74485001D01*
X94016530Y-74485001D01*
X94059999Y-74489282D01*
X94103468Y-74485001D01*
X94103476Y-74485001D01*
X94233489Y-74472196D01*
X94400312Y-74421590D01*
X94422879Y-74409528D01*
X94480392Y-74479608D01*
X94698899Y-74658932D01*
X94826741Y-74727265D01*
X94597161Y-74877399D01*
X94395500Y-75075105D01*
X94236285Y-75308354D01*
X94125633Y-75568182D01*
X94108096Y-75650961D01*
X94230085Y-75873000D01*
X95773000Y-75873000D01*
X95773000Y-75853000D01*
X96027000Y-75853000D01*
X96027000Y-75873000D01*
X97569915Y-75873000D01*
X97691904Y-75650961D01*
X97674367Y-75568182D01*
X97563715Y-75308354D01*
X97404500Y-75075105D01*
X97202839Y-74877399D01*
X96973259Y-74727265D01*
X97101101Y-74658932D01*
X97319608Y-74479608D01*
X97498932Y-74261101D01*
X97632182Y-74011808D01*
X97714236Y-73741309D01*
X97741943Y-73460000D01*
X97714236Y-73178691D01*
X97632182Y-72908192D01*
X97498932Y-72658899D01*
X97319608Y-72440392D01*
X97101101Y-72261068D01*
X96968142Y-72190000D01*
X97101101Y-72118932D01*
X97319608Y-71939608D01*
X97430078Y-71805000D01*
X101431546Y-71805000D01*
X101479744Y-71837205D01*
X101668102Y-71915226D01*
X101868061Y-71955000D01*
X102071939Y-71955000D01*
X102271898Y-71915226D01*
X102460256Y-71837205D01*
X102629774Y-71723937D01*
X102773937Y-71579774D01*
X102887205Y-71410256D01*
X102965226Y-71221898D01*
X103005000Y-71021939D01*
X103005000Y-70818061D01*
X102965226Y-70618102D01*
X102887205Y-70429744D01*
X102773937Y-70260226D01*
X102629774Y-70116063D01*
X102460256Y-70002795D01*
X102271898Y-69924774D01*
X102071939Y-69885000D01*
X101868061Y-69885000D01*
X101668102Y-69924774D01*
X101479744Y-70002795D01*
X101431546Y-70035000D01*
X97430078Y-70035000D01*
X97319608Y-69900392D01*
X97101101Y-69721068D01*
X96968142Y-69650000D01*
X97101101Y-69578932D01*
X97319608Y-69399608D01*
X97498932Y-69181101D01*
X97632182Y-68931808D01*
X97714236Y-68661309D01*
X97741943Y-68380000D01*
X97714236Y-68098691D01*
X97632182Y-67828192D01*
X97498932Y-67578899D01*
X97319608Y-67360392D01*
X97101101Y-67181068D01*
X96968142Y-67110000D01*
X97101101Y-67038932D01*
X97319608Y-66859608D01*
X97498932Y-66641101D01*
X97632182Y-66391808D01*
X97714236Y-66121309D01*
X97741943Y-65840000D01*
X97714236Y-65558691D01*
X97688846Y-65474990D01*
X107823412Y-65474990D01*
X108783470Y-66435049D01*
X108811183Y-66468817D01*
X108844951Y-66496530D01*
X108844953Y-66496532D01*
X108874267Y-66520589D01*
X108945941Y-66579411D01*
X109099687Y-66661589D01*
X109266510Y-66712195D01*
X109396523Y-66725000D01*
X109396533Y-66725000D01*
X109439999Y-66729281D01*
X109483465Y-66725000D01*
X109609922Y-66725000D01*
X109720392Y-66859608D01*
X109938899Y-67038932D01*
X110071858Y-67110000D01*
X109938899Y-67181068D01*
X109720392Y-67360392D01*
X109541068Y-67578899D01*
X109407818Y-67828192D01*
X109325764Y-68098691D01*
X109298057Y-68380000D01*
X109325764Y-68661309D01*
X109407818Y-68931808D01*
X109541068Y-69181101D01*
X109720392Y-69399608D01*
X109938899Y-69578932D01*
X110071858Y-69650000D01*
X109938899Y-69721068D01*
X109720392Y-69900392D01*
X109541068Y-70118899D01*
X109407818Y-70368192D01*
X109325764Y-70638691D01*
X109298057Y-70920000D01*
X109325764Y-71201309D01*
X109407818Y-71471808D01*
X109541068Y-71721101D01*
X109720392Y-71939608D01*
X109938899Y-72118932D01*
X110071858Y-72190000D01*
X109938899Y-72261068D01*
X109720392Y-72440392D01*
X109541068Y-72658899D01*
X109407818Y-72908192D01*
X109325764Y-73178691D01*
X109298057Y-73460000D01*
X109325764Y-73741309D01*
X109407818Y-74011808D01*
X109541068Y-74261101D01*
X109720392Y-74479608D01*
X109938899Y-74658932D01*
X110071858Y-74730000D01*
X109938899Y-74801068D01*
X109720392Y-74980392D01*
X109541068Y-75198899D01*
X109407818Y-75448192D01*
X109325764Y-75718691D01*
X109298057Y-76000000D01*
X109325764Y-76281309D01*
X109407818Y-76551808D01*
X109541068Y-76801101D01*
X109720392Y-77019608D01*
X109938899Y-77198932D01*
X110071858Y-77270000D01*
X109938899Y-77341068D01*
X109720392Y-77520392D01*
X109541068Y-77738899D01*
X109407818Y-77988192D01*
X109325764Y-78258691D01*
X109298057Y-78540000D01*
X109325764Y-78821309D01*
X109407818Y-79091808D01*
X109541068Y-79341101D01*
X109720392Y-79559608D01*
X109938899Y-79738932D01*
X110188192Y-79872182D01*
X110458691Y-79954236D01*
X110669508Y-79975000D01*
X111610492Y-79975000D01*
X111821309Y-79954236D01*
X112091808Y-79872182D01*
X112341101Y-79738932D01*
X112559608Y-79559608D01*
X112738932Y-79341101D01*
X112872182Y-79091808D01*
X112954236Y-78821309D01*
X112981943Y-78540000D01*
X112969008Y-78408665D01*
X115215000Y-78408665D01*
X115215000Y-78691335D01*
X115270147Y-78968574D01*
X115378320Y-79229727D01*
X115535363Y-79464759D01*
X115735241Y-79664637D01*
X115970273Y-79821680D01*
X116231426Y-79929853D01*
X116508665Y-79985000D01*
X116791335Y-79985000D01*
X117068574Y-79929853D01*
X117329727Y-79821680D01*
X117564759Y-79664637D01*
X117764637Y-79464759D01*
X117921680Y-79229727D01*
X118029853Y-78968574D01*
X118085000Y-78691335D01*
X118085000Y-78408665D01*
X118075055Y-78358665D01*
X119865000Y-78358665D01*
X119865000Y-78641335D01*
X119920147Y-78918574D01*
X120028320Y-79179727D01*
X120185363Y-79414759D01*
X120385241Y-79614637D01*
X120620273Y-79771680D01*
X120881426Y-79879853D01*
X121158665Y-79935000D01*
X121441335Y-79935000D01*
X121718574Y-79879853D01*
X121979727Y-79771680D01*
X122214759Y-79614637D01*
X122414637Y-79414759D01*
X122571680Y-79179727D01*
X122679853Y-78918574D01*
X122735000Y-78641335D01*
X122735000Y-78358665D01*
X122688338Y-78124080D01*
X126915525Y-78124080D01*
X126999208Y-78378261D01*
X127271775Y-78509158D01*
X127564642Y-78584365D01*
X127866553Y-78600991D01*
X128165907Y-78558397D01*
X128451199Y-78458222D01*
X128600792Y-78378261D01*
X128684475Y-78124080D01*
X127800000Y-77239605D01*
X126915525Y-78124080D01*
X122688338Y-78124080D01*
X122679853Y-78081426D01*
X122571680Y-77820273D01*
X122414637Y-77585241D01*
X122214759Y-77385363D01*
X121979727Y-77228320D01*
X121734040Y-77126553D01*
X126259009Y-77126553D01*
X126301603Y-77425907D01*
X126401778Y-77711199D01*
X126481739Y-77860792D01*
X126735920Y-77944475D01*
X127620395Y-77060000D01*
X126735920Y-76175525D01*
X126481739Y-76259208D01*
X126350842Y-76531775D01*
X126275635Y-76824642D01*
X126259009Y-77126553D01*
X121734040Y-77126553D01*
X121718574Y-77120147D01*
X121441335Y-77065000D01*
X121158665Y-77065000D01*
X120881426Y-77120147D01*
X120620273Y-77228320D01*
X120385241Y-77385363D01*
X120185363Y-77585241D01*
X120028320Y-77820273D01*
X119920147Y-78081426D01*
X119865000Y-78358665D01*
X118075055Y-78358665D01*
X118029853Y-78131426D01*
X117921680Y-77870273D01*
X117764637Y-77635241D01*
X117564759Y-77435363D01*
X117329727Y-77278320D01*
X117068574Y-77170147D01*
X116791335Y-77115000D01*
X116508665Y-77115000D01*
X116231426Y-77170147D01*
X115970273Y-77278320D01*
X115735241Y-77435363D01*
X115535363Y-77635241D01*
X115378320Y-77870273D01*
X115270147Y-78131426D01*
X115215000Y-78408665D01*
X112969008Y-78408665D01*
X112954236Y-78258691D01*
X112872182Y-77988192D01*
X112738932Y-77738899D01*
X112559608Y-77520392D01*
X112341101Y-77341068D01*
X112208142Y-77270000D01*
X112341101Y-77198932D01*
X112559608Y-77019608D01*
X112738932Y-76801101D01*
X112872182Y-76551808D01*
X112954236Y-76281309D01*
X112981943Y-76000000D01*
X112954236Y-75718691D01*
X112872182Y-75448192D01*
X112738932Y-75198899D01*
X112559608Y-74980392D01*
X112341101Y-74801068D01*
X112208142Y-74730000D01*
X112341101Y-74658932D01*
X112559608Y-74479608D01*
X112738932Y-74261101D01*
X112872182Y-74011808D01*
X112954236Y-73741309D01*
X112973269Y-73548061D01*
X120265000Y-73548061D01*
X120265000Y-73751939D01*
X120304774Y-73951898D01*
X120382795Y-74140256D01*
X120496063Y-74309774D01*
X120640226Y-74453937D01*
X120809744Y-74567205D01*
X120829459Y-74575371D01*
X120815000Y-74648061D01*
X120815000Y-74851939D01*
X120854774Y-75051898D01*
X120932795Y-75240256D01*
X121046063Y-75409774D01*
X121190226Y-75553937D01*
X121359744Y-75667205D01*
X121548102Y-75745226D01*
X121748061Y-75785000D01*
X121951939Y-75785000D01*
X122151898Y-75745226D01*
X122340256Y-75667205D01*
X122509774Y-75553937D01*
X122653937Y-75409774D01*
X122767205Y-75240256D01*
X122845226Y-75051898D01*
X122885000Y-74851939D01*
X122885000Y-74648061D01*
X122845226Y-74448102D01*
X122767205Y-74259744D01*
X122653937Y-74090226D01*
X122509774Y-73946063D01*
X122340256Y-73832795D01*
X122320541Y-73824629D01*
X122335000Y-73751939D01*
X122335000Y-73548061D01*
X122295226Y-73348102D01*
X122217205Y-73159744D01*
X122185000Y-73111546D01*
X122185000Y-70238362D01*
X122237195Y-70160246D01*
X122315216Y-69971888D01*
X122354990Y-69771929D01*
X122354990Y-69568051D01*
X122315216Y-69368092D01*
X122237195Y-69179734D01*
X122123927Y-69010216D01*
X121979764Y-68866053D01*
X121810246Y-68752785D01*
X121621888Y-68674764D01*
X121421929Y-68634990D01*
X121218051Y-68634990D01*
X121018092Y-68674764D01*
X120829734Y-68752785D01*
X120660216Y-68866053D01*
X120516053Y-69010216D01*
X120402785Y-69179734D01*
X120324764Y-69368092D01*
X120284990Y-69568051D01*
X120284990Y-69771929D01*
X120324764Y-69971888D01*
X120402785Y-70160246D01*
X120415001Y-70178528D01*
X120415000Y-73111545D01*
X120382795Y-73159744D01*
X120304774Y-73348102D01*
X120265000Y-73548061D01*
X112973269Y-73548061D01*
X112981943Y-73460000D01*
X112954236Y-73178691D01*
X112872182Y-72908192D01*
X112738932Y-72658899D01*
X112559608Y-72440392D01*
X112341101Y-72261068D01*
X112208142Y-72190000D01*
X112341101Y-72118932D01*
X112559608Y-71939608D01*
X112738932Y-71721101D01*
X112872182Y-71471808D01*
X112954236Y-71201309D01*
X112981943Y-70920000D01*
X112954236Y-70638691D01*
X112872182Y-70368192D01*
X112738932Y-70118899D01*
X112559608Y-69900392D01*
X112341101Y-69721068D01*
X112208142Y-69650000D01*
X112341101Y-69578932D01*
X112559608Y-69399608D01*
X112738932Y-69181101D01*
X112872182Y-68931808D01*
X112954236Y-68661309D01*
X112981943Y-68380000D01*
X112954236Y-68098691D01*
X112872182Y-67828192D01*
X112738932Y-67578899D01*
X112559608Y-67360392D01*
X112341101Y-67181068D01*
X112208142Y-67110000D01*
X112341101Y-67038932D01*
X112559608Y-66859608D01*
X112610118Y-66798061D01*
X124115000Y-66798061D01*
X124115000Y-67001939D01*
X124154774Y-67201898D01*
X124232795Y-67390256D01*
X124265001Y-67438456D01*
X124265000Y-75461546D01*
X124232795Y-75509744D01*
X124154774Y-75698102D01*
X124115000Y-75898061D01*
X124115000Y-76101939D01*
X124154774Y-76301898D01*
X124232795Y-76490256D01*
X124346063Y-76659774D01*
X124490226Y-76803937D01*
X124659744Y-76917205D01*
X124848102Y-76995226D01*
X125048061Y-77035000D01*
X125251939Y-77035000D01*
X125451898Y-76995226D01*
X125640256Y-76917205D01*
X125809774Y-76803937D01*
X125953937Y-76659774D01*
X126067205Y-76490256D01*
X126145226Y-76301898D01*
X126185000Y-76101939D01*
X126185000Y-75898061D01*
X126145226Y-75698102D01*
X126067205Y-75509744D01*
X126035000Y-75461546D01*
X126035000Y-68926578D01*
X126286940Y-69178518D01*
X126265000Y-69288816D01*
X126265000Y-69591184D01*
X126323989Y-69887743D01*
X126439701Y-70167095D01*
X126607688Y-70418505D01*
X126821495Y-70632312D01*
X126937763Y-70710000D01*
X126821495Y-70787688D01*
X126607688Y-71001495D01*
X126439701Y-71252905D01*
X126323989Y-71532257D01*
X126265000Y-71828816D01*
X126265000Y-72131184D01*
X126323989Y-72427743D01*
X126439701Y-72707095D01*
X126607688Y-72958505D01*
X126821495Y-73172312D01*
X126937763Y-73250000D01*
X126821495Y-73327688D01*
X126607688Y-73541495D01*
X126439701Y-73792905D01*
X126323989Y-74072257D01*
X126265000Y-74368816D01*
X126265000Y-74671184D01*
X126323989Y-74967743D01*
X126439701Y-75247095D01*
X126607688Y-75498505D01*
X126821495Y-75712312D01*
X126975105Y-75814951D01*
X126915525Y-75995920D01*
X127800000Y-76880395D01*
X128684475Y-75995920D01*
X128624895Y-75814951D01*
X128778505Y-75712312D01*
X128992312Y-75498505D01*
X129070000Y-75382237D01*
X129147688Y-75498505D01*
X129361495Y-75712312D01*
X129477763Y-75790000D01*
X129361495Y-75867688D01*
X129147688Y-76081495D01*
X129045049Y-76235105D01*
X128864080Y-76175525D01*
X127979605Y-77060000D01*
X128864080Y-77944475D01*
X129045049Y-77884895D01*
X129147688Y-78038505D01*
X129361495Y-78252312D01*
X129612905Y-78420299D01*
X129892257Y-78536011D01*
X130188816Y-78595000D01*
X130491184Y-78595000D01*
X130787743Y-78536011D01*
X131067095Y-78420299D01*
X131318505Y-78252312D01*
X131532312Y-78038505D01*
X131700299Y-77787095D01*
X131816011Y-77507743D01*
X131875000Y-77211184D01*
X131875000Y-76908816D01*
X131816011Y-76612257D01*
X131700299Y-76332905D01*
X131532312Y-76081495D01*
X131318505Y-75867688D01*
X131202237Y-75790000D01*
X131318505Y-75712312D01*
X131532312Y-75498505D01*
X131700299Y-75247095D01*
X131816011Y-74967743D01*
X131875000Y-74671184D01*
X131875000Y-74368816D01*
X131816011Y-74072257D01*
X131700299Y-73792905D01*
X131532312Y-73541495D01*
X131318505Y-73327688D01*
X131202237Y-73250000D01*
X131318505Y-73172312D01*
X131532312Y-72958505D01*
X131700299Y-72707095D01*
X131816011Y-72427743D01*
X131875000Y-72131184D01*
X131875000Y-71828816D01*
X131816011Y-71532257D01*
X131700299Y-71252905D01*
X131532312Y-71001495D01*
X131318505Y-70787688D01*
X131202237Y-70710000D01*
X131318505Y-70632312D01*
X131532312Y-70418505D01*
X131700299Y-70167095D01*
X131816011Y-69887743D01*
X131875000Y-69591184D01*
X131875000Y-69288816D01*
X131853060Y-69178518D01*
X132285051Y-68746528D01*
X132318818Y-68718816D01*
X132361175Y-68667205D01*
X132429412Y-68584058D01*
X132494872Y-68461589D01*
X132511590Y-68430312D01*
X132562196Y-68263489D01*
X132575001Y-68133476D01*
X132575001Y-68133468D01*
X132579282Y-68089999D01*
X132575001Y-68046530D01*
X132575001Y-55583466D01*
X132579282Y-55540000D01*
X132575001Y-55496534D01*
X132575001Y-55496524D01*
X132562196Y-55366511D01*
X132511590Y-55199688D01*
X132429412Y-55045942D01*
X132318818Y-54911184D01*
X132285050Y-54883471D01*
X131556534Y-54154956D01*
X131528817Y-54121183D01*
X131394059Y-54010589D01*
X131240313Y-53928411D01*
X131073490Y-53877805D01*
X130943477Y-53865000D01*
X130943469Y-53865000D01*
X130900000Y-53860719D01*
X130856531Y-53865000D01*
X129638454Y-53865000D01*
X129590256Y-53832795D01*
X129401898Y-53754774D01*
X129201939Y-53715000D01*
X128998061Y-53715000D01*
X128798102Y-53754774D01*
X128609744Y-53832795D01*
X128440226Y-53946063D01*
X128296063Y-54090226D01*
X128182795Y-54259744D01*
X128104774Y-54448102D01*
X128065000Y-54648061D01*
X128065000Y-54851939D01*
X128104774Y-55051898D01*
X128182795Y-55240256D01*
X128296063Y-55409774D01*
X128440226Y-55553937D01*
X128609744Y-55667205D01*
X128798102Y-55745226D01*
X128998061Y-55785000D01*
X129201939Y-55785000D01*
X129401898Y-55745226D01*
X129590256Y-55667205D01*
X129638454Y-55635000D01*
X130533422Y-55635000D01*
X130805002Y-55906581D01*
X130805001Y-65431138D01*
X130787743Y-65423989D01*
X130491184Y-65365000D01*
X130188816Y-65365000D01*
X129892257Y-65423989D01*
X129612905Y-65539701D01*
X129361495Y-65707688D01*
X129295056Y-65774127D01*
X129289502Y-65755820D01*
X129249286Y-65680582D01*
X129249286Y-62960000D01*
X126885000Y-62960000D01*
X126885000Y-53688454D01*
X126917205Y-53640256D01*
X126995226Y-53451898D01*
X127035000Y-53251939D01*
X127035000Y-53048061D01*
X126995226Y-52848102D01*
X126917205Y-52659744D01*
X126803937Y-52490226D01*
X126659774Y-52346063D01*
X126490256Y-52232795D01*
X126301898Y-52154774D01*
X126101939Y-52115000D01*
X125898061Y-52115000D01*
X125698102Y-52154774D01*
X125509744Y-52232795D01*
X125340226Y-52346063D01*
X125196063Y-52490226D01*
X125082795Y-52659744D01*
X125004774Y-52848102D01*
X124965000Y-53048061D01*
X124965000Y-53251939D01*
X125004774Y-53451898D01*
X125082795Y-53640256D01*
X125115000Y-53688454D01*
X125115001Y-65865000D01*
X125048061Y-65865000D01*
X124848102Y-65904774D01*
X124659744Y-65982795D01*
X124490226Y-66096063D01*
X124346063Y-66240226D01*
X124232795Y-66409744D01*
X124154774Y-66598102D01*
X124115000Y-66798061D01*
X112610118Y-66798061D01*
X112738932Y-66641101D01*
X112872182Y-66391808D01*
X112954236Y-66121309D01*
X112981943Y-65840000D01*
X112954236Y-65558691D01*
X112872182Y-65288192D01*
X112738932Y-65038899D01*
X112559608Y-64820392D01*
X112341101Y-64641068D01*
X112208142Y-64570000D01*
X112341101Y-64498932D01*
X112559608Y-64319608D01*
X112738932Y-64101101D01*
X112872182Y-63851808D01*
X112954236Y-63581309D01*
X112981943Y-63300000D01*
X112954236Y-63018691D01*
X112872182Y-62748192D01*
X112738932Y-62498899D01*
X112559608Y-62280392D01*
X112341101Y-62101068D01*
X112208142Y-62030000D01*
X112341101Y-61958932D01*
X112559608Y-61779608D01*
X112738932Y-61561101D01*
X112872182Y-61311808D01*
X112954236Y-61041309D01*
X112981943Y-60760000D01*
X112954236Y-60478691D01*
X112872182Y-60208192D01*
X112738932Y-59958899D01*
X112559608Y-59740392D01*
X112341101Y-59561068D01*
X112208142Y-59490000D01*
X112341101Y-59418932D01*
X112559608Y-59239608D01*
X112738932Y-59021101D01*
X112872182Y-58771808D01*
X112954236Y-58501309D01*
X112981943Y-58220000D01*
X112975049Y-58150000D01*
X115211928Y-58150000D01*
X115211928Y-59850000D01*
X115224188Y-59974482D01*
X115260498Y-60094180D01*
X115319463Y-60204494D01*
X115398815Y-60301185D01*
X115495506Y-60380537D01*
X115605820Y-60439502D01*
X115725518Y-60475812D01*
X115815000Y-60484625D01*
X115815001Y-62142069D01*
X115735241Y-62195363D01*
X115535363Y-62395241D01*
X115378320Y-62630273D01*
X115270147Y-62891426D01*
X115215000Y-63168665D01*
X115215000Y-63451335D01*
X115270147Y-63728574D01*
X115378320Y-63989727D01*
X115535363Y-64224759D01*
X115735241Y-64424637D01*
X115970273Y-64581680D01*
X116231426Y-64689853D01*
X116508665Y-64745000D01*
X116791335Y-64745000D01*
X117068574Y-64689853D01*
X117329727Y-64581680D01*
X117564759Y-64424637D01*
X117764637Y-64224759D01*
X117921680Y-63989727D01*
X118029853Y-63728574D01*
X118085000Y-63451335D01*
X118085000Y-63168665D01*
X118029853Y-62891426D01*
X117921680Y-62630273D01*
X117764637Y-62395241D01*
X117585000Y-62215604D01*
X117585000Y-60484625D01*
X117674482Y-60475812D01*
X117794180Y-60439502D01*
X117904494Y-60380537D01*
X118001185Y-60301185D01*
X118080537Y-60204494D01*
X118139502Y-60094180D01*
X118175812Y-59974482D01*
X118188072Y-59850000D01*
X118188072Y-58200000D01*
X119861928Y-58200000D01*
X119861928Y-59900000D01*
X119874188Y-60024482D01*
X119910498Y-60144180D01*
X119969463Y-60254494D01*
X120048815Y-60351185D01*
X120145506Y-60430537D01*
X120255820Y-60489502D01*
X120375518Y-60525812D01*
X120465000Y-60534625D01*
X120465001Y-62092069D01*
X120385241Y-62145363D01*
X120185363Y-62345241D01*
X120028320Y-62580273D01*
X119920147Y-62841426D01*
X119865000Y-63118665D01*
X119865000Y-63401335D01*
X119920147Y-63678574D01*
X120028320Y-63939727D01*
X120185363Y-64174759D01*
X120385241Y-64374637D01*
X120620273Y-64531680D01*
X120881426Y-64639853D01*
X121158665Y-64695000D01*
X121441335Y-64695000D01*
X121718574Y-64639853D01*
X121979727Y-64531680D01*
X122214759Y-64374637D01*
X122414637Y-64174759D01*
X122571680Y-63939727D01*
X122679853Y-63678574D01*
X122735000Y-63401335D01*
X122735000Y-63118665D01*
X122679853Y-62841426D01*
X122571680Y-62580273D01*
X122414637Y-62345241D01*
X122235000Y-62165604D01*
X122235000Y-60534625D01*
X122324482Y-60525812D01*
X122444180Y-60489502D01*
X122554494Y-60430537D01*
X122651185Y-60351185D01*
X122730537Y-60254494D01*
X122789502Y-60144180D01*
X122825812Y-60024482D01*
X122838072Y-59900000D01*
X122838072Y-58200000D01*
X122825812Y-58075518D01*
X122789502Y-57955820D01*
X122730537Y-57845506D01*
X122651185Y-57748815D01*
X122554494Y-57669463D01*
X122444180Y-57610498D01*
X122363534Y-57586034D01*
X122447588Y-57510269D01*
X122621641Y-57276920D01*
X122746825Y-57014099D01*
X122791476Y-56866890D01*
X122670155Y-56637000D01*
X121477000Y-56637000D01*
X121477000Y-56657000D01*
X121223000Y-56657000D01*
X121223000Y-56637000D01*
X120029845Y-56637000D01*
X119908524Y-56866890D01*
X119953175Y-57014099D01*
X120078359Y-57276920D01*
X120252412Y-57510269D01*
X120336466Y-57586034D01*
X120255820Y-57610498D01*
X120145506Y-57669463D01*
X120048815Y-57748815D01*
X119969463Y-57845506D01*
X119910498Y-57955820D01*
X119874188Y-58075518D01*
X119861928Y-58200000D01*
X118188072Y-58200000D01*
X118188072Y-58150000D01*
X118175812Y-58025518D01*
X118139502Y-57905820D01*
X118080537Y-57795506D01*
X118001185Y-57698815D01*
X117904494Y-57619463D01*
X117794180Y-57560498D01*
X117713534Y-57536034D01*
X117797588Y-57460269D01*
X117971641Y-57226920D01*
X118096825Y-56964099D01*
X118141476Y-56816890D01*
X118020155Y-56587000D01*
X116827000Y-56587000D01*
X116827000Y-56607000D01*
X116573000Y-56607000D01*
X116573000Y-56587000D01*
X115379845Y-56587000D01*
X115258524Y-56816890D01*
X115303175Y-56964099D01*
X115428359Y-57226920D01*
X115602412Y-57460269D01*
X115686466Y-57536034D01*
X115605820Y-57560498D01*
X115495506Y-57619463D01*
X115398815Y-57698815D01*
X115319463Y-57795506D01*
X115260498Y-57905820D01*
X115224188Y-58025518D01*
X115211928Y-58150000D01*
X112975049Y-58150000D01*
X112954236Y-57938691D01*
X112872182Y-57668192D01*
X112738932Y-57418899D01*
X112559608Y-57200392D01*
X112341101Y-57021068D01*
X112208142Y-56950000D01*
X112341101Y-56878932D01*
X112559608Y-56699608D01*
X112738932Y-56481101D01*
X112872182Y-56231808D01*
X112911221Y-56103110D01*
X115258524Y-56103110D01*
X115379845Y-56333000D01*
X116573000Y-56333000D01*
X116573000Y-55139186D01*
X116827000Y-55139186D01*
X116827000Y-56333000D01*
X118020155Y-56333000D01*
X118115089Y-56153110D01*
X119908524Y-56153110D01*
X120029845Y-56383000D01*
X121223000Y-56383000D01*
X121223000Y-55189186D01*
X121477000Y-55189186D01*
X121477000Y-56383000D01*
X122670155Y-56383000D01*
X122791476Y-56153110D01*
X122746825Y-56005901D01*
X122621641Y-55743080D01*
X122447588Y-55509731D01*
X122231355Y-55314822D01*
X121981252Y-55165843D01*
X121706891Y-55068519D01*
X121477000Y-55189186D01*
X121223000Y-55189186D01*
X120993109Y-55068519D01*
X120718748Y-55165843D01*
X120468645Y-55314822D01*
X120252412Y-55509731D01*
X120078359Y-55743080D01*
X119953175Y-56005901D01*
X119908524Y-56153110D01*
X118115089Y-56153110D01*
X118141476Y-56103110D01*
X118096825Y-55955901D01*
X117971641Y-55693080D01*
X117797588Y-55459731D01*
X117581355Y-55264822D01*
X117331252Y-55115843D01*
X117056891Y-55018519D01*
X116827000Y-55139186D01*
X116573000Y-55139186D01*
X116343109Y-55018519D01*
X116068748Y-55115843D01*
X115818645Y-55264822D01*
X115602412Y-55459731D01*
X115428359Y-55693080D01*
X115303175Y-55955901D01*
X115258524Y-56103110D01*
X112911221Y-56103110D01*
X112954236Y-55961309D01*
X112981943Y-55680000D01*
X112954236Y-55398691D01*
X112872182Y-55128192D01*
X112738932Y-54878899D01*
X112559608Y-54660392D01*
X112341101Y-54481068D01*
X112208142Y-54410000D01*
X112341101Y-54338932D01*
X112559608Y-54159608D01*
X112738932Y-53941101D01*
X112872182Y-53691808D01*
X112954236Y-53421309D01*
X112981943Y-53140000D01*
X112954236Y-52858691D01*
X112872182Y-52588192D01*
X112738932Y-52338899D01*
X112559608Y-52120392D01*
X112341101Y-51941068D01*
X112208142Y-51870000D01*
X112341101Y-51798932D01*
X112559608Y-51619608D01*
X112738932Y-51401101D01*
X112872182Y-51151808D01*
X112954236Y-50881309D01*
X112981943Y-50600000D01*
X112954236Y-50318691D01*
X112872182Y-50048192D01*
X112738932Y-49798899D01*
X112559608Y-49580392D01*
X112341101Y-49401068D01*
X112091808Y-49267818D01*
X111821309Y-49185764D01*
X111610492Y-49165000D01*
X110669508Y-49165000D01*
X110458691Y-49185764D01*
X110188192Y-49267818D01*
X109938899Y-49401068D01*
X109720392Y-49580392D01*
X109650956Y-49665000D01*
X107438454Y-49665000D01*
X107390256Y-49632795D01*
X107201898Y-49554774D01*
X107001939Y-49515000D01*
X106798061Y-49515000D01*
X106598102Y-49554774D01*
X106409744Y-49632795D01*
X106240226Y-49746063D01*
X106096063Y-49890226D01*
X105982795Y-50059744D01*
X105904774Y-50248102D01*
X105865000Y-50448061D01*
X105865000Y-50651939D01*
X105904774Y-50851898D01*
X105982795Y-51040256D01*
X106096063Y-51209774D01*
X106240226Y-51353937D01*
X106409744Y-51467205D01*
X106598102Y-51545226D01*
X106798061Y-51585000D01*
X107001939Y-51585000D01*
X107201898Y-51545226D01*
X107390256Y-51467205D01*
X107438454Y-51435000D01*
X109568888Y-51435000D01*
X109720392Y-51619608D01*
X109938899Y-51798932D01*
X110071858Y-51870000D01*
X109938899Y-51941068D01*
X109720392Y-52120392D01*
X109541068Y-52338899D01*
X109407818Y-52588192D01*
X109325764Y-52858691D01*
X109298057Y-53140000D01*
X109325764Y-53421309D01*
X109407818Y-53691808D01*
X109541068Y-53941101D01*
X109720392Y-54159608D01*
X109938899Y-54338932D01*
X110071858Y-54410000D01*
X109938899Y-54481068D01*
X109720392Y-54660392D01*
X109541068Y-54878899D01*
X109407818Y-55128192D01*
X109325764Y-55398691D01*
X109298057Y-55680000D01*
X109325764Y-55961309D01*
X109349277Y-56038823D01*
X109340256Y-56032795D01*
X109151898Y-55954774D01*
X108951939Y-55915000D01*
X108748061Y-55915000D01*
X108548102Y-55954774D01*
X108359744Y-56032795D01*
X108311546Y-56065000D01*
X97682782Y-56065000D01*
X97714236Y-55961309D01*
X97741943Y-55680000D01*
X97714236Y-55398691D01*
X97632182Y-55128192D01*
X97498932Y-54878899D01*
X97319608Y-54660392D01*
X97101101Y-54481068D01*
X96968142Y-54410000D01*
X97101101Y-54338932D01*
X97319608Y-54159608D01*
X97498932Y-53941101D01*
X97632182Y-53691808D01*
X97714236Y-53421309D01*
X97741943Y-53140000D01*
X97714236Y-52858691D01*
X97675198Y-52730000D01*
X99649286Y-52730000D01*
X99649286Y-48910000D01*
X96650715Y-48910000D01*
X96650715Y-49161928D01*
X94700000Y-49161928D01*
X94575518Y-49174188D01*
X94455820Y-49210498D01*
X94345506Y-49269463D01*
X94248815Y-49348815D01*
X94169463Y-49445506D01*
X94110498Y-49555820D01*
X94074188Y-49675518D01*
X94061928Y-49800000D01*
X94061928Y-51400000D01*
X94074188Y-51524482D01*
X94110498Y-51644180D01*
X94169463Y-51754494D01*
X94248815Y-51851185D01*
X94345506Y-51930537D01*
X94455820Y-51989502D01*
X94575518Y-52025812D01*
X94593482Y-52027581D01*
X94480392Y-52120392D01*
X94361715Y-52265000D01*
X91567781Y-52265000D01*
X91605622Y-52253521D01*
X91924404Y-52083129D01*
X92203819Y-51853819D01*
X92433129Y-51574404D01*
X92603521Y-51255622D01*
X92708448Y-50909723D01*
X92743878Y-50550000D01*
X92708448Y-50190277D01*
X92603521Y-49844378D01*
X92433129Y-49525596D01*
X92203819Y-49246181D01*
X91924404Y-49016871D01*
X91605622Y-48846479D01*
X91259723Y-48741552D01*
X90990139Y-48715000D01*
X90809861Y-48715000D01*
X90540277Y-48741552D01*
X90194378Y-48846479D01*
X89875596Y-49016871D01*
X89596181Y-49246181D01*
X89366871Y-49525596D01*
X89196479Y-49844378D01*
X89091552Y-50190277D01*
X89056122Y-50550000D01*
X89091552Y-50909723D01*
X89196479Y-51255622D01*
X89366871Y-51574404D01*
X89596181Y-51853819D01*
X89875596Y-52083129D01*
X90194378Y-52253521D01*
X90232219Y-52265000D01*
X87888454Y-52265000D01*
X87840256Y-52232795D01*
X87651898Y-52154774D01*
X87451939Y-52115000D01*
X87248061Y-52115000D01*
X87048102Y-52154774D01*
X86859744Y-52232795D01*
X86690226Y-52346063D01*
X86546063Y-52490226D01*
X86432795Y-52659744D01*
X86354774Y-52848102D01*
X86315000Y-53048061D01*
X86315000Y-53251939D01*
X86354774Y-53451898D01*
X86432795Y-53640256D01*
X86546063Y-53809774D01*
X86690226Y-53953937D01*
X86859744Y-54067205D01*
X87048102Y-54145226D01*
X87248061Y-54185000D01*
X87451939Y-54185000D01*
X87651898Y-54145226D01*
X87840256Y-54067205D01*
X87888454Y-54035000D01*
X94378129Y-54035000D01*
X94480392Y-54159608D01*
X94698899Y-54338932D01*
X94831858Y-54410000D01*
X94698899Y-54481068D01*
X94480392Y-54660392D01*
X94301068Y-54878899D01*
X94167818Y-55128192D01*
X94085764Y-55398691D01*
X94058057Y-55680000D01*
X94085764Y-55961309D01*
X94117218Y-56065000D01*
X79193469Y-56065000D01*
X79150000Y-56060719D01*
X79106531Y-56065000D01*
X79106523Y-56065000D01*
X78976510Y-56077805D01*
X78809686Y-56128411D01*
X78655941Y-56210589D01*
X78554953Y-56293468D01*
X78554951Y-56293470D01*
X78521183Y-56321183D01*
X78493470Y-56354951D01*
X77554951Y-57293471D01*
X77521184Y-57321183D01*
X77493471Y-57354951D01*
X77493468Y-57354954D01*
X77410590Y-57455941D01*
X77328412Y-57609687D01*
X77277805Y-57776510D01*
X77260719Y-57950000D01*
X75580000Y-57950000D01*
X75580000Y-53089396D01*
X75764637Y-52904759D01*
X75921680Y-52669727D01*
X76029853Y-52408574D01*
X76085000Y-52131335D01*
X76085000Y-51848665D01*
X76029853Y-51571426D01*
X75921680Y-51310273D01*
X75764637Y-51075241D01*
X75580000Y-50890604D01*
X75580000Y-48900714D01*
X67110000Y-48900714D01*
X67110000Y-47910000D01*
X132740000Y-47910000D01*
X132740001Y-81040000D01*
G36*
X82373989Y-66812257D02*
G01*
X82315000Y-67108816D01*
X82315000Y-67411184D01*
X82373989Y-67707743D01*
X82489701Y-67987095D01*
X82657688Y-68238505D01*
X82871495Y-68452312D01*
X83122905Y-68620299D01*
X83177764Y-68643023D01*
X83049208Y-68711739D01*
X82965525Y-68965920D01*
X83850000Y-69850395D01*
X84734475Y-68965920D01*
X84650792Y-68711739D01*
X84514433Y-68646254D01*
X84577095Y-68620299D01*
X84828505Y-68452312D01*
X85042312Y-68238505D01*
X85104790Y-68145000D01*
X89561420Y-68145000D01*
X89761464Y-68345044D01*
X89789181Y-68378817D01*
X89923939Y-68489411D01*
X89946093Y-68501252D01*
X89921495Y-68517688D01*
X89707688Y-68731495D01*
X89539701Y-68982905D01*
X89423989Y-69262257D01*
X89365000Y-69558816D01*
X89365000Y-69861184D01*
X89423989Y-70157743D01*
X89539701Y-70437095D01*
X89707688Y-70688505D01*
X89774127Y-70754944D01*
X89755820Y-70760498D01*
X89645506Y-70819463D01*
X89548815Y-70898815D01*
X89469463Y-70995506D01*
X89410498Y-71105820D01*
X89374188Y-71225518D01*
X89361928Y-71350000D01*
X89365000Y-71964250D01*
X89523750Y-72123000D01*
X90773000Y-72123000D01*
X90773000Y-72103000D01*
X91027000Y-72103000D01*
X91027000Y-72123000D01*
X92276250Y-72123000D01*
X92435000Y-71964250D01*
X92438072Y-71350000D01*
X92425812Y-71225518D01*
X92389502Y-71105820D01*
X92330537Y-70995506D01*
X92251185Y-70898815D01*
X92154494Y-70819463D01*
X92044180Y-70760498D01*
X92025873Y-70754944D01*
X92092312Y-70688505D01*
X92260299Y-70437095D01*
X92376011Y-70157743D01*
X92435000Y-69861184D01*
X92435000Y-69558816D01*
X92376011Y-69262257D01*
X92260299Y-68982905D01*
X92092312Y-68731495D01*
X91995817Y-68635000D01*
X92711546Y-68635000D01*
X92759744Y-68667205D01*
X92948102Y-68745226D01*
X93148061Y-68785000D01*
X93351939Y-68785000D01*
X93551898Y-68745226D01*
X93740256Y-68667205D01*
X93909774Y-68553937D01*
X94053937Y-68409774D01*
X94060084Y-68400575D01*
X94085764Y-68661309D01*
X94167818Y-68931808D01*
X94301068Y-69181101D01*
X94480392Y-69399608D01*
X94698899Y-69578932D01*
X94831858Y-69650000D01*
X94698899Y-69721068D01*
X94480392Y-69900392D01*
X94301068Y-70118899D01*
X94167818Y-70368192D01*
X94085764Y-70638691D01*
X94058057Y-70920000D01*
X94085764Y-71201309D01*
X94167818Y-71471808D01*
X94301068Y-71721101D01*
X94480392Y-71939608D01*
X94698899Y-72118932D01*
X94831858Y-72190000D01*
X94698899Y-72261068D01*
X94480392Y-72440392D01*
X94369922Y-72575000D01*
X94243465Y-72575000D01*
X94199999Y-72570719D01*
X94156533Y-72575000D01*
X94156523Y-72575000D01*
X94026510Y-72587805D01*
X93859687Y-72638411D01*
X93716396Y-72715001D01*
X92435896Y-72715001D01*
X92435000Y-72535750D01*
X92276250Y-72377000D01*
X91027000Y-72377000D01*
X91027000Y-72397000D01*
X90773000Y-72397000D01*
X90773000Y-72377000D01*
X89523750Y-72377000D01*
X89365000Y-72535750D01*
X89364104Y-72715001D01*
X82016580Y-72715001D01*
X81895000Y-72593422D01*
X81895000Y-71094080D01*
X82965525Y-71094080D01*
X83049208Y-71348261D01*
X83321775Y-71479158D01*
X83614642Y-71554365D01*
X83916553Y-71570991D01*
X84215907Y-71528397D01*
X84501199Y-71428222D01*
X84650792Y-71348261D01*
X84734475Y-71094080D01*
X83850000Y-70209605D01*
X82965525Y-71094080D01*
X81895000Y-71094080D01*
X81895000Y-70096553D01*
X82309009Y-70096553D01*
X82351603Y-70395907D01*
X82451778Y-70681199D01*
X82531739Y-70830792D01*
X82785920Y-70914475D01*
X83670395Y-70030000D01*
X84029605Y-70030000D01*
X84914080Y-70914475D01*
X85168261Y-70830792D01*
X85299158Y-70558225D01*
X85374365Y-70265358D01*
X85390991Y-69963447D01*
X85348397Y-69664093D01*
X85248222Y-69378801D01*
X85168261Y-69229208D01*
X84914080Y-69145525D01*
X84029605Y-70030000D01*
X83670395Y-70030000D01*
X82785920Y-69145525D01*
X82531739Y-69229208D01*
X82400842Y-69501775D01*
X82325635Y-69794642D01*
X82309009Y-70096553D01*
X81895000Y-70096553D01*
X81895000Y-69899790D01*
X81988505Y-69837312D01*
X82202312Y-69623505D01*
X82370299Y-69372095D01*
X82486011Y-69092743D01*
X82545000Y-68796184D01*
X82545000Y-68493816D01*
X82486011Y-68197257D01*
X82370299Y-67917905D01*
X82202312Y-67666495D01*
X81988505Y-67452688D01*
X81737095Y-67284701D01*
X81677462Y-67260000D01*
X81737095Y-67235299D01*
X81988505Y-67067312D01*
X82202312Y-66853505D01*
X82281495Y-66735000D01*
X82405990Y-66735000D01*
X82373989Y-66812257D01*
X82373989Y-66812257D01*
G37*
X82373989Y-66812257D02*
X82315000Y-67108816D01*
X82315000Y-67411184D01*
X82373989Y-67707743D01*
X82489701Y-67987095D01*
X82657688Y-68238505D01*
X82871495Y-68452312D01*
X83122905Y-68620299D01*
X83177764Y-68643023D01*
X83049208Y-68711739D01*
X82965525Y-68965920D01*
X83850000Y-69850395D01*
X84734475Y-68965920D01*
X84650792Y-68711739D01*
X84514433Y-68646254D01*
X84577095Y-68620299D01*
X84828505Y-68452312D01*
X85042312Y-68238505D01*
X85104790Y-68145000D01*
X89561420Y-68145000D01*
X89761464Y-68345044D01*
X89789181Y-68378817D01*
X89923939Y-68489411D01*
X89946093Y-68501252D01*
X89921495Y-68517688D01*
X89707688Y-68731495D01*
X89539701Y-68982905D01*
X89423989Y-69262257D01*
X89365000Y-69558816D01*
X89365000Y-69861184D01*
X89423989Y-70157743D01*
X89539701Y-70437095D01*
X89707688Y-70688505D01*
X89774127Y-70754944D01*
X89755820Y-70760498D01*
X89645506Y-70819463D01*
X89548815Y-70898815D01*
X89469463Y-70995506D01*
X89410498Y-71105820D01*
X89374188Y-71225518D01*
X89361928Y-71350000D01*
X89365000Y-71964250D01*
X89523750Y-72123000D01*
X90773000Y-72123000D01*
X90773000Y-72103000D01*
X91027000Y-72103000D01*
X91027000Y-72123000D01*
X92276250Y-72123000D01*
X92435000Y-71964250D01*
X92438072Y-71350000D01*
X92425812Y-71225518D01*
X92389502Y-71105820D01*
X92330537Y-70995506D01*
X92251185Y-70898815D01*
X92154494Y-70819463D01*
X92044180Y-70760498D01*
X92025873Y-70754944D01*
X92092312Y-70688505D01*
X92260299Y-70437095D01*
X92376011Y-70157743D01*
X92435000Y-69861184D01*
X92435000Y-69558816D01*
X92376011Y-69262257D01*
X92260299Y-68982905D01*
X92092312Y-68731495D01*
X91995817Y-68635000D01*
X92711546Y-68635000D01*
X92759744Y-68667205D01*
X92948102Y-68745226D01*
X93148061Y-68785000D01*
X93351939Y-68785000D01*
X93551898Y-68745226D01*
X93740256Y-68667205D01*
X93909774Y-68553937D01*
X94053937Y-68409774D01*
X94060084Y-68400575D01*
X94085764Y-68661309D01*
X94167818Y-68931808D01*
X94301068Y-69181101D01*
X94480392Y-69399608D01*
X94698899Y-69578932D01*
X94831858Y-69650000D01*
X94698899Y-69721068D01*
X94480392Y-69900392D01*
X94301068Y-70118899D01*
X94167818Y-70368192D01*
X94085764Y-70638691D01*
X94058057Y-70920000D01*
X94085764Y-71201309D01*
X94167818Y-71471808D01*
X94301068Y-71721101D01*
X94480392Y-71939608D01*
X94698899Y-72118932D01*
X94831858Y-72190000D01*
X94698899Y-72261068D01*
X94480392Y-72440392D01*
X94369922Y-72575000D01*
X94243465Y-72575000D01*
X94199999Y-72570719D01*
X94156533Y-72575000D01*
X94156523Y-72575000D01*
X94026510Y-72587805D01*
X93859687Y-72638411D01*
X93716396Y-72715001D01*
X92435896Y-72715001D01*
X92435000Y-72535750D01*
X92276250Y-72377000D01*
X91027000Y-72377000D01*
X91027000Y-72397000D01*
X90773000Y-72397000D01*
X90773000Y-72377000D01*
X89523750Y-72377000D01*
X89365000Y-72535750D01*
X89364104Y-72715001D01*
X82016580Y-72715001D01*
X81895000Y-72593422D01*
X81895000Y-71094080D01*
X82965525Y-71094080D01*
X83049208Y-71348261D01*
X83321775Y-71479158D01*
X83614642Y-71554365D01*
X83916553Y-71570991D01*
X84215907Y-71528397D01*
X84501199Y-71428222D01*
X84650792Y-71348261D01*
X84734475Y-71094080D01*
X83850000Y-70209605D01*
X82965525Y-71094080D01*
X81895000Y-71094080D01*
X81895000Y-70096553D01*
X82309009Y-70096553D01*
X82351603Y-70395907D01*
X82451778Y-70681199D01*
X82531739Y-70830792D01*
X82785920Y-70914475D01*
X83670395Y-70030000D01*
X84029605Y-70030000D01*
X84914080Y-70914475D01*
X85168261Y-70830792D01*
X85299158Y-70558225D01*
X85374365Y-70265358D01*
X85390991Y-69963447D01*
X85348397Y-69664093D01*
X85248222Y-69378801D01*
X85168261Y-69229208D01*
X84914080Y-69145525D01*
X84029605Y-70030000D01*
X83670395Y-70030000D01*
X82785920Y-69145525D01*
X82531739Y-69229208D01*
X82400842Y-69501775D01*
X82325635Y-69794642D01*
X82309009Y-70096553D01*
X81895000Y-70096553D01*
X81895000Y-69899790D01*
X81988505Y-69837312D01*
X82202312Y-69623505D01*
X82370299Y-69372095D01*
X82486011Y-69092743D01*
X82545000Y-68796184D01*
X82545000Y-68493816D01*
X82486011Y-68197257D01*
X82370299Y-67917905D01*
X82202312Y-67666495D01*
X81988505Y-67452688D01*
X81737095Y-67284701D01*
X81677462Y-67260000D01*
X81737095Y-67235299D01*
X81988505Y-67067312D01*
X82202312Y-66853505D01*
X82281495Y-66735000D01*
X82405990Y-66735000D01*
X82373989Y-66812257D01*
G36*
X124265000Y-75141070D02*
G01*
X124265000Y-75461546D01*
X124232795Y-75509744D01*
X124154774Y-75698102D01*
X124115000Y-75898061D01*
X124115000Y-76101939D01*
X124154774Y-76301898D01*
X124232795Y-76490256D01*
X124346063Y-76659774D01*
X124490226Y-76803937D01*
X124659744Y-76917205D01*
X124848102Y-76995226D01*
X125048061Y-77035000D01*
X125251939Y-77035000D01*
X125451898Y-76995226D01*
X125640256Y-76917205D01*
X125809774Y-76803937D01*
X125953937Y-76659774D01*
X126067205Y-76490256D01*
X126145226Y-76301898D01*
X126185000Y-76101939D01*
X126185000Y-75902431D01*
X126190208Y-75913833D01*
X126204771Y-75934026D01*
X126222993Y-75950990D01*
X126244175Y-75964073D01*
X126267502Y-75972772D01*
X126298451Y-75976991D01*
X126697688Y-75981860D01*
X126619970Y-76059578D01*
X126735918Y-76175526D01*
X126481739Y-76259208D01*
X126350842Y-76531775D01*
X126275635Y-76824642D01*
X126259009Y-77126553D01*
X126301603Y-77425907D01*
X126401778Y-77711199D01*
X126481739Y-77860792D01*
X126735920Y-77944475D01*
X127620395Y-77060000D01*
X127606253Y-77045858D01*
X127785858Y-76866253D01*
X127800000Y-76880395D01*
X127814143Y-76866253D01*
X127993748Y-77045858D01*
X127979605Y-77060000D01*
X127993748Y-77074143D01*
X127814143Y-77253748D01*
X127800000Y-77239605D01*
X126915525Y-78124080D01*
X126999208Y-78378261D01*
X127271775Y-78509158D01*
X127564642Y-78584365D01*
X127866553Y-78600991D01*
X128165907Y-78558397D01*
X128223000Y-78538350D01*
X128223000Y-78634851D01*
X123577000Y-78611147D01*
X123577000Y-75129208D01*
X124265000Y-75141070D01*
X124265000Y-75141070D01*
G37*
X124265000Y-75141070D02*
X124265000Y-75461546D01*
X124232795Y-75509744D01*
X124154774Y-75698102D01*
X124115000Y-75898061D01*
X124115000Y-76101939D01*
X124154774Y-76301898D01*
X124232795Y-76490256D01*
X124346063Y-76659774D01*
X124490226Y-76803937D01*
X124659744Y-76917205D01*
X124848102Y-76995226D01*
X125048061Y-77035000D01*
X125251939Y-77035000D01*
X125451898Y-76995226D01*
X125640256Y-76917205D01*
X125809774Y-76803937D01*
X125953937Y-76659774D01*
X126067205Y-76490256D01*
X126145226Y-76301898D01*
X126185000Y-76101939D01*
X126185000Y-75902431D01*
X126190208Y-75913833D01*
X126204771Y-75934026D01*
X126222993Y-75950990D01*
X126244175Y-75964073D01*
X126267502Y-75972772D01*
X126298451Y-75976991D01*
X126697688Y-75981860D01*
X126619970Y-76059578D01*
X126735918Y-76175526D01*
X126481739Y-76259208D01*
X126350842Y-76531775D01*
X126275635Y-76824642D01*
X126259009Y-77126553D01*
X126301603Y-77425907D01*
X126401778Y-77711199D01*
X126481739Y-77860792D01*
X126735920Y-77944475D01*
X127620395Y-77060000D01*
X127606253Y-77045858D01*
X127785858Y-76866253D01*
X127800000Y-76880395D01*
X127814143Y-76866253D01*
X127993748Y-77045858D01*
X127979605Y-77060000D01*
X127993748Y-77074143D01*
X127814143Y-77253748D01*
X127800000Y-77239605D01*
X126915525Y-78124080D01*
X126999208Y-78378261D01*
X127271775Y-78509158D01*
X127564642Y-78584365D01*
X127866553Y-78600991D01*
X128165907Y-78558397D01*
X128223000Y-78538350D01*
X128223000Y-78634851D01*
X123577000Y-78611147D01*
X123577000Y-75129208D01*
X124265000Y-75141070D01*
G36*
X126919264Y-75984562D02*
G01*
X126915526Y-75995918D01*
X126903984Y-75984376D01*
X126919264Y-75984562D01*
X126919264Y-75984562D01*
G37*
X126919264Y-75984562D02*
X126915526Y-75995918D01*
X126903984Y-75984376D01*
X126919264Y-75984562D01*
G36*
X126214959Y-75174690D02*
G01*
X126173395Y-75839716D01*
X126145226Y-75698102D01*
X126067205Y-75509744D01*
X126035000Y-75461546D01*
X126035000Y-75171587D01*
X126214959Y-75174690D01*
X126214959Y-75174690D01*
G37*
X126214959Y-75174690D02*
X126173395Y-75839716D01*
X126145226Y-75698102D01*
X126067205Y-75509744D01*
X126035000Y-75461546D01*
X126035000Y-75171587D01*
X126214959Y-75174690D01*
M02*
