M48
; DRILL file {KiCad (5.1.2-1)-1} date Sunday, 06 February 2022 at 17:07:14
; FORMAT={-:-/ absolute / metric / decimal}
; #@! TF.CreationDate,2022-02-06T17:07:14+01:00
; #@! TF.GenerationSoftware,Kicad,Pcbnew,(5.1.2-1)-1
; #@! TF.FileFunction,Plated,1,2,PTH
FMAT,2
METRIC
T1C0.400
T2C0.800
T3C0.900
T4C1.000
T5C1.200
%
G90
G05
T1
X87.3Y-64.55
X87.35Y-53.15
X88.4Y-60.75
X88.4Y-65.85
X93.25Y-67.75
X101.97Y-70.92
X106.9Y-50.55
X106.9Y-62.0
X108.85Y-56.95
X121.3Y-73.65
X121.32Y-69.67
X121.85Y-74.75
X125.15Y-66.9
X125.15Y-76.0
X126.0Y-53.15
X129.1Y-54.75
T2
X121.3Y-63.26
X121.3Y-78.5
X116.65Y-63.31
X116.65Y-78.55
X90.9Y-76.0
X90.9Y-78.5
X90.9Y-65.79
X95.9Y-50.6
X95.9Y-53.14
X95.9Y-55.68
X95.9Y-58.22
X95.9Y-60.76
X95.9Y-63.3
X95.9Y-65.84
X95.9Y-68.38
X95.9Y-70.92
X95.9Y-73.46
X95.9Y-76.0
X95.9Y-78.54
X111.14Y-50.6
X111.14Y-53.14
X111.14Y-55.68
X111.14Y-58.22
X111.14Y-60.76
X111.14Y-63.3
X111.14Y-65.84
X111.14Y-68.38
X111.14Y-70.92
X111.14Y-73.46
X111.14Y-76.0
X111.14Y-78.54
T3
X90.9Y-69.71
X90.9Y-72.25
T4
X121.35Y-56.51
X121.35Y-59.05
X74.65Y-51.99
X74.65Y-76.99
X81.01Y-60.335
X81.01Y-63.105
X81.01Y-65.875
X81.01Y-68.645
X83.85Y-58.95
X83.85Y-61.72
X83.85Y-64.49
X83.85Y-67.26
X83.85Y-70.03
X116.7Y-56.46
X116.7Y-59.0
X127.8Y-66.9
X127.8Y-69.44
X127.8Y-71.98
X127.8Y-74.52
X127.8Y-77.06
X130.34Y-66.9
X130.34Y-69.44
X130.34Y-71.98
X130.34Y-74.52
X130.34Y-77.06
T5
X90.9Y-50.55
T0
M30
