G04 #@! TF.GenerationSoftware,KiCad,Pcbnew,(5.1.2-1)-1*
G04 #@! TF.CreationDate,2022-02-06T17:07:09+01:00*
G04 #@! TF.ProjectId,RS232interface,52533233-3269-46e7-9465-72666163652e,rev?*
G04 #@! TF.SameCoordinates,Original*
G04 #@! TF.FileFunction,Copper,L1,Top*
G04 #@! TF.FilePolarity,Positive*
%FSLAX46Y46*%
G04 Gerber Fmt 4.6, Leading zero omitted, Abs format (unit mm)*
G04 Created by KiCad (PCBNEW (5.1.2-1)-1) date 2022-02-06 17:07:09*
%MOMM*%
%LPD*%
G04 APERTURE LIST*
%ADD10C,0.300000*%
%ADD11C,1.600000*%
%ADD12O,2.400000X2.400000*%
%ADD13O,2.400000X1.600000*%
%ADD14R,2.400000X1.600000*%
%ADD15C,1.800000*%
%ADD16O,1.700000X1.700000*%
%ADD17R,1.700000X1.700000*%
%ADD18R,1.800000X1.800000*%
%ADD19R,1.600000X1.600000*%
%ADD20C,0.800000*%
%ADD21C,0.500000*%
%ADD22C,2.500000*%
%ADD23C,0.250000*%
%ADD24C,0.254000*%
G04 APERTURE END LIST*
D10*
X69057142Y-71814285D02*
X69128571Y-71957142D01*
X69128571Y-72242857D01*
X69057142Y-72385714D01*
X68985714Y-72457142D01*
X68842857Y-72528571D01*
X68414285Y-72528571D01*
X68271428Y-72457142D01*
X68200000Y-72385714D01*
X68128571Y-72242857D01*
X68128571Y-71957142D01*
X68200000Y-71814285D01*
X69128571Y-70957142D02*
X69057142Y-71100000D01*
X68985714Y-71171428D01*
X68842857Y-71242857D01*
X68414285Y-71242857D01*
X68271428Y-71171428D01*
X68200000Y-71100000D01*
X68128571Y-70957142D01*
X68128571Y-70742857D01*
X68200000Y-70600000D01*
X68271428Y-70528571D01*
X68414285Y-70457142D01*
X68842857Y-70457142D01*
X68985714Y-70528571D01*
X69057142Y-70600000D01*
X69128571Y-70742857D01*
X69128571Y-70957142D01*
X69128571Y-69814285D02*
X68128571Y-69814285D01*
X68271428Y-69814285D02*
X68200000Y-69742857D01*
X68128571Y-69600000D01*
X68128571Y-69385714D01*
X68200000Y-69242857D01*
X68342857Y-69171428D01*
X69128571Y-69171428D01*
X68342857Y-69171428D02*
X68200000Y-69100000D01*
X68128571Y-68957142D01*
X68128571Y-68742857D01*
X68200000Y-68600000D01*
X68342857Y-68528571D01*
X69128571Y-68528571D01*
X68128571Y-67814285D02*
X69628571Y-67814285D01*
X68200000Y-67814285D02*
X68128571Y-67671428D01*
X68128571Y-67385714D01*
X68200000Y-67242857D01*
X68271428Y-67171428D01*
X68414285Y-67100000D01*
X68842857Y-67100000D01*
X68985714Y-67171428D01*
X69057142Y-67242857D01*
X69128571Y-67385714D01*
X69128571Y-67671428D01*
X69057142Y-67814285D01*
X69128571Y-66242857D02*
X69057142Y-66385714D01*
X68985714Y-66457142D01*
X68842857Y-66528571D01*
X68414285Y-66528571D01*
X68271428Y-66457142D01*
X68200000Y-66385714D01*
X68128571Y-66242857D01*
X68128571Y-66028571D01*
X68200000Y-65885714D01*
X68271428Y-65814285D01*
X68414285Y-65742857D01*
X68842857Y-65742857D01*
X68985714Y-65814285D01*
X69057142Y-65885714D01*
X69128571Y-66028571D01*
X69128571Y-66242857D01*
X68128571Y-65100000D02*
X69128571Y-65100000D01*
X68271428Y-65100000D02*
X68200000Y-65028571D01*
X68128571Y-64885714D01*
X68128571Y-64671428D01*
X68200000Y-64528571D01*
X68342857Y-64457142D01*
X69128571Y-64457142D01*
X69057142Y-63171428D02*
X69128571Y-63314285D01*
X69128571Y-63600000D01*
X69057142Y-63742857D01*
X68914285Y-63814285D01*
X68342857Y-63814285D01*
X68200000Y-63742857D01*
X68128571Y-63600000D01*
X68128571Y-63314285D01*
X68200000Y-63171428D01*
X68342857Y-63100000D01*
X68485714Y-63100000D01*
X68628571Y-63814285D01*
X68128571Y-62457142D02*
X69128571Y-62457142D01*
X68271428Y-62457142D02*
X68200000Y-62385714D01*
X68128571Y-62242857D01*
X68128571Y-62028571D01*
X68200000Y-61885714D01*
X68342857Y-61814285D01*
X69128571Y-61814285D01*
X68128571Y-61314285D02*
X68128571Y-60742857D01*
X67628571Y-61100000D02*
X68914285Y-61100000D01*
X69057142Y-61028571D01*
X69128571Y-60885714D01*
X69128571Y-60742857D01*
X69057142Y-59171428D02*
X69128571Y-59028571D01*
X69128571Y-58742857D01*
X69057142Y-58600000D01*
X68914285Y-58528571D01*
X68842857Y-58528571D01*
X68700000Y-58600000D01*
X68628571Y-58742857D01*
X68628571Y-58957142D01*
X68557142Y-59100000D01*
X68414285Y-59171428D01*
X68342857Y-59171428D01*
X68200000Y-59100000D01*
X68128571Y-58957142D01*
X68128571Y-58742857D01*
X68200000Y-58600000D01*
X69128571Y-57885714D02*
X68128571Y-57885714D01*
X67628571Y-57885714D02*
X67700000Y-57957142D01*
X67771428Y-57885714D01*
X67700000Y-57814285D01*
X67628571Y-57885714D01*
X67771428Y-57885714D01*
X69128571Y-56528571D02*
X67628571Y-56528571D01*
X69057142Y-56528571D02*
X69128571Y-56671428D01*
X69128571Y-56957142D01*
X69057142Y-57100000D01*
X68985714Y-57171428D01*
X68842857Y-57242857D01*
X68414285Y-57242857D01*
X68271428Y-57171428D01*
X68200000Y-57100000D01*
X68128571Y-56957142D01*
X68128571Y-56671428D01*
X68200000Y-56528571D01*
X69057142Y-55242857D02*
X69128571Y-55385714D01*
X69128571Y-55671428D01*
X69057142Y-55814285D01*
X68914285Y-55885714D01*
X68342857Y-55885714D01*
X68200000Y-55814285D01*
X68128571Y-55671428D01*
X68128571Y-55385714D01*
X68200000Y-55242857D01*
X68342857Y-55171428D01*
X68485714Y-55171428D01*
X68628571Y-55885714D01*
D11*
X121300000Y-63260000D03*
X121300000Y-78500000D03*
X116650000Y-63310000D03*
X116650000Y-78550000D03*
X90900000Y-65790000D03*
D12*
X90900000Y-50550000D03*
D13*
X111140000Y-50600000D03*
X95900000Y-78540000D03*
X111140000Y-53140000D03*
X95900000Y-76000000D03*
X111140000Y-55680000D03*
X95900000Y-73460000D03*
X111140000Y-58220000D03*
X95900000Y-70920000D03*
X111140000Y-60760000D03*
X95900000Y-68380000D03*
X111140000Y-63300000D03*
X95900000Y-65840000D03*
X111140000Y-65840000D03*
X95900000Y-63300000D03*
X111140000Y-68380000D03*
X95900000Y-60760000D03*
X111140000Y-70920000D03*
X95900000Y-58220000D03*
X111140000Y-73460000D03*
X95900000Y-55680000D03*
X111140000Y-76000000D03*
X95900000Y-53140000D03*
X111140000Y-78540000D03*
D14*
X95900000Y-50600000D03*
D11*
X74650000Y-76990000D03*
X74650000Y-51990000D03*
D15*
X81010000Y-68645000D03*
X81010000Y-65875000D03*
X81010000Y-63105000D03*
X81010000Y-60335000D03*
X83850000Y-70030000D03*
X83850000Y-67260000D03*
X83850000Y-64490000D03*
X83850000Y-61720000D03*
X83850000Y-58950000D03*
D16*
X121350000Y-56510000D03*
D17*
X121350000Y-59050000D03*
D16*
X116700000Y-56460000D03*
D17*
X116700000Y-59000000D03*
D15*
X130340000Y-77060000D03*
X127800000Y-77060000D03*
X130340000Y-74520000D03*
X127800000Y-74520000D03*
X130340000Y-71980000D03*
X127800000Y-71980000D03*
X130340000Y-69440000D03*
X127800000Y-69440000D03*
X130340000Y-66900000D03*
D18*
X127800000Y-66900000D03*
D15*
X90900000Y-69710000D03*
D18*
X90900000Y-72250000D03*
D11*
X90900000Y-76000000D03*
D19*
X90900000Y-78500000D03*
D20*
X106900000Y-62000000D03*
X106900000Y-50550000D03*
X126000000Y-53150000D03*
X129100000Y-54750000D03*
X101970000Y-70920000D03*
X121850000Y-74750000D03*
X108850000Y-56950000D03*
X121300000Y-73650000D03*
X121319990Y-69669990D03*
X88400000Y-60750000D03*
X88400000Y-65850000D03*
X93250000Y-67750000D03*
X125150000Y-76000000D03*
X125150000Y-66900000D03*
X87300000Y-64550000D03*
X87350000Y-53150000D03*
D21*
X121300000Y-56460000D02*
X121350000Y-56510000D01*
X116700000Y-56460000D02*
X121300000Y-56460000D01*
X127760000Y-77100000D02*
X127800000Y-77060000D01*
X95900000Y-76000000D02*
X96300000Y-76000000D01*
D22*
X90900000Y-72250000D02*
X90900000Y-76000000D01*
D21*
X95860000Y-78500000D02*
X95900000Y-78540000D01*
X95900000Y-78540000D02*
X96300000Y-78540000D01*
X121250000Y-78550000D02*
X121300000Y-78500000D01*
X88450000Y-78500000D02*
X90900000Y-78500000D01*
X86449999Y-77999999D02*
X86950000Y-78500000D01*
X86449999Y-50700001D02*
X86449999Y-77999999D01*
X86950000Y-78500000D02*
X88450000Y-78500000D01*
X86600000Y-50550000D02*
X86449999Y-50700001D01*
X90900000Y-50550000D02*
X86600000Y-50550000D01*
X90900000Y-65790000D02*
X90900000Y-69710000D01*
X106900000Y-62000000D02*
X106900000Y-50550000D01*
X125990000Y-53140000D02*
X126000000Y-53150000D01*
X111140000Y-53140000D02*
X125990000Y-53140000D01*
X111140000Y-55680000D02*
X113470000Y-55680000D01*
X114400000Y-54750000D02*
X129100000Y-54750000D01*
X113470000Y-55680000D02*
X114400000Y-54750000D01*
X120100001Y-62060001D02*
X121300000Y-63260000D01*
X116279999Y-61659999D02*
X119699999Y-61659999D01*
X112840000Y-58220000D02*
X116279999Y-61659999D01*
X119699999Y-61659999D02*
X120100001Y-62060001D01*
X111140000Y-58220000D02*
X112840000Y-58220000D01*
X102900000Y-74750000D02*
X121850000Y-74750000D01*
X101970000Y-73820000D02*
X102900000Y-74750000D01*
X101970000Y-70920000D02*
X101970000Y-73820000D01*
D23*
X129025001Y-75834999D02*
X126434999Y-75834999D01*
X130340000Y-74520000D02*
X129025001Y-75834999D01*
X125350000Y-74750000D02*
X121850000Y-74750000D01*
X126434999Y-75834999D02*
X125350000Y-74750000D01*
D21*
X114100000Y-60760000D02*
X116650000Y-63310000D01*
X111140000Y-60760000D02*
X114100000Y-60760000D01*
X110740000Y-63300000D02*
X111140000Y-63300000D01*
X108850000Y-61410000D02*
X110740000Y-63300000D01*
X108850000Y-56950000D02*
X108850000Y-61410000D01*
X95900000Y-65840000D02*
X101690000Y-65840000D01*
X105519990Y-69669990D02*
X121319990Y-69669990D01*
X101690000Y-65840000D02*
X105519990Y-69669990D01*
X126930000Y-73650000D02*
X121300000Y-73650000D01*
X127800000Y-74520000D02*
X126930000Y-73650000D01*
X108972219Y-63300000D02*
X110232220Y-64560001D01*
X95900000Y-63300000D02*
X108972219Y-63300000D01*
X131690001Y-65990001D02*
X130260001Y-64560001D01*
X131690001Y-70088001D02*
X131690001Y-65990001D01*
X131610000Y-70168002D02*
X131690001Y-70088001D01*
X131610000Y-70710000D02*
X131610000Y-70168002D01*
X110232220Y-64560001D02*
X130260001Y-64560001D01*
X130340000Y-71980000D02*
X131610000Y-70710000D01*
X111540000Y-68380000D02*
X114420000Y-65500000D01*
X111140000Y-68380000D02*
X111540000Y-68380000D01*
X128940000Y-65500000D02*
X130340000Y-66900000D01*
X114420000Y-65500000D02*
X128940000Y-65500000D01*
X88400000Y-60750000D02*
X88400000Y-65850000D01*
X93530000Y-58220000D02*
X95900000Y-58220000D01*
X93250000Y-58500000D02*
X93530000Y-58220000D01*
X93250000Y-67750000D02*
X93250000Y-58500000D01*
X117780000Y-73140000D02*
X117460000Y-73460000D01*
X118970000Y-71980000D02*
X117810000Y-73140000D01*
X117460000Y-73460000D02*
X111140000Y-73460000D01*
X117810000Y-73140000D02*
X117780000Y-73140000D01*
X127800000Y-71980000D02*
X118970000Y-71980000D01*
X111140000Y-76000000D02*
X125150000Y-76000000D01*
X125150000Y-66900000D02*
X127800000Y-66900000D01*
X87300000Y-53200000D02*
X87350000Y-53150000D01*
X87300000Y-64550000D02*
X87300000Y-53200000D01*
X104410000Y-78540000D02*
X111140000Y-78540000D01*
X103100000Y-79850000D02*
X104410000Y-78540000D01*
X83549998Y-79850000D02*
X103100000Y-79850000D01*
X82499999Y-78800001D02*
X83549998Y-79850000D01*
X82499999Y-60300001D02*
X82499999Y-78800001D01*
X83850000Y-58950000D02*
X82499999Y-60300001D01*
D24*
G36*
X132740001Y-81040000D02*
G01*
X67110000Y-81040000D01*
X67110000Y-76848665D01*
X73215000Y-76848665D01*
X73215000Y-77131335D01*
X73270147Y-77408574D01*
X73378320Y-77669727D01*
X73535363Y-77904759D01*
X73735241Y-78104637D01*
X73970273Y-78261680D01*
X74231426Y-78369853D01*
X74508665Y-78425000D01*
X74791335Y-78425000D01*
X75068574Y-78369853D01*
X75329727Y-78261680D01*
X75564759Y-78104637D01*
X75764637Y-77904759D01*
X75921680Y-77669727D01*
X76029853Y-77408574D01*
X76085000Y-77131335D01*
X76085000Y-76848665D01*
X76029853Y-76571426D01*
X75921680Y-76310273D01*
X75764637Y-76075241D01*
X75564759Y-75875363D01*
X75329727Y-75718320D01*
X75068574Y-75610147D01*
X74791335Y-75555000D01*
X74508665Y-75555000D01*
X74231426Y-75610147D01*
X73970273Y-75718320D01*
X73735241Y-75875363D01*
X73535363Y-76075241D01*
X73378320Y-76310273D01*
X73270147Y-76571426D01*
X73215000Y-76848665D01*
X67110000Y-76848665D01*
X67110000Y-73599285D01*
X70480000Y-73599285D01*
X70480000Y-60183816D01*
X79475000Y-60183816D01*
X79475000Y-60486184D01*
X79533989Y-60782743D01*
X79649701Y-61062095D01*
X79817688Y-61313505D01*
X80031495Y-61527312D01*
X80282905Y-61695299D01*
X80342538Y-61720000D01*
X80282905Y-61744701D01*
X80031495Y-61912688D01*
X79817688Y-62126495D01*
X79649701Y-62377905D01*
X79533989Y-62657257D01*
X79475000Y-62953816D01*
X79475000Y-63256184D01*
X79533989Y-63552743D01*
X79649701Y-63832095D01*
X79817688Y-64083505D01*
X80031495Y-64297312D01*
X80282905Y-64465299D01*
X80342538Y-64490000D01*
X80282905Y-64514701D01*
X80031495Y-64682688D01*
X79817688Y-64896495D01*
X79649701Y-65147905D01*
X79533989Y-65427257D01*
X79475000Y-65723816D01*
X79475000Y-66026184D01*
X79533989Y-66322743D01*
X79649701Y-66602095D01*
X79817688Y-66853505D01*
X80031495Y-67067312D01*
X80282905Y-67235299D01*
X80342538Y-67260000D01*
X80282905Y-67284701D01*
X80031495Y-67452688D01*
X79817688Y-67666495D01*
X79649701Y-67917905D01*
X79533989Y-68197257D01*
X79475000Y-68493816D01*
X79475000Y-68796184D01*
X79533989Y-69092743D01*
X79649701Y-69372095D01*
X79817688Y-69623505D01*
X80031495Y-69837312D01*
X80282905Y-70005299D01*
X80562257Y-70121011D01*
X80858816Y-70180000D01*
X81161184Y-70180000D01*
X81457743Y-70121011D01*
X81615000Y-70055873D01*
X81615000Y-78756522D01*
X81610718Y-78800001D01*
X81627804Y-78973491D01*
X81678411Y-79140314D01*
X81760589Y-79294060D01*
X81843467Y-79395047D01*
X81843470Y-79395050D01*
X81871183Y-79428818D01*
X81904950Y-79456530D01*
X82893468Y-80445049D01*
X82921181Y-80478817D01*
X82954949Y-80506530D01*
X82954951Y-80506532D01*
X83055938Y-80589410D01*
X83055939Y-80589411D01*
X83209685Y-80671589D01*
X83376508Y-80722195D01*
X83506521Y-80735000D01*
X83506529Y-80735000D01*
X83549998Y-80739281D01*
X83593467Y-80735000D01*
X103056531Y-80735000D01*
X103100000Y-80739281D01*
X103143469Y-80735000D01*
X103143477Y-80735000D01*
X103273490Y-80722195D01*
X103440313Y-80671589D01*
X103594059Y-80589411D01*
X103728817Y-80478817D01*
X103756534Y-80445044D01*
X104776579Y-79425000D01*
X109609922Y-79425000D01*
X109720392Y-79559608D01*
X109938899Y-79738932D01*
X110188192Y-79872182D01*
X110458691Y-79954236D01*
X110669508Y-79975000D01*
X111610492Y-79975000D01*
X111821309Y-79954236D01*
X112091808Y-79872182D01*
X112341101Y-79738932D01*
X112559608Y-79559608D01*
X112573482Y-79542702D01*
X115836903Y-79542702D01*
X115908486Y-79786671D01*
X116163996Y-79907571D01*
X116438184Y-79976300D01*
X116720512Y-79990217D01*
X117000130Y-79948787D01*
X117266292Y-79853603D01*
X117391514Y-79786671D01*
X117463097Y-79542702D01*
X117413097Y-79492702D01*
X120486903Y-79492702D01*
X120558486Y-79736671D01*
X120813996Y-79857571D01*
X121088184Y-79926300D01*
X121370512Y-79940217D01*
X121650130Y-79898787D01*
X121916292Y-79803603D01*
X122041514Y-79736671D01*
X122113097Y-79492702D01*
X121300000Y-78679605D01*
X120486903Y-79492702D01*
X117413097Y-79492702D01*
X116650000Y-78729605D01*
X115836903Y-79542702D01*
X112573482Y-79542702D01*
X112738932Y-79341101D01*
X112872182Y-79091808D01*
X112954236Y-78821309D01*
X112974013Y-78620512D01*
X115209783Y-78620512D01*
X115251213Y-78900130D01*
X115346397Y-79166292D01*
X115413329Y-79291514D01*
X115657298Y-79363097D01*
X116470395Y-78550000D01*
X116829605Y-78550000D01*
X117642702Y-79363097D01*
X117886671Y-79291514D01*
X118007571Y-79036004D01*
X118076300Y-78761816D01*
X118085730Y-78570512D01*
X119859783Y-78570512D01*
X119901213Y-78850130D01*
X119996397Y-79116292D01*
X120063329Y-79241514D01*
X120307298Y-79313097D01*
X121120395Y-78500000D01*
X121479605Y-78500000D01*
X122292702Y-79313097D01*
X122536671Y-79241514D01*
X122657571Y-78986004D01*
X122726300Y-78711816D01*
X122740217Y-78429488D01*
X122698787Y-78149870D01*
X122603603Y-77883708D01*
X122536671Y-77758486D01*
X122292702Y-77686903D01*
X121479605Y-78500000D01*
X121120395Y-78500000D01*
X120307298Y-77686903D01*
X120063329Y-77758486D01*
X119942429Y-78013996D01*
X119873700Y-78288184D01*
X119859783Y-78570512D01*
X118085730Y-78570512D01*
X118090217Y-78479488D01*
X118048787Y-78199870D01*
X117953603Y-77933708D01*
X117886671Y-77808486D01*
X117642702Y-77736903D01*
X116829605Y-78550000D01*
X116470395Y-78550000D01*
X115657298Y-77736903D01*
X115413329Y-77808486D01*
X115292429Y-78063996D01*
X115223700Y-78338184D01*
X115209783Y-78620512D01*
X112974013Y-78620512D01*
X112981943Y-78540000D01*
X112954236Y-78258691D01*
X112872182Y-77988192D01*
X112738932Y-77738899D01*
X112589896Y-77557298D01*
X115836903Y-77557298D01*
X116650000Y-78370395D01*
X117463097Y-77557298D01*
X117448427Y-77507298D01*
X120486903Y-77507298D01*
X121300000Y-78320395D01*
X122113097Y-77507298D01*
X122041514Y-77263329D01*
X121786004Y-77142429D01*
X121511816Y-77073700D01*
X121229488Y-77059783D01*
X120949870Y-77101213D01*
X120683708Y-77196397D01*
X120558486Y-77263329D01*
X120486903Y-77507298D01*
X117448427Y-77507298D01*
X117391514Y-77313329D01*
X117136004Y-77192429D01*
X116861816Y-77123700D01*
X116579488Y-77109783D01*
X116299870Y-77151213D01*
X116033708Y-77246397D01*
X115908486Y-77313329D01*
X115836903Y-77557298D01*
X112589896Y-77557298D01*
X112559608Y-77520392D01*
X112341101Y-77341068D01*
X112208142Y-77270000D01*
X112341101Y-77198932D01*
X112559608Y-77019608D01*
X112670078Y-76885000D01*
X124611546Y-76885000D01*
X124659744Y-76917205D01*
X124848102Y-76995226D01*
X125048061Y-77035000D01*
X125251939Y-77035000D01*
X125451898Y-76995226D01*
X125640256Y-76917205D01*
X125809774Y-76803937D01*
X125953937Y-76659774D01*
X126062327Y-76497556D01*
X126142752Y-76540545D01*
X126286013Y-76584002D01*
X126333745Y-76588703D01*
X126323989Y-76612257D01*
X126265000Y-76908816D01*
X126265000Y-77211184D01*
X126323989Y-77507743D01*
X126439701Y-77787095D01*
X126607688Y-78038505D01*
X126821495Y-78252312D01*
X127072905Y-78420299D01*
X127352257Y-78536011D01*
X127648816Y-78595000D01*
X127951184Y-78595000D01*
X128247743Y-78536011D01*
X128527095Y-78420299D01*
X128778505Y-78252312D01*
X128906737Y-78124080D01*
X129455525Y-78124080D01*
X129539208Y-78378261D01*
X129811775Y-78509158D01*
X130104642Y-78584365D01*
X130406553Y-78600991D01*
X130705907Y-78558397D01*
X130991199Y-78458222D01*
X131140792Y-78378261D01*
X131224475Y-78124080D01*
X130340000Y-77239605D01*
X129455525Y-78124080D01*
X128906737Y-78124080D01*
X128992312Y-78038505D01*
X129094951Y-77884895D01*
X129275920Y-77944475D01*
X130160395Y-77060000D01*
X130519605Y-77060000D01*
X131404080Y-77944475D01*
X131658261Y-77860792D01*
X131789158Y-77588225D01*
X131864365Y-77295358D01*
X131880991Y-76993447D01*
X131838397Y-76694093D01*
X131738222Y-76408801D01*
X131658261Y-76259208D01*
X131404080Y-76175525D01*
X130519605Y-77060000D01*
X130160395Y-77060000D01*
X130146253Y-77045858D01*
X130325858Y-76866253D01*
X130340000Y-76880395D01*
X131224475Y-75995920D01*
X131164895Y-75814951D01*
X131318505Y-75712312D01*
X131532312Y-75498505D01*
X131700299Y-75247095D01*
X131816011Y-74967743D01*
X131875000Y-74671184D01*
X131875000Y-74368816D01*
X131816011Y-74072257D01*
X131700299Y-73792905D01*
X131532312Y-73541495D01*
X131318505Y-73327688D01*
X131202237Y-73250000D01*
X131318505Y-73172312D01*
X131532312Y-72958505D01*
X131700299Y-72707095D01*
X131816011Y-72427743D01*
X131875000Y-72131184D01*
X131875000Y-71828816D01*
X131853060Y-71718518D01*
X132205050Y-71366529D01*
X132238817Y-71338817D01*
X132349411Y-71204059D01*
X132431589Y-71050313D01*
X132482195Y-70883490D01*
X132495000Y-70753477D01*
X132495000Y-70753467D01*
X132499281Y-70710001D01*
X132495000Y-70666535D01*
X132495000Y-70459352D01*
X132511590Y-70428314D01*
X132562196Y-70261491D01*
X132575001Y-70131478D01*
X132575001Y-70131468D01*
X132579282Y-70088002D01*
X132575001Y-70044536D01*
X132575001Y-66033466D01*
X132579282Y-65990000D01*
X132575001Y-65946534D01*
X132575001Y-65946524D01*
X132562196Y-65816511D01*
X132511590Y-65649688D01*
X132429412Y-65495942D01*
X132391119Y-65449282D01*
X132346533Y-65394954D01*
X132346531Y-65394952D01*
X132318818Y-65361184D01*
X132285050Y-65333471D01*
X130916535Y-63964957D01*
X130888818Y-63931184D01*
X130754060Y-63820590D01*
X130600314Y-63738412D01*
X130433491Y-63687806D01*
X130303478Y-63675001D01*
X130303470Y-63675001D01*
X130260001Y-63670720D01*
X130216532Y-63675001D01*
X122680564Y-63675001D01*
X122735000Y-63401335D01*
X122735000Y-63118665D01*
X122679853Y-62841426D01*
X122571680Y-62580273D01*
X122414637Y-62345241D01*
X122214759Y-62145363D01*
X121979727Y-61988320D01*
X121718574Y-61880147D01*
X121441335Y-61825000D01*
X121158665Y-61825000D01*
X121123561Y-61831983D01*
X120356533Y-61064955D01*
X120328816Y-61031182D01*
X120194058Y-60920588D01*
X120040312Y-60838410D01*
X119873489Y-60787804D01*
X119743476Y-60774999D01*
X119743468Y-60774999D01*
X119699999Y-60770718D01*
X119656530Y-60774999D01*
X116646578Y-60774999D01*
X116359651Y-60488072D01*
X117550000Y-60488072D01*
X117674482Y-60475812D01*
X117794180Y-60439502D01*
X117904494Y-60380537D01*
X118001185Y-60301185D01*
X118080537Y-60204494D01*
X118139502Y-60094180D01*
X118175812Y-59974482D01*
X118188072Y-59850000D01*
X118188072Y-58150000D01*
X118175812Y-58025518D01*
X118139502Y-57905820D01*
X118080537Y-57795506D01*
X118001185Y-57698815D01*
X117904494Y-57619463D01*
X117794180Y-57560498D01*
X117725313Y-57539607D01*
X117755134Y-57515134D01*
X117894759Y-57345000D01*
X120114207Y-57345000D01*
X120294866Y-57565134D01*
X120324687Y-57589607D01*
X120255820Y-57610498D01*
X120145506Y-57669463D01*
X120048815Y-57748815D01*
X119969463Y-57845506D01*
X119910498Y-57955820D01*
X119874188Y-58075518D01*
X119861928Y-58200000D01*
X119861928Y-59900000D01*
X119874188Y-60024482D01*
X119910498Y-60144180D01*
X119969463Y-60254494D01*
X120048815Y-60351185D01*
X120145506Y-60430537D01*
X120255820Y-60489502D01*
X120375518Y-60525812D01*
X120500000Y-60538072D01*
X122200000Y-60538072D01*
X122324482Y-60525812D01*
X122444180Y-60489502D01*
X122554494Y-60430537D01*
X122651185Y-60351185D01*
X122730537Y-60254494D01*
X122789502Y-60144180D01*
X122825812Y-60024482D01*
X122838072Y-59900000D01*
X122838072Y-58200000D01*
X122825812Y-58075518D01*
X122789502Y-57955820D01*
X122730537Y-57845506D01*
X122651185Y-57748815D01*
X122554494Y-57669463D01*
X122444180Y-57610498D01*
X122375313Y-57589607D01*
X122405134Y-57565134D01*
X122590706Y-57339014D01*
X122728599Y-57081034D01*
X122813513Y-56801111D01*
X122842185Y-56510000D01*
X122813513Y-56218889D01*
X122728599Y-55938966D01*
X122590706Y-55680986D01*
X122552966Y-55635000D01*
X128561546Y-55635000D01*
X128609744Y-55667205D01*
X128798102Y-55745226D01*
X128998061Y-55785000D01*
X129201939Y-55785000D01*
X129401898Y-55745226D01*
X129590256Y-55667205D01*
X129759774Y-55553937D01*
X129903937Y-55409774D01*
X130017205Y-55240256D01*
X130095226Y-55051898D01*
X130135000Y-54851939D01*
X130135000Y-54648061D01*
X130095226Y-54448102D01*
X130017205Y-54259744D01*
X129903937Y-54090226D01*
X129759774Y-53946063D01*
X129590256Y-53832795D01*
X129401898Y-53754774D01*
X129201939Y-53715000D01*
X128998061Y-53715000D01*
X128798102Y-53754774D01*
X128609744Y-53832795D01*
X128561546Y-53865000D01*
X126748711Y-53865000D01*
X126803937Y-53809774D01*
X126917205Y-53640256D01*
X126995226Y-53451898D01*
X127035000Y-53251939D01*
X127035000Y-53048061D01*
X126995226Y-52848102D01*
X126917205Y-52659744D01*
X126803937Y-52490226D01*
X126659774Y-52346063D01*
X126490256Y-52232795D01*
X126301898Y-52154774D01*
X126101939Y-52115000D01*
X125898061Y-52115000D01*
X125698102Y-52154774D01*
X125509744Y-52232795D01*
X125476512Y-52255000D01*
X112670078Y-52255000D01*
X112559608Y-52120392D01*
X112341101Y-51941068D01*
X112208142Y-51870000D01*
X112341101Y-51798932D01*
X112559608Y-51619608D01*
X112738932Y-51401101D01*
X112872182Y-51151808D01*
X112954236Y-50881309D01*
X112981943Y-50600000D01*
X112954236Y-50318691D01*
X112872182Y-50048192D01*
X112738932Y-49798899D01*
X112559608Y-49580392D01*
X112341101Y-49401068D01*
X112091808Y-49267818D01*
X111821309Y-49185764D01*
X111610492Y-49165000D01*
X110669508Y-49165000D01*
X110458691Y-49185764D01*
X110188192Y-49267818D01*
X109938899Y-49401068D01*
X109720392Y-49580392D01*
X109541068Y-49798899D01*
X109407818Y-50048192D01*
X109325764Y-50318691D01*
X109298057Y-50600000D01*
X109325764Y-50881309D01*
X109407818Y-51151808D01*
X109541068Y-51401101D01*
X109720392Y-51619608D01*
X109938899Y-51798932D01*
X110071858Y-51870000D01*
X109938899Y-51941068D01*
X109720392Y-52120392D01*
X109541068Y-52338899D01*
X109407818Y-52588192D01*
X109325764Y-52858691D01*
X109298057Y-53140000D01*
X109325764Y-53421309D01*
X109407818Y-53691808D01*
X109541068Y-53941101D01*
X109720392Y-54159608D01*
X109938899Y-54338932D01*
X110071858Y-54410000D01*
X109938899Y-54481068D01*
X109720392Y-54660392D01*
X109541068Y-54878899D01*
X109407818Y-55128192D01*
X109325764Y-55398691D01*
X109298057Y-55680000D01*
X109325764Y-55961309D01*
X109349277Y-56038823D01*
X109340256Y-56032795D01*
X109151898Y-55954774D01*
X108951939Y-55915000D01*
X108748061Y-55915000D01*
X108548102Y-55954774D01*
X108359744Y-56032795D01*
X108190226Y-56146063D01*
X108046063Y-56290226D01*
X107932795Y-56459744D01*
X107854774Y-56648102D01*
X107815000Y-56848061D01*
X107815000Y-57051939D01*
X107854774Y-57251898D01*
X107932795Y-57440256D01*
X107965000Y-57488455D01*
X107965001Y-61366521D01*
X107960719Y-61410000D01*
X107977805Y-61583490D01*
X108028412Y-61750313D01*
X108110590Y-61904059D01*
X108193468Y-62005046D01*
X108193471Y-62005049D01*
X108221184Y-62038817D01*
X108254951Y-62066529D01*
X108603422Y-62415000D01*
X107848377Y-62415000D01*
X107895226Y-62301898D01*
X107935000Y-62101939D01*
X107935000Y-61898061D01*
X107895226Y-61698102D01*
X107817205Y-61509744D01*
X107785000Y-61461546D01*
X107785000Y-51088454D01*
X107817205Y-51040256D01*
X107895226Y-50851898D01*
X107935000Y-50651939D01*
X107935000Y-50448061D01*
X107895226Y-50248102D01*
X107817205Y-50059744D01*
X107703937Y-49890226D01*
X107559774Y-49746063D01*
X107390256Y-49632795D01*
X107201898Y-49554774D01*
X107001939Y-49515000D01*
X106798061Y-49515000D01*
X106598102Y-49554774D01*
X106409744Y-49632795D01*
X106240226Y-49746063D01*
X106096063Y-49890226D01*
X105982795Y-50059744D01*
X105904774Y-50248102D01*
X105865000Y-50448061D01*
X105865000Y-50651939D01*
X105904774Y-50851898D01*
X105982795Y-51040256D01*
X106015001Y-51088456D01*
X106015000Y-61461546D01*
X105982795Y-61509744D01*
X105904774Y-61698102D01*
X105865000Y-61898061D01*
X105865000Y-62101939D01*
X105904774Y-62301898D01*
X105951623Y-62415000D01*
X97430078Y-62415000D01*
X97319608Y-62280392D01*
X97101101Y-62101068D01*
X96968142Y-62030000D01*
X97101101Y-61958932D01*
X97319608Y-61779608D01*
X97498932Y-61561101D01*
X97632182Y-61311808D01*
X97714236Y-61041309D01*
X97741943Y-60760000D01*
X97714236Y-60478691D01*
X97632182Y-60208192D01*
X97498932Y-59958899D01*
X97319608Y-59740392D01*
X97101101Y-59561068D01*
X96968142Y-59490000D01*
X97101101Y-59418932D01*
X97319608Y-59239608D01*
X97498932Y-59021101D01*
X97632182Y-58771808D01*
X97714236Y-58501309D01*
X97741943Y-58220000D01*
X97714236Y-57938691D01*
X97632182Y-57668192D01*
X97498932Y-57418899D01*
X97319608Y-57200392D01*
X97101101Y-57021068D01*
X96968142Y-56950000D01*
X97101101Y-56878932D01*
X97319608Y-56699608D01*
X97498932Y-56481101D01*
X97632182Y-56231808D01*
X97714236Y-55961309D01*
X97741943Y-55680000D01*
X97714236Y-55398691D01*
X97632182Y-55128192D01*
X97498932Y-54878899D01*
X97319608Y-54660392D01*
X97101101Y-54481068D01*
X96968142Y-54410000D01*
X97101101Y-54338932D01*
X97319608Y-54159608D01*
X97498932Y-53941101D01*
X97632182Y-53691808D01*
X97714236Y-53421309D01*
X97741943Y-53140000D01*
X97714236Y-52858691D01*
X97632182Y-52588192D01*
X97498932Y-52338899D01*
X97319608Y-52120392D01*
X97206518Y-52027581D01*
X97224482Y-52025812D01*
X97344180Y-51989502D01*
X97454494Y-51930537D01*
X97551185Y-51851185D01*
X97630537Y-51754494D01*
X97689502Y-51644180D01*
X97725812Y-51524482D01*
X97738072Y-51400000D01*
X97738072Y-49800000D01*
X97725812Y-49675518D01*
X97689502Y-49555820D01*
X97630537Y-49445506D01*
X97551185Y-49348815D01*
X97454494Y-49269463D01*
X97344180Y-49210498D01*
X97224482Y-49174188D01*
X97100000Y-49161928D01*
X94700000Y-49161928D01*
X94575518Y-49174188D01*
X94455820Y-49210498D01*
X94345506Y-49269463D01*
X94248815Y-49348815D01*
X94169463Y-49445506D01*
X94110498Y-49555820D01*
X94074188Y-49675518D01*
X94061928Y-49800000D01*
X94061928Y-51400000D01*
X94074188Y-51524482D01*
X94110498Y-51644180D01*
X94169463Y-51754494D01*
X94248815Y-51851185D01*
X94345506Y-51930537D01*
X94455820Y-51989502D01*
X94575518Y-52025812D01*
X94593482Y-52027581D01*
X94480392Y-52120392D01*
X94301068Y-52338899D01*
X94167818Y-52588192D01*
X94085764Y-52858691D01*
X94058057Y-53140000D01*
X94085764Y-53421309D01*
X94167818Y-53691808D01*
X94301068Y-53941101D01*
X94480392Y-54159608D01*
X94698899Y-54338932D01*
X94831858Y-54410000D01*
X94698899Y-54481068D01*
X94480392Y-54660392D01*
X94301068Y-54878899D01*
X94167818Y-55128192D01*
X94085764Y-55398691D01*
X94058057Y-55680000D01*
X94085764Y-55961309D01*
X94167818Y-56231808D01*
X94301068Y-56481101D01*
X94480392Y-56699608D01*
X94698899Y-56878932D01*
X94831858Y-56950000D01*
X94698899Y-57021068D01*
X94480392Y-57200392D01*
X94369922Y-57335000D01*
X93573469Y-57335000D01*
X93530000Y-57330719D01*
X93486531Y-57335000D01*
X93486523Y-57335000D01*
X93356510Y-57347805D01*
X93189687Y-57398411D01*
X93035941Y-57480589D01*
X92901183Y-57591183D01*
X92873466Y-57624956D01*
X92654952Y-57843470D01*
X92621184Y-57871183D01*
X92593471Y-57904951D01*
X92593468Y-57904954D01*
X92510590Y-58005941D01*
X92428412Y-58159687D01*
X92377805Y-58326510D01*
X92360719Y-58500000D01*
X92365001Y-58543479D01*
X92365000Y-67211546D01*
X92332795Y-67259744D01*
X92254774Y-67448102D01*
X92215000Y-67648061D01*
X92215000Y-67851939D01*
X92254774Y-68051898D01*
X92332795Y-68240256D01*
X92446063Y-68409774D01*
X92590226Y-68553937D01*
X92759744Y-68667205D01*
X92948102Y-68745226D01*
X93148061Y-68785000D01*
X93351939Y-68785000D01*
X93551898Y-68745226D01*
X93740256Y-68667205D01*
X93909774Y-68553937D01*
X94053937Y-68409774D01*
X94060084Y-68400575D01*
X94085764Y-68661309D01*
X94167818Y-68931808D01*
X94301068Y-69181101D01*
X94480392Y-69399608D01*
X94698899Y-69578932D01*
X94831858Y-69650000D01*
X94698899Y-69721068D01*
X94480392Y-69900392D01*
X94301068Y-70118899D01*
X94167818Y-70368192D01*
X94085764Y-70638691D01*
X94058057Y-70920000D01*
X94085764Y-71201309D01*
X94167818Y-71471808D01*
X94301068Y-71721101D01*
X94480392Y-71939608D01*
X94698899Y-72118932D01*
X94831858Y-72190000D01*
X94698899Y-72261068D01*
X94480392Y-72440392D01*
X94301068Y-72658899D01*
X94167818Y-72908192D01*
X94085764Y-73178691D01*
X94058057Y-73460000D01*
X94085764Y-73741309D01*
X94167818Y-74011808D01*
X94301068Y-74261101D01*
X94480392Y-74479608D01*
X94698899Y-74658932D01*
X94831858Y-74730000D01*
X94698899Y-74801068D01*
X94480392Y-74980392D01*
X94301068Y-75198899D01*
X94167818Y-75448192D01*
X94085764Y-75718691D01*
X94058057Y-76000000D01*
X94085764Y-76281309D01*
X94167818Y-76551808D01*
X94301068Y-76801101D01*
X94480392Y-77019608D01*
X94698899Y-77198932D01*
X94826741Y-77267265D01*
X94597161Y-77417399D01*
X94395500Y-77615105D01*
X94236285Y-77848354D01*
X94125633Y-78108182D01*
X94108096Y-78190961D01*
X94230085Y-78413000D01*
X95773000Y-78413000D01*
X95773000Y-78393000D01*
X96027000Y-78393000D01*
X96027000Y-78413000D01*
X97569915Y-78413000D01*
X97691904Y-78190961D01*
X97674367Y-78108182D01*
X97563715Y-77848354D01*
X97404500Y-77615105D01*
X97202839Y-77417399D01*
X96973259Y-77267265D01*
X97101101Y-77198932D01*
X97319608Y-77019608D01*
X97498932Y-76801101D01*
X97632182Y-76551808D01*
X97714236Y-76281309D01*
X97741943Y-76000000D01*
X97714236Y-75718691D01*
X97632182Y-75448192D01*
X97498932Y-75198899D01*
X97319608Y-74980392D01*
X97101101Y-74801068D01*
X96968142Y-74730000D01*
X97101101Y-74658932D01*
X97319608Y-74479608D01*
X97498932Y-74261101D01*
X97632182Y-74011808D01*
X97714236Y-73741309D01*
X97741943Y-73460000D01*
X97714236Y-73178691D01*
X97632182Y-72908192D01*
X97498932Y-72658899D01*
X97319608Y-72440392D01*
X97101101Y-72261068D01*
X96968142Y-72190000D01*
X97101101Y-72118932D01*
X97319608Y-71939608D01*
X97498932Y-71721101D01*
X97632182Y-71471808D01*
X97714236Y-71201309D01*
X97741943Y-70920000D01*
X97714236Y-70638691D01*
X97632182Y-70368192D01*
X97498932Y-70118899D01*
X97319608Y-69900392D01*
X97101101Y-69721068D01*
X96968142Y-69650000D01*
X97101101Y-69578932D01*
X97319608Y-69399608D01*
X97498932Y-69181101D01*
X97632182Y-68931808D01*
X97714236Y-68661309D01*
X97741943Y-68380000D01*
X97714236Y-68098691D01*
X97632182Y-67828192D01*
X97498932Y-67578899D01*
X97319608Y-67360392D01*
X97101101Y-67181068D01*
X96968142Y-67110000D01*
X97101101Y-67038932D01*
X97319608Y-66859608D01*
X97430078Y-66725000D01*
X101323422Y-66725000D01*
X104863460Y-70265039D01*
X104891173Y-70298807D01*
X104924941Y-70326520D01*
X104924943Y-70326522D01*
X104943184Y-70341492D01*
X105025931Y-70409401D01*
X105179677Y-70491579D01*
X105346500Y-70542185D01*
X105476513Y-70554990D01*
X105476521Y-70554990D01*
X105519990Y-70559271D01*
X105563459Y-70554990D01*
X109351154Y-70554990D01*
X109325764Y-70638691D01*
X109298057Y-70920000D01*
X109325764Y-71201309D01*
X109407818Y-71471808D01*
X109541068Y-71721101D01*
X109720392Y-71939608D01*
X109938899Y-72118932D01*
X110071858Y-72190000D01*
X109938899Y-72261068D01*
X109720392Y-72440392D01*
X109541068Y-72658899D01*
X109407818Y-72908192D01*
X109325764Y-73178691D01*
X109298057Y-73460000D01*
X109325764Y-73741309D01*
X109363285Y-73865000D01*
X103266579Y-73865000D01*
X102855000Y-73453422D01*
X102855000Y-71458454D01*
X102887205Y-71410256D01*
X102965226Y-71221898D01*
X103005000Y-71021939D01*
X103005000Y-70818061D01*
X102965226Y-70618102D01*
X102887205Y-70429744D01*
X102773937Y-70260226D01*
X102629774Y-70116063D01*
X102460256Y-70002795D01*
X102271898Y-69924774D01*
X102071939Y-69885000D01*
X101868061Y-69885000D01*
X101668102Y-69924774D01*
X101479744Y-70002795D01*
X101310226Y-70116063D01*
X101166063Y-70260226D01*
X101052795Y-70429744D01*
X100974774Y-70618102D01*
X100935000Y-70818061D01*
X100935000Y-71021939D01*
X100974774Y-71221898D01*
X101052795Y-71410256D01*
X101085000Y-71458455D01*
X101085001Y-73776521D01*
X101080719Y-73820000D01*
X101097805Y-73993490D01*
X101148412Y-74160313D01*
X101230590Y-74314059D01*
X101313468Y-74415046D01*
X101313471Y-74415049D01*
X101341184Y-74448817D01*
X101374951Y-74476529D01*
X102243470Y-75345049D01*
X102271183Y-75378817D01*
X102304951Y-75406530D01*
X102304953Y-75406532D01*
X102405941Y-75489411D01*
X102559686Y-75571589D01*
X102689085Y-75610842D01*
X102726510Y-75622195D01*
X102856523Y-75635000D01*
X102856531Y-75635000D01*
X102900000Y-75639281D01*
X102943469Y-75635000D01*
X109351151Y-75635000D01*
X109325764Y-75718691D01*
X109298057Y-76000000D01*
X109325764Y-76281309D01*
X109407818Y-76551808D01*
X109541068Y-76801101D01*
X109720392Y-77019608D01*
X109938899Y-77198932D01*
X110071858Y-77270000D01*
X109938899Y-77341068D01*
X109720392Y-77520392D01*
X109609922Y-77655000D01*
X104453469Y-77655000D01*
X104410000Y-77650719D01*
X104366531Y-77655000D01*
X104366523Y-77655000D01*
X104236510Y-77667805D01*
X104069687Y-77718411D01*
X103941187Y-77787095D01*
X103915941Y-77800589D01*
X103814953Y-77883468D01*
X103814951Y-77883470D01*
X103781183Y-77911183D01*
X103753470Y-77944951D01*
X102733422Y-78965000D01*
X97675811Y-78965000D01*
X97691904Y-78889039D01*
X97569915Y-78667000D01*
X96027000Y-78667000D01*
X96027000Y-78687000D01*
X95773000Y-78687000D01*
X95773000Y-78667000D01*
X94230085Y-78667000D01*
X94108096Y-78889039D01*
X94124189Y-78965000D01*
X92336071Y-78965000D01*
X92335000Y-78785750D01*
X92176250Y-78627000D01*
X91027000Y-78627000D01*
X91027000Y-78647000D01*
X90773000Y-78647000D01*
X90773000Y-78627000D01*
X89623750Y-78627000D01*
X89465000Y-78785750D01*
X89463929Y-78965000D01*
X83916577Y-78965000D01*
X83384999Y-78433423D01*
X83384999Y-72157404D01*
X89015000Y-72157404D01*
X89015001Y-76092597D01*
X89042276Y-76369524D01*
X89150062Y-76724848D01*
X89325098Y-77052317D01*
X89560656Y-77339345D01*
X89569067Y-77346247D01*
X89510498Y-77455820D01*
X89474188Y-77575518D01*
X89461928Y-77700000D01*
X89465000Y-78214250D01*
X89623750Y-78373000D01*
X90773000Y-78373000D01*
X90773000Y-78353000D01*
X91027000Y-78353000D01*
X91027000Y-78373000D01*
X92176250Y-78373000D01*
X92335000Y-78214250D01*
X92338072Y-77700000D01*
X92325812Y-77575518D01*
X92289502Y-77455820D01*
X92230934Y-77346248D01*
X92239345Y-77339345D01*
X92474903Y-77052317D01*
X92649939Y-76724848D01*
X92757725Y-76369524D01*
X92785000Y-76092597D01*
X92785000Y-72157403D01*
X92757725Y-71880476D01*
X92649939Y-71525152D01*
X92474903Y-71197683D01*
X92370803Y-71070836D01*
X92330537Y-70995506D01*
X92251185Y-70898815D01*
X92154494Y-70819463D01*
X92079164Y-70779197D01*
X92036573Y-70744244D01*
X92092312Y-70688505D01*
X92260299Y-70437095D01*
X92376011Y-70157743D01*
X92435000Y-69861184D01*
X92435000Y-69558816D01*
X92376011Y-69262257D01*
X92260299Y-68982905D01*
X92092312Y-68731495D01*
X91878505Y-68517688D01*
X91785000Y-68455210D01*
X91785000Y-66924521D01*
X91814759Y-66904637D01*
X92014637Y-66704759D01*
X92171680Y-66469727D01*
X92279853Y-66208574D01*
X92335000Y-65931335D01*
X92335000Y-65648665D01*
X92279853Y-65371426D01*
X92171680Y-65110273D01*
X92014637Y-64875241D01*
X91814759Y-64675363D01*
X91579727Y-64518320D01*
X91318574Y-64410147D01*
X91041335Y-64355000D01*
X90758665Y-64355000D01*
X90481426Y-64410147D01*
X90220273Y-64518320D01*
X89985241Y-64675363D01*
X89785363Y-64875241D01*
X89628320Y-65110273D01*
X89520147Y-65371426D01*
X89465000Y-65648665D01*
X89465000Y-65931335D01*
X89520147Y-66208574D01*
X89628320Y-66469727D01*
X89785363Y-66704759D01*
X89985241Y-66904637D01*
X90015000Y-66924521D01*
X90015001Y-68455209D01*
X89921495Y-68517688D01*
X89707688Y-68731495D01*
X89539701Y-68982905D01*
X89423989Y-69262257D01*
X89365000Y-69558816D01*
X89365000Y-69861184D01*
X89423989Y-70157743D01*
X89539701Y-70437095D01*
X89707688Y-70688505D01*
X89763427Y-70744244D01*
X89720836Y-70779197D01*
X89645506Y-70819463D01*
X89548815Y-70898815D01*
X89469463Y-70995506D01*
X89429197Y-71070836D01*
X89325097Y-71197683D01*
X89150061Y-71525153D01*
X89042275Y-71880477D01*
X89015000Y-72157404D01*
X83384999Y-72157404D01*
X83384999Y-71498862D01*
X83402257Y-71506011D01*
X83698816Y-71565000D01*
X84001184Y-71565000D01*
X84297743Y-71506011D01*
X84577095Y-71390299D01*
X84828505Y-71222312D01*
X85042312Y-71008505D01*
X85210299Y-70757095D01*
X85326011Y-70477743D01*
X85385000Y-70181184D01*
X85385000Y-69878816D01*
X85326011Y-69582257D01*
X85210299Y-69302905D01*
X85042312Y-69051495D01*
X84828505Y-68837688D01*
X84577095Y-68669701D01*
X84517462Y-68645000D01*
X84577095Y-68620299D01*
X84828505Y-68452312D01*
X85042312Y-68238505D01*
X85210299Y-67987095D01*
X85326011Y-67707743D01*
X85385000Y-67411184D01*
X85385000Y-67108816D01*
X85326011Y-66812257D01*
X85210299Y-66532905D01*
X85042312Y-66281495D01*
X84828505Y-66067688D01*
X84577095Y-65899701D01*
X84517462Y-65875000D01*
X84577095Y-65850299D01*
X84828505Y-65682312D01*
X85042312Y-65468505D01*
X85210299Y-65217095D01*
X85326011Y-64937743D01*
X85385000Y-64641184D01*
X85385000Y-64448061D01*
X86265000Y-64448061D01*
X86265000Y-64651939D01*
X86304774Y-64851898D01*
X86382795Y-65040256D01*
X86496063Y-65209774D01*
X86640226Y-65353937D01*
X86809744Y-65467205D01*
X86998102Y-65545226D01*
X87198061Y-65585000D01*
X87397435Y-65585000D01*
X87365000Y-65748061D01*
X87365000Y-65951939D01*
X87404774Y-66151898D01*
X87482795Y-66340256D01*
X87596063Y-66509774D01*
X87740226Y-66653937D01*
X87909744Y-66767205D01*
X88098102Y-66845226D01*
X88298061Y-66885000D01*
X88501939Y-66885000D01*
X88701898Y-66845226D01*
X88890256Y-66767205D01*
X89059774Y-66653937D01*
X89203937Y-66509774D01*
X89317205Y-66340256D01*
X89395226Y-66151898D01*
X89435000Y-65951939D01*
X89435000Y-65748061D01*
X89395226Y-65548102D01*
X89317205Y-65359744D01*
X89285000Y-65311546D01*
X89285000Y-61288454D01*
X89317205Y-61240256D01*
X89395226Y-61051898D01*
X89435000Y-60851939D01*
X89435000Y-60648061D01*
X89395226Y-60448102D01*
X89317205Y-60259744D01*
X89203937Y-60090226D01*
X89059774Y-59946063D01*
X88890256Y-59832795D01*
X88701898Y-59754774D01*
X88501939Y-59715000D01*
X88298061Y-59715000D01*
X88185000Y-59737489D01*
X88185000Y-53763285D01*
X88267205Y-53640256D01*
X88345226Y-53451898D01*
X88385000Y-53251939D01*
X88385000Y-53048061D01*
X88345226Y-52848102D01*
X88267205Y-52659744D01*
X88153937Y-52490226D01*
X88009774Y-52346063D01*
X87840256Y-52232795D01*
X87651898Y-52154774D01*
X87451939Y-52115000D01*
X87248061Y-52115000D01*
X87048102Y-52154774D01*
X86859744Y-52232795D01*
X86690226Y-52346063D01*
X86546063Y-52490226D01*
X86432795Y-52659744D01*
X86354774Y-52848102D01*
X86315000Y-53048061D01*
X86315000Y-53251939D01*
X86354774Y-53451898D01*
X86415001Y-53597298D01*
X86415000Y-64011546D01*
X86382795Y-64059744D01*
X86304774Y-64248102D01*
X86265000Y-64448061D01*
X85385000Y-64448061D01*
X85385000Y-64338816D01*
X85326011Y-64042257D01*
X85210299Y-63762905D01*
X85042312Y-63511495D01*
X84828505Y-63297688D01*
X84577095Y-63129701D01*
X84517462Y-63105000D01*
X84577095Y-63080299D01*
X84828505Y-62912312D01*
X85042312Y-62698505D01*
X85210299Y-62447095D01*
X85326011Y-62167743D01*
X85385000Y-61871184D01*
X85385000Y-61568816D01*
X85326011Y-61272257D01*
X85210299Y-60992905D01*
X85042312Y-60741495D01*
X84828505Y-60527688D01*
X84577095Y-60359701D01*
X84517462Y-60335000D01*
X84577095Y-60310299D01*
X84828505Y-60142312D01*
X85042312Y-59928505D01*
X85210299Y-59677095D01*
X85326011Y-59397743D01*
X85385000Y-59101184D01*
X85385000Y-58798816D01*
X85326011Y-58502257D01*
X85210299Y-58222905D01*
X85042312Y-57971495D01*
X84828505Y-57757688D01*
X84577095Y-57589701D01*
X84297743Y-57473989D01*
X84001184Y-57415000D01*
X83698816Y-57415000D01*
X83402257Y-57473989D01*
X83122905Y-57589701D01*
X82871495Y-57757688D01*
X82657688Y-57971495D01*
X82489701Y-58222905D01*
X82373989Y-58502257D01*
X82315000Y-58798816D01*
X82315000Y-59101184D01*
X82336940Y-59211482D01*
X82197119Y-59351302D01*
X81988505Y-59142688D01*
X81737095Y-58974701D01*
X81457743Y-58858989D01*
X81161184Y-58800000D01*
X80858816Y-58800000D01*
X80562257Y-58858989D01*
X80282905Y-58974701D01*
X80031495Y-59142688D01*
X79817688Y-59356495D01*
X79649701Y-59607905D01*
X79533989Y-59887257D01*
X79475000Y-60183816D01*
X70480000Y-60183816D01*
X70480000Y-54100714D01*
X67110000Y-54100714D01*
X67110000Y-51848665D01*
X73215000Y-51848665D01*
X73215000Y-52131335D01*
X73270147Y-52408574D01*
X73378320Y-52669727D01*
X73535363Y-52904759D01*
X73735241Y-53104637D01*
X73970273Y-53261680D01*
X74231426Y-53369853D01*
X74508665Y-53425000D01*
X74791335Y-53425000D01*
X75068574Y-53369853D01*
X75329727Y-53261680D01*
X75564759Y-53104637D01*
X75764637Y-52904759D01*
X75921680Y-52669727D01*
X76029853Y-52408574D01*
X76085000Y-52131335D01*
X76085000Y-51848665D01*
X76029853Y-51571426D01*
X75921680Y-51310273D01*
X75764637Y-51075241D01*
X75651202Y-50961806D01*
X89111801Y-50961806D01*
X89226500Y-51302754D01*
X89405511Y-51614774D01*
X89641954Y-51885875D01*
X89926743Y-52105639D01*
X90248934Y-52265621D01*
X90488195Y-52338195D01*
X90773000Y-52221432D01*
X90773000Y-50677000D01*
X91027000Y-50677000D01*
X91027000Y-52221432D01*
X91311805Y-52338195D01*
X91551066Y-52265621D01*
X91873257Y-52105639D01*
X92158046Y-51885875D01*
X92394489Y-51614774D01*
X92573500Y-51302754D01*
X92688199Y-50961806D01*
X92571854Y-50677000D01*
X91027000Y-50677000D01*
X90773000Y-50677000D01*
X89228146Y-50677000D01*
X89111801Y-50961806D01*
X75651202Y-50961806D01*
X75564759Y-50875363D01*
X75329727Y-50718320D01*
X75068574Y-50610147D01*
X74791335Y-50555000D01*
X74508665Y-50555000D01*
X74231426Y-50610147D01*
X73970273Y-50718320D01*
X73735241Y-50875363D01*
X73535363Y-51075241D01*
X73378320Y-51310273D01*
X73270147Y-51571426D01*
X73215000Y-51848665D01*
X67110000Y-51848665D01*
X67110000Y-50138194D01*
X89111801Y-50138194D01*
X89228146Y-50423000D01*
X90773000Y-50423000D01*
X90773000Y-48878568D01*
X91027000Y-48878568D01*
X91027000Y-50423000D01*
X92571854Y-50423000D01*
X92688199Y-50138194D01*
X92573500Y-49797246D01*
X92394489Y-49485226D01*
X92158046Y-49214125D01*
X91873257Y-48994361D01*
X91551066Y-48834379D01*
X91311805Y-48761805D01*
X91027000Y-48878568D01*
X90773000Y-48878568D01*
X90488195Y-48761805D01*
X90248934Y-48834379D01*
X89926743Y-48994361D01*
X89641954Y-49214125D01*
X89405511Y-49485226D01*
X89226500Y-49797246D01*
X89111801Y-50138194D01*
X67110000Y-50138194D01*
X67110000Y-47910000D01*
X132740000Y-47910000D01*
X132740001Y-81040000D01*
X132740001Y-81040000D01*
G37*
X132740001Y-81040000D02*
X67110000Y-81040000D01*
X67110000Y-76848665D01*
X73215000Y-76848665D01*
X73215000Y-77131335D01*
X73270147Y-77408574D01*
X73378320Y-77669727D01*
X73535363Y-77904759D01*
X73735241Y-78104637D01*
X73970273Y-78261680D01*
X74231426Y-78369853D01*
X74508665Y-78425000D01*
X74791335Y-78425000D01*
X75068574Y-78369853D01*
X75329727Y-78261680D01*
X75564759Y-78104637D01*
X75764637Y-77904759D01*
X75921680Y-77669727D01*
X76029853Y-77408574D01*
X76085000Y-77131335D01*
X76085000Y-76848665D01*
X76029853Y-76571426D01*
X75921680Y-76310273D01*
X75764637Y-76075241D01*
X75564759Y-75875363D01*
X75329727Y-75718320D01*
X75068574Y-75610147D01*
X74791335Y-75555000D01*
X74508665Y-75555000D01*
X74231426Y-75610147D01*
X73970273Y-75718320D01*
X73735241Y-75875363D01*
X73535363Y-76075241D01*
X73378320Y-76310273D01*
X73270147Y-76571426D01*
X73215000Y-76848665D01*
X67110000Y-76848665D01*
X67110000Y-73599285D01*
X70480000Y-73599285D01*
X70480000Y-60183816D01*
X79475000Y-60183816D01*
X79475000Y-60486184D01*
X79533989Y-60782743D01*
X79649701Y-61062095D01*
X79817688Y-61313505D01*
X80031495Y-61527312D01*
X80282905Y-61695299D01*
X80342538Y-61720000D01*
X80282905Y-61744701D01*
X80031495Y-61912688D01*
X79817688Y-62126495D01*
X79649701Y-62377905D01*
X79533989Y-62657257D01*
X79475000Y-62953816D01*
X79475000Y-63256184D01*
X79533989Y-63552743D01*
X79649701Y-63832095D01*
X79817688Y-64083505D01*
X80031495Y-64297312D01*
X80282905Y-64465299D01*
X80342538Y-64490000D01*
X80282905Y-64514701D01*
X80031495Y-64682688D01*
X79817688Y-64896495D01*
X79649701Y-65147905D01*
X79533989Y-65427257D01*
X79475000Y-65723816D01*
X79475000Y-66026184D01*
X79533989Y-66322743D01*
X79649701Y-66602095D01*
X79817688Y-66853505D01*
X80031495Y-67067312D01*
X80282905Y-67235299D01*
X80342538Y-67260000D01*
X80282905Y-67284701D01*
X80031495Y-67452688D01*
X79817688Y-67666495D01*
X79649701Y-67917905D01*
X79533989Y-68197257D01*
X79475000Y-68493816D01*
X79475000Y-68796184D01*
X79533989Y-69092743D01*
X79649701Y-69372095D01*
X79817688Y-69623505D01*
X80031495Y-69837312D01*
X80282905Y-70005299D01*
X80562257Y-70121011D01*
X80858816Y-70180000D01*
X81161184Y-70180000D01*
X81457743Y-70121011D01*
X81615000Y-70055873D01*
X81615000Y-78756522D01*
X81610718Y-78800001D01*
X81627804Y-78973491D01*
X81678411Y-79140314D01*
X81760589Y-79294060D01*
X81843467Y-79395047D01*
X81843470Y-79395050D01*
X81871183Y-79428818D01*
X81904950Y-79456530D01*
X82893468Y-80445049D01*
X82921181Y-80478817D01*
X82954949Y-80506530D01*
X82954951Y-80506532D01*
X83055938Y-80589410D01*
X83055939Y-80589411D01*
X83209685Y-80671589D01*
X83376508Y-80722195D01*
X83506521Y-80735000D01*
X83506529Y-80735000D01*
X83549998Y-80739281D01*
X83593467Y-80735000D01*
X103056531Y-80735000D01*
X103100000Y-80739281D01*
X103143469Y-80735000D01*
X103143477Y-80735000D01*
X103273490Y-80722195D01*
X103440313Y-80671589D01*
X103594059Y-80589411D01*
X103728817Y-80478817D01*
X103756534Y-80445044D01*
X104776579Y-79425000D01*
X109609922Y-79425000D01*
X109720392Y-79559608D01*
X109938899Y-79738932D01*
X110188192Y-79872182D01*
X110458691Y-79954236D01*
X110669508Y-79975000D01*
X111610492Y-79975000D01*
X111821309Y-79954236D01*
X112091808Y-79872182D01*
X112341101Y-79738932D01*
X112559608Y-79559608D01*
X112573482Y-79542702D01*
X115836903Y-79542702D01*
X115908486Y-79786671D01*
X116163996Y-79907571D01*
X116438184Y-79976300D01*
X116720512Y-79990217D01*
X117000130Y-79948787D01*
X117266292Y-79853603D01*
X117391514Y-79786671D01*
X117463097Y-79542702D01*
X117413097Y-79492702D01*
X120486903Y-79492702D01*
X120558486Y-79736671D01*
X120813996Y-79857571D01*
X121088184Y-79926300D01*
X121370512Y-79940217D01*
X121650130Y-79898787D01*
X121916292Y-79803603D01*
X122041514Y-79736671D01*
X122113097Y-79492702D01*
X121300000Y-78679605D01*
X120486903Y-79492702D01*
X117413097Y-79492702D01*
X116650000Y-78729605D01*
X115836903Y-79542702D01*
X112573482Y-79542702D01*
X112738932Y-79341101D01*
X112872182Y-79091808D01*
X112954236Y-78821309D01*
X112974013Y-78620512D01*
X115209783Y-78620512D01*
X115251213Y-78900130D01*
X115346397Y-79166292D01*
X115413329Y-79291514D01*
X115657298Y-79363097D01*
X116470395Y-78550000D01*
X116829605Y-78550000D01*
X117642702Y-79363097D01*
X117886671Y-79291514D01*
X118007571Y-79036004D01*
X118076300Y-78761816D01*
X118085730Y-78570512D01*
X119859783Y-78570512D01*
X119901213Y-78850130D01*
X119996397Y-79116292D01*
X120063329Y-79241514D01*
X120307298Y-79313097D01*
X121120395Y-78500000D01*
X121479605Y-78500000D01*
X122292702Y-79313097D01*
X122536671Y-79241514D01*
X122657571Y-78986004D01*
X122726300Y-78711816D01*
X122740217Y-78429488D01*
X122698787Y-78149870D01*
X122603603Y-77883708D01*
X122536671Y-77758486D01*
X122292702Y-77686903D01*
X121479605Y-78500000D01*
X121120395Y-78500000D01*
X120307298Y-77686903D01*
X120063329Y-77758486D01*
X119942429Y-78013996D01*
X119873700Y-78288184D01*
X119859783Y-78570512D01*
X118085730Y-78570512D01*
X118090217Y-78479488D01*
X118048787Y-78199870D01*
X117953603Y-77933708D01*
X117886671Y-77808486D01*
X117642702Y-77736903D01*
X116829605Y-78550000D01*
X116470395Y-78550000D01*
X115657298Y-77736903D01*
X115413329Y-77808486D01*
X115292429Y-78063996D01*
X115223700Y-78338184D01*
X115209783Y-78620512D01*
X112974013Y-78620512D01*
X112981943Y-78540000D01*
X112954236Y-78258691D01*
X112872182Y-77988192D01*
X112738932Y-77738899D01*
X112589896Y-77557298D01*
X115836903Y-77557298D01*
X116650000Y-78370395D01*
X117463097Y-77557298D01*
X117448427Y-77507298D01*
X120486903Y-77507298D01*
X121300000Y-78320395D01*
X122113097Y-77507298D01*
X122041514Y-77263329D01*
X121786004Y-77142429D01*
X121511816Y-77073700D01*
X121229488Y-77059783D01*
X120949870Y-77101213D01*
X120683708Y-77196397D01*
X120558486Y-77263329D01*
X120486903Y-77507298D01*
X117448427Y-77507298D01*
X117391514Y-77313329D01*
X117136004Y-77192429D01*
X116861816Y-77123700D01*
X116579488Y-77109783D01*
X116299870Y-77151213D01*
X116033708Y-77246397D01*
X115908486Y-77313329D01*
X115836903Y-77557298D01*
X112589896Y-77557298D01*
X112559608Y-77520392D01*
X112341101Y-77341068D01*
X112208142Y-77270000D01*
X112341101Y-77198932D01*
X112559608Y-77019608D01*
X112670078Y-76885000D01*
X124611546Y-76885000D01*
X124659744Y-76917205D01*
X124848102Y-76995226D01*
X125048061Y-77035000D01*
X125251939Y-77035000D01*
X125451898Y-76995226D01*
X125640256Y-76917205D01*
X125809774Y-76803937D01*
X125953937Y-76659774D01*
X126062327Y-76497556D01*
X126142752Y-76540545D01*
X126286013Y-76584002D01*
X126333745Y-76588703D01*
X126323989Y-76612257D01*
X126265000Y-76908816D01*
X126265000Y-77211184D01*
X126323989Y-77507743D01*
X126439701Y-77787095D01*
X126607688Y-78038505D01*
X126821495Y-78252312D01*
X127072905Y-78420299D01*
X127352257Y-78536011D01*
X127648816Y-78595000D01*
X127951184Y-78595000D01*
X128247743Y-78536011D01*
X128527095Y-78420299D01*
X128778505Y-78252312D01*
X128906737Y-78124080D01*
X129455525Y-78124080D01*
X129539208Y-78378261D01*
X129811775Y-78509158D01*
X130104642Y-78584365D01*
X130406553Y-78600991D01*
X130705907Y-78558397D01*
X130991199Y-78458222D01*
X131140792Y-78378261D01*
X131224475Y-78124080D01*
X130340000Y-77239605D01*
X129455525Y-78124080D01*
X128906737Y-78124080D01*
X128992312Y-78038505D01*
X129094951Y-77884895D01*
X129275920Y-77944475D01*
X130160395Y-77060000D01*
X130519605Y-77060000D01*
X131404080Y-77944475D01*
X131658261Y-77860792D01*
X131789158Y-77588225D01*
X131864365Y-77295358D01*
X131880991Y-76993447D01*
X131838397Y-76694093D01*
X131738222Y-76408801D01*
X131658261Y-76259208D01*
X131404080Y-76175525D01*
X130519605Y-77060000D01*
X130160395Y-77060000D01*
X130146253Y-77045858D01*
X130325858Y-76866253D01*
X130340000Y-76880395D01*
X131224475Y-75995920D01*
X131164895Y-75814951D01*
X131318505Y-75712312D01*
X131532312Y-75498505D01*
X131700299Y-75247095D01*
X131816011Y-74967743D01*
X131875000Y-74671184D01*
X131875000Y-74368816D01*
X131816011Y-74072257D01*
X131700299Y-73792905D01*
X131532312Y-73541495D01*
X131318505Y-73327688D01*
X131202237Y-73250000D01*
X131318505Y-73172312D01*
X131532312Y-72958505D01*
X131700299Y-72707095D01*
X131816011Y-72427743D01*
X131875000Y-72131184D01*
X131875000Y-71828816D01*
X131853060Y-71718518D01*
X132205050Y-71366529D01*
X132238817Y-71338817D01*
X132349411Y-71204059D01*
X132431589Y-71050313D01*
X132482195Y-70883490D01*
X132495000Y-70753477D01*
X132495000Y-70753467D01*
X132499281Y-70710001D01*
X132495000Y-70666535D01*
X132495000Y-70459352D01*
X132511590Y-70428314D01*
X132562196Y-70261491D01*
X132575001Y-70131478D01*
X132575001Y-70131468D01*
X132579282Y-70088002D01*
X132575001Y-70044536D01*
X132575001Y-66033466D01*
X132579282Y-65990000D01*
X132575001Y-65946534D01*
X132575001Y-65946524D01*
X132562196Y-65816511D01*
X132511590Y-65649688D01*
X132429412Y-65495942D01*
X132391119Y-65449282D01*
X132346533Y-65394954D01*
X132346531Y-65394952D01*
X132318818Y-65361184D01*
X132285050Y-65333471D01*
X130916535Y-63964957D01*
X130888818Y-63931184D01*
X130754060Y-63820590D01*
X130600314Y-63738412D01*
X130433491Y-63687806D01*
X130303478Y-63675001D01*
X130303470Y-63675001D01*
X130260001Y-63670720D01*
X130216532Y-63675001D01*
X122680564Y-63675001D01*
X122735000Y-63401335D01*
X122735000Y-63118665D01*
X122679853Y-62841426D01*
X122571680Y-62580273D01*
X122414637Y-62345241D01*
X122214759Y-62145363D01*
X121979727Y-61988320D01*
X121718574Y-61880147D01*
X121441335Y-61825000D01*
X121158665Y-61825000D01*
X121123561Y-61831983D01*
X120356533Y-61064955D01*
X120328816Y-61031182D01*
X120194058Y-60920588D01*
X120040312Y-60838410D01*
X119873489Y-60787804D01*
X119743476Y-60774999D01*
X119743468Y-60774999D01*
X119699999Y-60770718D01*
X119656530Y-60774999D01*
X116646578Y-60774999D01*
X116359651Y-60488072D01*
X117550000Y-60488072D01*
X117674482Y-60475812D01*
X117794180Y-60439502D01*
X117904494Y-60380537D01*
X118001185Y-60301185D01*
X118080537Y-60204494D01*
X118139502Y-60094180D01*
X118175812Y-59974482D01*
X118188072Y-59850000D01*
X118188072Y-58150000D01*
X118175812Y-58025518D01*
X118139502Y-57905820D01*
X118080537Y-57795506D01*
X118001185Y-57698815D01*
X117904494Y-57619463D01*
X117794180Y-57560498D01*
X117725313Y-57539607D01*
X117755134Y-57515134D01*
X117894759Y-57345000D01*
X120114207Y-57345000D01*
X120294866Y-57565134D01*
X120324687Y-57589607D01*
X120255820Y-57610498D01*
X120145506Y-57669463D01*
X120048815Y-57748815D01*
X119969463Y-57845506D01*
X119910498Y-57955820D01*
X119874188Y-58075518D01*
X119861928Y-58200000D01*
X119861928Y-59900000D01*
X119874188Y-60024482D01*
X119910498Y-60144180D01*
X119969463Y-60254494D01*
X120048815Y-60351185D01*
X120145506Y-60430537D01*
X120255820Y-60489502D01*
X120375518Y-60525812D01*
X120500000Y-60538072D01*
X122200000Y-60538072D01*
X122324482Y-60525812D01*
X122444180Y-60489502D01*
X122554494Y-60430537D01*
X122651185Y-60351185D01*
X122730537Y-60254494D01*
X122789502Y-60144180D01*
X122825812Y-60024482D01*
X122838072Y-59900000D01*
X122838072Y-58200000D01*
X122825812Y-58075518D01*
X122789502Y-57955820D01*
X122730537Y-57845506D01*
X122651185Y-57748815D01*
X122554494Y-57669463D01*
X122444180Y-57610498D01*
X122375313Y-57589607D01*
X122405134Y-57565134D01*
X122590706Y-57339014D01*
X122728599Y-57081034D01*
X122813513Y-56801111D01*
X122842185Y-56510000D01*
X122813513Y-56218889D01*
X122728599Y-55938966D01*
X122590706Y-55680986D01*
X122552966Y-55635000D01*
X128561546Y-55635000D01*
X128609744Y-55667205D01*
X128798102Y-55745226D01*
X128998061Y-55785000D01*
X129201939Y-55785000D01*
X129401898Y-55745226D01*
X129590256Y-55667205D01*
X129759774Y-55553937D01*
X129903937Y-55409774D01*
X130017205Y-55240256D01*
X130095226Y-55051898D01*
X130135000Y-54851939D01*
X130135000Y-54648061D01*
X130095226Y-54448102D01*
X130017205Y-54259744D01*
X129903937Y-54090226D01*
X129759774Y-53946063D01*
X129590256Y-53832795D01*
X129401898Y-53754774D01*
X129201939Y-53715000D01*
X128998061Y-53715000D01*
X128798102Y-53754774D01*
X128609744Y-53832795D01*
X128561546Y-53865000D01*
X126748711Y-53865000D01*
X126803937Y-53809774D01*
X126917205Y-53640256D01*
X126995226Y-53451898D01*
X127035000Y-53251939D01*
X127035000Y-53048061D01*
X126995226Y-52848102D01*
X126917205Y-52659744D01*
X126803937Y-52490226D01*
X126659774Y-52346063D01*
X126490256Y-52232795D01*
X126301898Y-52154774D01*
X126101939Y-52115000D01*
X125898061Y-52115000D01*
X125698102Y-52154774D01*
X125509744Y-52232795D01*
X125476512Y-52255000D01*
X112670078Y-52255000D01*
X112559608Y-52120392D01*
X112341101Y-51941068D01*
X112208142Y-51870000D01*
X112341101Y-51798932D01*
X112559608Y-51619608D01*
X112738932Y-51401101D01*
X112872182Y-51151808D01*
X112954236Y-50881309D01*
X112981943Y-50600000D01*
X112954236Y-50318691D01*
X112872182Y-50048192D01*
X112738932Y-49798899D01*
X112559608Y-49580392D01*
X112341101Y-49401068D01*
X112091808Y-49267818D01*
X111821309Y-49185764D01*
X111610492Y-49165000D01*
X110669508Y-49165000D01*
X110458691Y-49185764D01*
X110188192Y-49267818D01*
X109938899Y-49401068D01*
X109720392Y-49580392D01*
X109541068Y-49798899D01*
X109407818Y-50048192D01*
X109325764Y-50318691D01*
X109298057Y-50600000D01*
X109325764Y-50881309D01*
X109407818Y-51151808D01*
X109541068Y-51401101D01*
X109720392Y-51619608D01*
X109938899Y-51798932D01*
X110071858Y-51870000D01*
X109938899Y-51941068D01*
X109720392Y-52120392D01*
X109541068Y-52338899D01*
X109407818Y-52588192D01*
X109325764Y-52858691D01*
X109298057Y-53140000D01*
X109325764Y-53421309D01*
X109407818Y-53691808D01*
X109541068Y-53941101D01*
X109720392Y-54159608D01*
X109938899Y-54338932D01*
X110071858Y-54410000D01*
X109938899Y-54481068D01*
X109720392Y-54660392D01*
X109541068Y-54878899D01*
X109407818Y-55128192D01*
X109325764Y-55398691D01*
X109298057Y-55680000D01*
X109325764Y-55961309D01*
X109349277Y-56038823D01*
X109340256Y-56032795D01*
X109151898Y-55954774D01*
X108951939Y-55915000D01*
X108748061Y-55915000D01*
X108548102Y-55954774D01*
X108359744Y-56032795D01*
X108190226Y-56146063D01*
X108046063Y-56290226D01*
X107932795Y-56459744D01*
X107854774Y-56648102D01*
X107815000Y-56848061D01*
X107815000Y-57051939D01*
X107854774Y-57251898D01*
X107932795Y-57440256D01*
X107965000Y-57488455D01*
X107965001Y-61366521D01*
X107960719Y-61410000D01*
X107977805Y-61583490D01*
X108028412Y-61750313D01*
X108110590Y-61904059D01*
X108193468Y-62005046D01*
X108193471Y-62005049D01*
X108221184Y-62038817D01*
X108254951Y-62066529D01*
X108603422Y-62415000D01*
X107848377Y-62415000D01*
X107895226Y-62301898D01*
X107935000Y-62101939D01*
X107935000Y-61898061D01*
X107895226Y-61698102D01*
X107817205Y-61509744D01*
X107785000Y-61461546D01*
X107785000Y-51088454D01*
X107817205Y-51040256D01*
X107895226Y-50851898D01*
X107935000Y-50651939D01*
X107935000Y-50448061D01*
X107895226Y-50248102D01*
X107817205Y-50059744D01*
X107703937Y-49890226D01*
X107559774Y-49746063D01*
X107390256Y-49632795D01*
X107201898Y-49554774D01*
X107001939Y-49515000D01*
X106798061Y-49515000D01*
X106598102Y-49554774D01*
X106409744Y-49632795D01*
X106240226Y-49746063D01*
X106096063Y-49890226D01*
X105982795Y-50059744D01*
X105904774Y-50248102D01*
X105865000Y-50448061D01*
X105865000Y-50651939D01*
X105904774Y-50851898D01*
X105982795Y-51040256D01*
X106015001Y-51088456D01*
X106015000Y-61461546D01*
X105982795Y-61509744D01*
X105904774Y-61698102D01*
X105865000Y-61898061D01*
X105865000Y-62101939D01*
X105904774Y-62301898D01*
X105951623Y-62415000D01*
X97430078Y-62415000D01*
X97319608Y-62280392D01*
X97101101Y-62101068D01*
X96968142Y-62030000D01*
X97101101Y-61958932D01*
X97319608Y-61779608D01*
X97498932Y-61561101D01*
X97632182Y-61311808D01*
X97714236Y-61041309D01*
X97741943Y-60760000D01*
X97714236Y-60478691D01*
X97632182Y-60208192D01*
X97498932Y-59958899D01*
X97319608Y-59740392D01*
X97101101Y-59561068D01*
X96968142Y-59490000D01*
X97101101Y-59418932D01*
X97319608Y-59239608D01*
X97498932Y-59021101D01*
X97632182Y-58771808D01*
X97714236Y-58501309D01*
X97741943Y-58220000D01*
X97714236Y-57938691D01*
X97632182Y-57668192D01*
X97498932Y-57418899D01*
X97319608Y-57200392D01*
X97101101Y-57021068D01*
X96968142Y-56950000D01*
X97101101Y-56878932D01*
X97319608Y-56699608D01*
X97498932Y-56481101D01*
X97632182Y-56231808D01*
X97714236Y-55961309D01*
X97741943Y-55680000D01*
X97714236Y-55398691D01*
X97632182Y-55128192D01*
X97498932Y-54878899D01*
X97319608Y-54660392D01*
X97101101Y-54481068D01*
X96968142Y-54410000D01*
X97101101Y-54338932D01*
X97319608Y-54159608D01*
X97498932Y-53941101D01*
X97632182Y-53691808D01*
X97714236Y-53421309D01*
X97741943Y-53140000D01*
X97714236Y-52858691D01*
X97632182Y-52588192D01*
X97498932Y-52338899D01*
X97319608Y-52120392D01*
X97206518Y-52027581D01*
X97224482Y-52025812D01*
X97344180Y-51989502D01*
X97454494Y-51930537D01*
X97551185Y-51851185D01*
X97630537Y-51754494D01*
X97689502Y-51644180D01*
X97725812Y-51524482D01*
X97738072Y-51400000D01*
X97738072Y-49800000D01*
X97725812Y-49675518D01*
X97689502Y-49555820D01*
X97630537Y-49445506D01*
X97551185Y-49348815D01*
X97454494Y-49269463D01*
X97344180Y-49210498D01*
X97224482Y-49174188D01*
X97100000Y-49161928D01*
X94700000Y-49161928D01*
X94575518Y-49174188D01*
X94455820Y-49210498D01*
X94345506Y-49269463D01*
X94248815Y-49348815D01*
X94169463Y-49445506D01*
X94110498Y-49555820D01*
X94074188Y-49675518D01*
X94061928Y-49800000D01*
X94061928Y-51400000D01*
X94074188Y-51524482D01*
X94110498Y-51644180D01*
X94169463Y-51754494D01*
X94248815Y-51851185D01*
X94345506Y-51930537D01*
X94455820Y-51989502D01*
X94575518Y-52025812D01*
X94593482Y-52027581D01*
X94480392Y-52120392D01*
X94301068Y-52338899D01*
X94167818Y-52588192D01*
X94085764Y-52858691D01*
X94058057Y-53140000D01*
X94085764Y-53421309D01*
X94167818Y-53691808D01*
X94301068Y-53941101D01*
X94480392Y-54159608D01*
X94698899Y-54338932D01*
X94831858Y-54410000D01*
X94698899Y-54481068D01*
X94480392Y-54660392D01*
X94301068Y-54878899D01*
X94167818Y-55128192D01*
X94085764Y-55398691D01*
X94058057Y-55680000D01*
X94085764Y-55961309D01*
X94167818Y-56231808D01*
X94301068Y-56481101D01*
X94480392Y-56699608D01*
X94698899Y-56878932D01*
X94831858Y-56950000D01*
X94698899Y-57021068D01*
X94480392Y-57200392D01*
X94369922Y-57335000D01*
X93573469Y-57335000D01*
X93530000Y-57330719D01*
X93486531Y-57335000D01*
X93486523Y-57335000D01*
X93356510Y-57347805D01*
X93189687Y-57398411D01*
X93035941Y-57480589D01*
X92901183Y-57591183D01*
X92873466Y-57624956D01*
X92654952Y-57843470D01*
X92621184Y-57871183D01*
X92593471Y-57904951D01*
X92593468Y-57904954D01*
X92510590Y-58005941D01*
X92428412Y-58159687D01*
X92377805Y-58326510D01*
X92360719Y-58500000D01*
X92365001Y-58543479D01*
X92365000Y-67211546D01*
X92332795Y-67259744D01*
X92254774Y-67448102D01*
X92215000Y-67648061D01*
X92215000Y-67851939D01*
X92254774Y-68051898D01*
X92332795Y-68240256D01*
X92446063Y-68409774D01*
X92590226Y-68553937D01*
X92759744Y-68667205D01*
X92948102Y-68745226D01*
X93148061Y-68785000D01*
X93351939Y-68785000D01*
X93551898Y-68745226D01*
X93740256Y-68667205D01*
X93909774Y-68553937D01*
X94053937Y-68409774D01*
X94060084Y-68400575D01*
X94085764Y-68661309D01*
X94167818Y-68931808D01*
X94301068Y-69181101D01*
X94480392Y-69399608D01*
X94698899Y-69578932D01*
X94831858Y-69650000D01*
X94698899Y-69721068D01*
X94480392Y-69900392D01*
X94301068Y-70118899D01*
X94167818Y-70368192D01*
X94085764Y-70638691D01*
X94058057Y-70920000D01*
X94085764Y-71201309D01*
X94167818Y-71471808D01*
X94301068Y-71721101D01*
X94480392Y-71939608D01*
X94698899Y-72118932D01*
X94831858Y-72190000D01*
X94698899Y-72261068D01*
X94480392Y-72440392D01*
X94301068Y-72658899D01*
X94167818Y-72908192D01*
X94085764Y-73178691D01*
X94058057Y-73460000D01*
X94085764Y-73741309D01*
X94167818Y-74011808D01*
X94301068Y-74261101D01*
X94480392Y-74479608D01*
X94698899Y-74658932D01*
X94831858Y-74730000D01*
X94698899Y-74801068D01*
X94480392Y-74980392D01*
X94301068Y-75198899D01*
X94167818Y-75448192D01*
X94085764Y-75718691D01*
X94058057Y-76000000D01*
X94085764Y-76281309D01*
X94167818Y-76551808D01*
X94301068Y-76801101D01*
X94480392Y-77019608D01*
X94698899Y-77198932D01*
X94826741Y-77267265D01*
X94597161Y-77417399D01*
X94395500Y-77615105D01*
X94236285Y-77848354D01*
X94125633Y-78108182D01*
X94108096Y-78190961D01*
X94230085Y-78413000D01*
X95773000Y-78413000D01*
X95773000Y-78393000D01*
X96027000Y-78393000D01*
X96027000Y-78413000D01*
X97569915Y-78413000D01*
X97691904Y-78190961D01*
X97674367Y-78108182D01*
X97563715Y-77848354D01*
X97404500Y-77615105D01*
X97202839Y-77417399D01*
X96973259Y-77267265D01*
X97101101Y-77198932D01*
X97319608Y-77019608D01*
X97498932Y-76801101D01*
X97632182Y-76551808D01*
X97714236Y-76281309D01*
X97741943Y-76000000D01*
X97714236Y-75718691D01*
X97632182Y-75448192D01*
X97498932Y-75198899D01*
X97319608Y-74980392D01*
X97101101Y-74801068D01*
X96968142Y-74730000D01*
X97101101Y-74658932D01*
X97319608Y-74479608D01*
X97498932Y-74261101D01*
X97632182Y-74011808D01*
X97714236Y-73741309D01*
X97741943Y-73460000D01*
X97714236Y-73178691D01*
X97632182Y-72908192D01*
X97498932Y-72658899D01*
X97319608Y-72440392D01*
X97101101Y-72261068D01*
X96968142Y-72190000D01*
X97101101Y-72118932D01*
X97319608Y-71939608D01*
X97498932Y-71721101D01*
X97632182Y-71471808D01*
X97714236Y-71201309D01*
X97741943Y-70920000D01*
X97714236Y-70638691D01*
X97632182Y-70368192D01*
X97498932Y-70118899D01*
X97319608Y-69900392D01*
X97101101Y-69721068D01*
X96968142Y-69650000D01*
X97101101Y-69578932D01*
X97319608Y-69399608D01*
X97498932Y-69181101D01*
X97632182Y-68931808D01*
X97714236Y-68661309D01*
X97741943Y-68380000D01*
X97714236Y-68098691D01*
X97632182Y-67828192D01*
X97498932Y-67578899D01*
X97319608Y-67360392D01*
X97101101Y-67181068D01*
X96968142Y-67110000D01*
X97101101Y-67038932D01*
X97319608Y-66859608D01*
X97430078Y-66725000D01*
X101323422Y-66725000D01*
X104863460Y-70265039D01*
X104891173Y-70298807D01*
X104924941Y-70326520D01*
X104924943Y-70326522D01*
X104943184Y-70341492D01*
X105025931Y-70409401D01*
X105179677Y-70491579D01*
X105346500Y-70542185D01*
X105476513Y-70554990D01*
X105476521Y-70554990D01*
X105519990Y-70559271D01*
X105563459Y-70554990D01*
X109351154Y-70554990D01*
X109325764Y-70638691D01*
X109298057Y-70920000D01*
X109325764Y-71201309D01*
X109407818Y-71471808D01*
X109541068Y-71721101D01*
X109720392Y-71939608D01*
X109938899Y-72118932D01*
X110071858Y-72190000D01*
X109938899Y-72261068D01*
X109720392Y-72440392D01*
X109541068Y-72658899D01*
X109407818Y-72908192D01*
X109325764Y-73178691D01*
X109298057Y-73460000D01*
X109325764Y-73741309D01*
X109363285Y-73865000D01*
X103266579Y-73865000D01*
X102855000Y-73453422D01*
X102855000Y-71458454D01*
X102887205Y-71410256D01*
X102965226Y-71221898D01*
X103005000Y-71021939D01*
X103005000Y-70818061D01*
X102965226Y-70618102D01*
X102887205Y-70429744D01*
X102773937Y-70260226D01*
X102629774Y-70116063D01*
X102460256Y-70002795D01*
X102271898Y-69924774D01*
X102071939Y-69885000D01*
X101868061Y-69885000D01*
X101668102Y-69924774D01*
X101479744Y-70002795D01*
X101310226Y-70116063D01*
X101166063Y-70260226D01*
X101052795Y-70429744D01*
X100974774Y-70618102D01*
X100935000Y-70818061D01*
X100935000Y-71021939D01*
X100974774Y-71221898D01*
X101052795Y-71410256D01*
X101085000Y-71458455D01*
X101085001Y-73776521D01*
X101080719Y-73820000D01*
X101097805Y-73993490D01*
X101148412Y-74160313D01*
X101230590Y-74314059D01*
X101313468Y-74415046D01*
X101313471Y-74415049D01*
X101341184Y-74448817D01*
X101374951Y-74476529D01*
X102243470Y-75345049D01*
X102271183Y-75378817D01*
X102304951Y-75406530D01*
X102304953Y-75406532D01*
X102405941Y-75489411D01*
X102559686Y-75571589D01*
X102689085Y-75610842D01*
X102726510Y-75622195D01*
X102856523Y-75635000D01*
X102856531Y-75635000D01*
X102900000Y-75639281D01*
X102943469Y-75635000D01*
X109351151Y-75635000D01*
X109325764Y-75718691D01*
X109298057Y-76000000D01*
X109325764Y-76281309D01*
X109407818Y-76551808D01*
X109541068Y-76801101D01*
X109720392Y-77019608D01*
X109938899Y-77198932D01*
X110071858Y-77270000D01*
X109938899Y-77341068D01*
X109720392Y-77520392D01*
X109609922Y-77655000D01*
X104453469Y-77655000D01*
X104410000Y-77650719D01*
X104366531Y-77655000D01*
X104366523Y-77655000D01*
X104236510Y-77667805D01*
X104069687Y-77718411D01*
X103941187Y-77787095D01*
X103915941Y-77800589D01*
X103814953Y-77883468D01*
X103814951Y-77883470D01*
X103781183Y-77911183D01*
X103753470Y-77944951D01*
X102733422Y-78965000D01*
X97675811Y-78965000D01*
X97691904Y-78889039D01*
X97569915Y-78667000D01*
X96027000Y-78667000D01*
X96027000Y-78687000D01*
X95773000Y-78687000D01*
X95773000Y-78667000D01*
X94230085Y-78667000D01*
X94108096Y-78889039D01*
X94124189Y-78965000D01*
X92336071Y-78965000D01*
X92335000Y-78785750D01*
X92176250Y-78627000D01*
X91027000Y-78627000D01*
X91027000Y-78647000D01*
X90773000Y-78647000D01*
X90773000Y-78627000D01*
X89623750Y-78627000D01*
X89465000Y-78785750D01*
X89463929Y-78965000D01*
X83916577Y-78965000D01*
X83384999Y-78433423D01*
X83384999Y-72157404D01*
X89015000Y-72157404D01*
X89015001Y-76092597D01*
X89042276Y-76369524D01*
X89150062Y-76724848D01*
X89325098Y-77052317D01*
X89560656Y-77339345D01*
X89569067Y-77346247D01*
X89510498Y-77455820D01*
X89474188Y-77575518D01*
X89461928Y-77700000D01*
X89465000Y-78214250D01*
X89623750Y-78373000D01*
X90773000Y-78373000D01*
X90773000Y-78353000D01*
X91027000Y-78353000D01*
X91027000Y-78373000D01*
X92176250Y-78373000D01*
X92335000Y-78214250D01*
X92338072Y-77700000D01*
X92325812Y-77575518D01*
X92289502Y-77455820D01*
X92230934Y-77346248D01*
X92239345Y-77339345D01*
X92474903Y-77052317D01*
X92649939Y-76724848D01*
X92757725Y-76369524D01*
X92785000Y-76092597D01*
X92785000Y-72157403D01*
X92757725Y-71880476D01*
X92649939Y-71525152D01*
X92474903Y-71197683D01*
X92370803Y-71070836D01*
X92330537Y-70995506D01*
X92251185Y-70898815D01*
X92154494Y-70819463D01*
X92079164Y-70779197D01*
X92036573Y-70744244D01*
X92092312Y-70688505D01*
X92260299Y-70437095D01*
X92376011Y-70157743D01*
X92435000Y-69861184D01*
X92435000Y-69558816D01*
X92376011Y-69262257D01*
X92260299Y-68982905D01*
X92092312Y-68731495D01*
X91878505Y-68517688D01*
X91785000Y-68455210D01*
X91785000Y-66924521D01*
X91814759Y-66904637D01*
X92014637Y-66704759D01*
X92171680Y-66469727D01*
X92279853Y-66208574D01*
X92335000Y-65931335D01*
X92335000Y-65648665D01*
X92279853Y-65371426D01*
X92171680Y-65110273D01*
X92014637Y-64875241D01*
X91814759Y-64675363D01*
X91579727Y-64518320D01*
X91318574Y-64410147D01*
X91041335Y-64355000D01*
X90758665Y-64355000D01*
X90481426Y-64410147D01*
X90220273Y-64518320D01*
X89985241Y-64675363D01*
X89785363Y-64875241D01*
X89628320Y-65110273D01*
X89520147Y-65371426D01*
X89465000Y-65648665D01*
X89465000Y-65931335D01*
X89520147Y-66208574D01*
X89628320Y-66469727D01*
X89785363Y-66704759D01*
X89985241Y-66904637D01*
X90015000Y-66924521D01*
X90015001Y-68455209D01*
X89921495Y-68517688D01*
X89707688Y-68731495D01*
X89539701Y-68982905D01*
X89423989Y-69262257D01*
X89365000Y-69558816D01*
X89365000Y-69861184D01*
X89423989Y-70157743D01*
X89539701Y-70437095D01*
X89707688Y-70688505D01*
X89763427Y-70744244D01*
X89720836Y-70779197D01*
X89645506Y-70819463D01*
X89548815Y-70898815D01*
X89469463Y-70995506D01*
X89429197Y-71070836D01*
X89325097Y-71197683D01*
X89150061Y-71525153D01*
X89042275Y-71880477D01*
X89015000Y-72157404D01*
X83384999Y-72157404D01*
X83384999Y-71498862D01*
X83402257Y-71506011D01*
X83698816Y-71565000D01*
X84001184Y-71565000D01*
X84297743Y-71506011D01*
X84577095Y-71390299D01*
X84828505Y-71222312D01*
X85042312Y-71008505D01*
X85210299Y-70757095D01*
X85326011Y-70477743D01*
X85385000Y-70181184D01*
X85385000Y-69878816D01*
X85326011Y-69582257D01*
X85210299Y-69302905D01*
X85042312Y-69051495D01*
X84828505Y-68837688D01*
X84577095Y-68669701D01*
X84517462Y-68645000D01*
X84577095Y-68620299D01*
X84828505Y-68452312D01*
X85042312Y-68238505D01*
X85210299Y-67987095D01*
X85326011Y-67707743D01*
X85385000Y-67411184D01*
X85385000Y-67108816D01*
X85326011Y-66812257D01*
X85210299Y-66532905D01*
X85042312Y-66281495D01*
X84828505Y-66067688D01*
X84577095Y-65899701D01*
X84517462Y-65875000D01*
X84577095Y-65850299D01*
X84828505Y-65682312D01*
X85042312Y-65468505D01*
X85210299Y-65217095D01*
X85326011Y-64937743D01*
X85385000Y-64641184D01*
X85385000Y-64448061D01*
X86265000Y-64448061D01*
X86265000Y-64651939D01*
X86304774Y-64851898D01*
X86382795Y-65040256D01*
X86496063Y-65209774D01*
X86640226Y-65353937D01*
X86809744Y-65467205D01*
X86998102Y-65545226D01*
X87198061Y-65585000D01*
X87397435Y-65585000D01*
X87365000Y-65748061D01*
X87365000Y-65951939D01*
X87404774Y-66151898D01*
X87482795Y-66340256D01*
X87596063Y-66509774D01*
X87740226Y-66653937D01*
X87909744Y-66767205D01*
X88098102Y-66845226D01*
X88298061Y-66885000D01*
X88501939Y-66885000D01*
X88701898Y-66845226D01*
X88890256Y-66767205D01*
X89059774Y-66653937D01*
X89203937Y-66509774D01*
X89317205Y-66340256D01*
X89395226Y-66151898D01*
X89435000Y-65951939D01*
X89435000Y-65748061D01*
X89395226Y-65548102D01*
X89317205Y-65359744D01*
X89285000Y-65311546D01*
X89285000Y-61288454D01*
X89317205Y-61240256D01*
X89395226Y-61051898D01*
X89435000Y-60851939D01*
X89435000Y-60648061D01*
X89395226Y-60448102D01*
X89317205Y-60259744D01*
X89203937Y-60090226D01*
X89059774Y-59946063D01*
X88890256Y-59832795D01*
X88701898Y-59754774D01*
X88501939Y-59715000D01*
X88298061Y-59715000D01*
X88185000Y-59737489D01*
X88185000Y-53763285D01*
X88267205Y-53640256D01*
X88345226Y-53451898D01*
X88385000Y-53251939D01*
X88385000Y-53048061D01*
X88345226Y-52848102D01*
X88267205Y-52659744D01*
X88153937Y-52490226D01*
X88009774Y-52346063D01*
X87840256Y-52232795D01*
X87651898Y-52154774D01*
X87451939Y-52115000D01*
X87248061Y-52115000D01*
X87048102Y-52154774D01*
X86859744Y-52232795D01*
X86690226Y-52346063D01*
X86546063Y-52490226D01*
X86432795Y-52659744D01*
X86354774Y-52848102D01*
X86315000Y-53048061D01*
X86315000Y-53251939D01*
X86354774Y-53451898D01*
X86415001Y-53597298D01*
X86415000Y-64011546D01*
X86382795Y-64059744D01*
X86304774Y-64248102D01*
X86265000Y-64448061D01*
X85385000Y-64448061D01*
X85385000Y-64338816D01*
X85326011Y-64042257D01*
X85210299Y-63762905D01*
X85042312Y-63511495D01*
X84828505Y-63297688D01*
X84577095Y-63129701D01*
X84517462Y-63105000D01*
X84577095Y-63080299D01*
X84828505Y-62912312D01*
X85042312Y-62698505D01*
X85210299Y-62447095D01*
X85326011Y-62167743D01*
X85385000Y-61871184D01*
X85385000Y-61568816D01*
X85326011Y-61272257D01*
X85210299Y-60992905D01*
X85042312Y-60741495D01*
X84828505Y-60527688D01*
X84577095Y-60359701D01*
X84517462Y-60335000D01*
X84577095Y-60310299D01*
X84828505Y-60142312D01*
X85042312Y-59928505D01*
X85210299Y-59677095D01*
X85326011Y-59397743D01*
X85385000Y-59101184D01*
X85385000Y-58798816D01*
X85326011Y-58502257D01*
X85210299Y-58222905D01*
X85042312Y-57971495D01*
X84828505Y-57757688D01*
X84577095Y-57589701D01*
X84297743Y-57473989D01*
X84001184Y-57415000D01*
X83698816Y-57415000D01*
X83402257Y-57473989D01*
X83122905Y-57589701D01*
X82871495Y-57757688D01*
X82657688Y-57971495D01*
X82489701Y-58222905D01*
X82373989Y-58502257D01*
X82315000Y-58798816D01*
X82315000Y-59101184D01*
X82336940Y-59211482D01*
X82197119Y-59351302D01*
X81988505Y-59142688D01*
X81737095Y-58974701D01*
X81457743Y-58858989D01*
X81161184Y-58800000D01*
X80858816Y-58800000D01*
X80562257Y-58858989D01*
X80282905Y-58974701D01*
X80031495Y-59142688D01*
X79817688Y-59356495D01*
X79649701Y-59607905D01*
X79533989Y-59887257D01*
X79475000Y-60183816D01*
X70480000Y-60183816D01*
X70480000Y-54100714D01*
X67110000Y-54100714D01*
X67110000Y-51848665D01*
X73215000Y-51848665D01*
X73215000Y-52131335D01*
X73270147Y-52408574D01*
X73378320Y-52669727D01*
X73535363Y-52904759D01*
X73735241Y-53104637D01*
X73970273Y-53261680D01*
X74231426Y-53369853D01*
X74508665Y-53425000D01*
X74791335Y-53425000D01*
X75068574Y-53369853D01*
X75329727Y-53261680D01*
X75564759Y-53104637D01*
X75764637Y-52904759D01*
X75921680Y-52669727D01*
X76029853Y-52408574D01*
X76085000Y-52131335D01*
X76085000Y-51848665D01*
X76029853Y-51571426D01*
X75921680Y-51310273D01*
X75764637Y-51075241D01*
X75651202Y-50961806D01*
X89111801Y-50961806D01*
X89226500Y-51302754D01*
X89405511Y-51614774D01*
X89641954Y-51885875D01*
X89926743Y-52105639D01*
X90248934Y-52265621D01*
X90488195Y-52338195D01*
X90773000Y-52221432D01*
X90773000Y-50677000D01*
X91027000Y-50677000D01*
X91027000Y-52221432D01*
X91311805Y-52338195D01*
X91551066Y-52265621D01*
X91873257Y-52105639D01*
X92158046Y-51885875D01*
X92394489Y-51614774D01*
X92573500Y-51302754D01*
X92688199Y-50961806D01*
X92571854Y-50677000D01*
X91027000Y-50677000D01*
X90773000Y-50677000D01*
X89228146Y-50677000D01*
X89111801Y-50961806D01*
X75651202Y-50961806D01*
X75564759Y-50875363D01*
X75329727Y-50718320D01*
X75068574Y-50610147D01*
X74791335Y-50555000D01*
X74508665Y-50555000D01*
X74231426Y-50610147D01*
X73970273Y-50718320D01*
X73735241Y-50875363D01*
X73535363Y-51075241D01*
X73378320Y-51310273D01*
X73270147Y-51571426D01*
X73215000Y-51848665D01*
X67110000Y-51848665D01*
X67110000Y-50138194D01*
X89111801Y-50138194D01*
X89228146Y-50423000D01*
X90773000Y-50423000D01*
X90773000Y-48878568D01*
X91027000Y-48878568D01*
X91027000Y-50423000D01*
X92571854Y-50423000D01*
X92688199Y-50138194D01*
X92573500Y-49797246D01*
X92394489Y-49485226D01*
X92158046Y-49214125D01*
X91873257Y-48994361D01*
X91551066Y-48834379D01*
X91311805Y-48761805D01*
X91027000Y-48878568D01*
X90773000Y-48878568D01*
X90488195Y-48761805D01*
X90248934Y-48834379D01*
X89926743Y-48994361D01*
X89641954Y-49214125D01*
X89405511Y-49485226D01*
X89226500Y-49797246D01*
X89111801Y-50138194D01*
X67110000Y-50138194D01*
X67110000Y-47910000D01*
X132740000Y-47910000D01*
X132740001Y-81040000D01*
M02*
